SplineFontDB: 3.0
FontName: NokyungTestCA
FullName: NokyungTestCA
FamilyName: NokyungTestCA
Weight: Normal
Copyright: Copyright (c) 2008-2014 SIL International
Version: 
ItalicAngle: 0
UnderlinePosition: -113
UnderlineWidth: 20
Ascent: 1650
Descent: 398
sfntRevision: 0x00010000
LayerCount: 2
Layer: 0 0 "Back"  1
Layer: 1 0 "Fore"  0
XUID: [1021 140 1873711314 9624742]
FSType: 0
OS2Version: 3
OS2_WeightWidthSlopeOnly: 0
OS2_UseTypoMetrics: 0
CreationTime: 1363859104
ModificationTime: 1398955549
PfmFamily: 17
TTFWeight: 400
TTFWidth: 5
LineGap: 0
VLineGap: 0
Panose: 2 0 4 0 0 0 0 0 0 0
OS2TypoAscent: 1700
OS2TypoAOffset: 0
OS2TypoDescent: -750
OS2TypoDOffset: 0
OS2TypoLinegap: 0
OS2WinAscent: 1700
OS2WinAOffset: 0
OS2WinDescent: 750
OS2WinDOffset: 0
HheadAscent: 1700
HheadAOffset: 0
HheadDescent: -750
HheadDOffset: 0
OS2SubXSize: 1331
OS2SubYSize: 1228
OS2SubXOff: 0
OS2SubYOff: 153
OS2SupXSize: 1331
OS2SupYSize: 1228
OS2SupXOff: 0
OS2SupYOff: 716
OS2StrikeYSize: 20
OS2StrikeYPos: 543
OS2Vendor: 'SIL '
OS2CodePages: 00000001.00000000
OS2UnicodeRanges: 00000001.00000000.80000000.00000000
MarkAttachClasses: 1
DEI: 91125

StartChar: .notdef
Encoding: 65536 -1 0
Width: 1024
Flags: MW
LayerCount: 2
Fore
SplineSet
896 0 m 1
 128 0 l 1
 128 1400 l 1
 896 1400 l 1
 896 0 l 1
256 1272 m 1
 256 128 l 1
 768 128 l 1
 768 1272 l 1
 256 1272 l 1
EndSplineSet
EndChar

StartChar: exclam
Encoding: 33 33 4
Width: 412
Flags: MW
LayerCount: 2
Fore
SplineSet
160 103 m 0
 160 175 204 220 276 220 c 0
 350 220 399 175 399 103 c 0
 399 30 350 -19 276 -19 c 0
 204 -19 160 30 160 103 c 0
311 315 m 2
 310 305 304 295 293 295 c 2
 263 295 l 2
 254 295 247 305 246 315 c 2
 246 315 186 713 166 850 c 0
 156 921 204 970 276 970 c 0
 350 970 401 921 391 850 c 0
 371 713 311 315 311 315 c 2
EndSplineSet
EndChar

StartChar: quotedbl
Encoding: 34 34 5
Width: 909
Flags: MW
LayerCount: 2
Fore
SplineSet
358 1339 m 0
 358 1317 350 1255 334 1154 c 2
 283 830 l 2
 282 822 272 818 255 819 c 0
 238 819 229 823 228 830 c 2
 180 1154 l 2
 163 1271 154 1328 154 1323 c 1
 154 1412 188 1457 257 1457 c 0
 324 1457 358 1418 358 1339 c 0
748 1339 m 0
 748 1317 740 1255 724 1154 c 2
 673 830 l 2
 672 822 662 818 645 819 c 0
 628 819 619 823 618 830 c 2
 570 1154 l 2
 553 1271 544 1328 544 1323 c 1
 544 1412 578 1457 647 1457 c 0
 714 1457 748 1418 748 1339 c 0
EndSplineSet
EndChar

StartChar: quotesingle
Encoding: 39 39 6
Width: 412
Flags: MW
LayerCount: 2
Fore
SplineSet
308 1339 m 0
 308 1317 300 1255 284 1154 c 2
 233 830 l 2
 232 822 222 818 205 819 c 0
 188 819 179 823 178 830 c 2
 130 1154 l 2
 113 1271 104 1328 104 1323 c 1
 104 1412 138 1457 207 1457 c 0
 274 1457 308 1418 308 1339 c 0
EndSplineSet
EndChar

StartChar: parenleft
Encoding: 40 40 7
Width: 705
Flags: MW
LayerCount: 2
Fore
SplineSet
808 -615 m 0
 785 -632 742 -628 681 -601 c 0
 538 -540 420 -427 328 -264 c 0
 217 -67 161 178 161 473 c 0
 161 1011 334 1377 681 1571 c 0
 742 1605 785 1615 808 1602 c 0
 810 1601 811 1599 811 1597 c 0
 811 1586 785 1567 734 1540 c 0
 634 1488 543 1380 460 1215 c 0
 355 1006 303 761 303 482 c 0
 303 201 354 -43 457 -249 c 0
 541 -417 633 -521 734 -560 c 0
 785 -580 811 -596 811 -609 c 0
 811 -612 810 -614 808 -615 c 0
EndSplineSet
EndChar

StartChar: parenright
Encoding: 41 41 8
Width: 705
Flags: MW
LayerCount: 2
Fore
SplineSet
544 548 m 0
 544 10 371 -356 24 -550 c 0
 -37 -584 -80 -594 -103 -581 c 0
 -105 -580 -106 -578 -106 -576 c 0
 -106 -565 -81 -546 -30 -519 c 0
 70 -467 161 -359 244 -194 c 0
 349 15 401 259 401 538 c 0
 401 820 350 1064 247 1269 c 1
 164 1438 72 1542 -29 1581 c 0
 -81 1602 -107 1618 -107 1630 c 0
 -107 1633 -106 1635 -104 1636 c 0
 -81 1653 -38 1649 24 1622 c 0
 167 1561 285 1448 377 1285 c 0
 488 1088 544 843 544 548 c 0
EndSplineSet
EndChar

StartChar: asterisk
Encoding: 42 42 9
Width: 1025
Flags: MW
LayerCount: 2
Fore
SplineSet
930 1257 m 0
 940 1227 945 1208 945 1200 c 0
 945 1189 937 1182 922 1177 c 0
 889 1166 831 1155 748 1142 c 0
 676 1131 619 1117 577 1099 c 1
 600 1060 638 1015 690 962 c 0
 748 903 787 860 808 831 c 0
 814 822 817 816 817 811 c 0
 817 802 802 787 771 765 c 0
 741 743 722 732 714 732 c 0
 707 732 700 737 693 747 c 0
 672 776 643 827 606 902 c 0
 573 967 542 1017 512 1052 c 1
 482 1017 450 967 417 902 c 1
 378 829 349 778 328 749 c 0
 321 739 314 734 307 734 c 0
 299 734 281 744 254 763 c 1
 221 788 204 804 204 813 c 0
 204 818 207 825 213 833 c 0
 234 861 274 904 334 963 c 0
 386 1014 424 1060 447 1099 c 1
 405 1116 348 1131 275 1143 c 0
 194 1157 136 1169 102 1180 c 0
 87 1185 80 1192 80 1203 c 0
 80 1211 84 1228 93 1255 c 0
 107 1297 120 1318 131 1318 c 0
 135 1318 140 1317 146 1315 c 0
 179 1304 233 1280 307 1241 c 0
 372 1207 427 1185 472 1175 c 1
 473 1188 473 1202 473 1216 c 0
 473 1252 468 1304 458 1371 c 0
 448 1439 443 1491 443 1528 c 0
 443 1545 450 1556 465 1559 c 0
 468 1560 483 1560 511 1560 c 2
 559 1560 l 1
 576 1557 585 1546 585 1528 c 0
 585 1491 579 1439 567 1372 c 0
 556 1305 550 1255 550 1220 c 0
 550 1205 551 1190 552 1175 c 1
 596 1186 651 1207 717 1240 c 0
 791 1277 845 1301 878 1312 c 0
 885 1314 890 1315 894 1315 c 0
 905 1315 917 1296 930 1257 c 0
EndSplineSet
EndChar

StartChar: comma
Encoding: 44 44 10
Width: 766
Flags: MW
LayerCount: 2
Fore
SplineSet
160 134 m 0
 160 225 215 281 306 281 c 0
 399 281 460 225 460 134 c 0
 460 -62 382 -183 214 -241 c 0
 205 -244 199 -242 195 -233 c 2
 181 -193 l 1
 179 -184 178 -174 188 -170 c 0
 279 -137 349 -68 366 10 c 1
 352 -6 326 -19 286 -19 c 0
 225 -19 160 43 160 134 c 0
EndSplineSet
EndChar

StartChar: hyphen
Encoding: 45 45 11
Width: 635
Flags: MW
LayerCount: 2
Fore
SplineSet
517 551 m 0
 517 520 508 505 490 505 c 2
 144 505 l 2
 127 505 118 520 118 551 c 0
 118 580 128 594 147 594 c 2
 488 594 l 2
 507 594 517 580 517 551 c 0
EndSplineSet
EndChar

StartChar: period
Encoding: 46 46 12
Width: 766
Flags: MW
LayerCount: 2
Fore
SplineSet
160 134 m 0
 160 225 215 281 306 281 c 0
 399 281 460 225 460 134 c 0
 460 43 399 -19 306 -19 c 0
 215 -19 160 43 160 134 c 0
EndSplineSet
EndChar

StartChar: slash
Encoding: 47 47 13
Width: 633
Flags: MW
LayerCount: 2
Fore
SplineSet
653 1564 m 2
 122 -16 l 2
 118 -29 97 -35 59 -35 c 0
 21 -35 4 -29 8 -16 c 2
 544 1564 l 2
 549 1577 569 1584 605 1584 c 0
 642 1584 658 1577 653 1564 c 2
EndSplineSet
EndChar

StartChar: colon
Encoding: 58 58 14
Width: 699
Flags: MW
LayerCount: 2
Fore
SplineSet
160 103 m 0
 160 175 204 220 276 220 c 0
 350 220 399 175 399 103 c 0
 399 30 350 -19 276 -19 c 0
 204 -19 160 30 160 103 c 0
160 473 m 0
 160 545 204 590 276 590 c 0
 350 590 399 545 399 473 c 0
 399 400 350 351 276 351 c 0
 204 351 160 400 160 473 c 0
EndSplineSet
EndChar

StartChar: semicolon
Encoding: 59 59 15
Width: 407
Flags: MW
LayerCount: 2
Fore
SplineSet
293 709 m 0
 293 634 252 583 200 583 c 0
 147 583 108 636 108 709 c 0
 108 747 118 777 137 800 c 0
 154 821 175 831 200 831 c 0
 248 831 293 781 293 709 c 0
316 3 m 0
 316 -99 285 -196 222 -287 c 0
 171 -362 132 -400 106 -400 c 1
 102 -397 l 1
 101 -394 114 -376 140 -341 c 0
 173 -298 199 -256 217 -217 c 0
 245 -157 259 -96 259 -35 c 0
 259 -4 252 12 239 12 c 0
 237 12 229 7 215 -2 c 1
 202 -12 190 -17 181 -17 c 0
 158 -17 138 -5 121 20 c 0
 104 45 96 74 96 107 c 0
 96 142 107 172 128 195 c 0
 147 215 169 225 192 225 c 0
 275 225 316 151 316 3 c 0
EndSplineSet
EndChar

StartChar: question
Encoding: 63 63 16
Width: 720
Flags: MW
LayerCount: 2
Fore
SplineSet
624 722 m 0
 623 655 605 598 570 551 c 0
 545 518 512 490 471 469 c 1
 412 441 l 1
 407 436 405 401 404 337 c 0
 403 280 404 241 406 221 c 0
 407 213 402 208 392 205 c 0
 386 204 378 203 367 203 c 0
 350 203 341 203 338 204 c 0
 327 206 320 211 318 220 c 0
 315 233 316 279 319 357 c 0
 322 436 327 479 332 486 c 1
 365 504 397 522 429 541 c 1
 490 586 520 645 520 717 c 0
 520 771 505 816 474 852 c 0
 446 885 414 901 379 901 c 0
 296 901 237 850 203 747 c 0
 198 731 178 733 143 753 c 0
 106 775 92 793 101 807 c 0
 172 914 266 968 382 968 c 0
 447 968 502 947 549 904 c 0
 600 857 625 797 624 722 c 0
434 52 m 0
 434 15 404 -17 367 -17 c 0
 331 -17 302 15 302 52 c 0
 302 91 328 128 363 128 c 0
 410 128 434 103 434 52 c 0
EndSplineSet
EndChar

StartChar: bracketleft
Encoding: 91 91 17
Width: 677
Flags: MW
LayerCount: 2
Fore
SplineSet
613 -355 m 1
 613 -441 l 1
 245 -441 l 1
 245 1533 l 1
 613 1533 l 1
 613 1448 l 1
 370 1448 l 1
 370 -355 l 1
 613 -355 l 1
EndSplineSet
EndChar

StartChar: backslash
Encoding: 92 92 18
Width: 556
Flags: MW
LayerCount: 2
Fore
SplineSet
197 1554 m 2
 593 -5 l 2
 596 -18 580 -25 544 -25 c 0
 509 -25 490 -18 487 -5 c 2
 87 1554 l 2
 84 1567 101 1574 140 1574 c 0
 175 1574 194 1567 197 1554 c 2
EndSplineSet
EndChar

StartChar: bracketright
Encoding: 93 93 19
Width: 677
Flags: MW
LayerCount: 2
Fore
SplineSet
430 1533 m 1
 430 -444 l 1
 64 -444 l 1
 64 -355 l 1
 305 -355 l 1
 305 1448 l 1
 64 1448 l 1
 64 1533 l 1
 430 1533 l 1
EndSplineSet
EndChar

StartChar: asciicircum
Encoding: 94 94 20
Width: 1970
Flags: MW
LayerCount: 2
Fore
SplineSet
1046 1202 m 1
 1499 20 l 1
 1377 20 l 1
 985 1076 l 1
 593 20 l 1
 471 20 l 1
 924 1202 l 1
 1046 1202 l 1
EndSplineSet
EndChar

StartChar: underscore
Encoding: 95 95 21
Width: 985
Flags: MW
LayerCount: 2
Fore
SplineSet
985 -158 m 1
 985 -231 l 1
 0 -231 l 1
 0 -158 l 1
 985 -158 l 1
EndSplineSet
EndChar

StartChar: braceleft
Encoding: 123 123 22
Width: 1089
Flags: MW
LayerCount: 2
Fore
SplineSet
840 -451 m 1
 840 -491 l 1
 732 -480 640 -434 564 -353 c 0
 486 -270 447 -174 447 -64 c 0
 447 -23 455 36 472 113 c 0
 489 190 497 243 497 274 c 0
 497 339 468 396 410 444 c 0
 360 485 304 510 243 517 c 1
 243 574 l 1
 304 581 359 605 409 646 c 0
 468 693 497 749 497 813 c 0
 497 845 489 902 472 983 c 0
 455 1064 447 1127 447 1170 c 0
 447 1275 487 1368 566 1449 c 1
 643 1526 735 1571 840 1582 c 1
 840 1543 l 1
 667 1500 581 1402 581 1249 c 0
 581 1214 589 1162 605 1095 c 0
 622 1028 630 976 630 940 c 0
 630 743 539 612 357 546 c 1
 539 480 630 347 630 147 c 0
 630 112 622 61 605 -6 c 0
 589 -73 581 -123 581 -158 c 0
 581 -310 667 -408 840 -451 c 1
EndSplineSet
EndChar

StartChar: bar
Encoding: 124 124 23
Width: 456
Flags: MW
LayerCount: 2
Fore
SplineSet
275 1582 m 1
 275 -493 l 1
 181 -493 l 1
 181 1582 l 1
 275 1582 l 1
EndSplineSet
EndChar

StartChar: braceright
Encoding: 125 125 24
Width: 1089
Flags: MW
LayerCount: 2
Fore
SplineSet
839 574 m 1
 839 517 l 1
 778 510 722 485 672 444 c 0
 614 396 585 339 585 274 c 0
 585 243 593 190 610 113 c 0
 627 36 636 -23 636 -64 c 0
 636 -174 597 -270 520 -351 c 0
 443 -433 351 -480 243 -491 c 1
 243 -451 l 1
 415 -408 501 -310 501 -158 c 0
 501 -123 493 -73 477 -6 c 0
 461 61 453 112 453 147 c 0
 453 347 544 480 725 546 c 1
 544 612 453 743 453 940 c 0
 453 976 461 1028 477 1095 c 0
 493 1162 501 1214 501 1249 c 0
 501 1402 415 1500 243 1543 c 1
 243 1582 l 1
 348 1571 440 1526 517 1449 c 1
 596 1368 636 1275 636 1170 c 0
 636 1127 627 1064 610 983 c 0
 593 902 585 845 585 813 c 0
 585 749 614 693 673 646 c 0
 723 605 778 581 839 574 c 1
EndSplineSet
EndChar

StartChar: asciitilde
Encoding: 126 126 25
Width: 1115
Flags: MW
LayerCount: 2
Fore
SplineSet
1019 705 m 1
 1076 630 l 1
 999 485 905 412 794 412 c 0
 740 412 658 437 548 486 c 0
 438 535 360 560 313 560 c 0
 265 560 221 539 181 496 c 0
 160 473 131 431 95 370 c 1
 39 443 l 1
 80 518 117 571 150 604 c 0
 201 655 258 680 323 680 c 0
 373 680 457 655 575 604 c 0
 694 553 770 528 804 528 c 0
 888 528 960 587 1019 705 c 1
EndSplineSet
EndChar

StartChar: ellipsis
Encoding: 8230 8230 26
Width: 1517
Flags: MW
LayerCount: 2
Fore
SplineSet
281 108 m 0
 281 33 240 -18 188 -18 c 0
 135 -18 96 35 96 108 c 0
 96 146 106 176 125 199 c 0
 142 220 163 230 188 230 c 0
 236 230 281 180 281 108 c 0
848 108 m 0
 848 33 807 -18 755 -18 c 0
 702 -18 663 35 663 108 c 0
 663 146 673 176 692 199 c 0
 709 220 730 230 755 230 c 0
 803 230 848 180 848 108 c 0
1421 108 m 0
 1421 33 1380 -18 1328 -18 c 0
 1275 -18 1236 35 1236 108 c 0
 1236 146 1246 176 1265 199 c 0
 1282 220 1303 230 1328 230 c 0
 1376 230 1421 180 1421 108 c 0
EndSplineSet
EndChar

StartChar: guilsinglleft
Encoding: 8249 8249 27
Width: 758
Flags: MW
LayerCount: 2
Fore
SplineSet
351 478 m 1
 622 -48 l 1
 563 -48 l 1
 131 478 l 1
 563 999 l 1
 622 999 l 1
 351 478 l 1
EndSplineSet
EndChar

StartChar: quoteleft
Encoding: 8216 8216 28
Width: 407
Flags: MW
LayerCount: 2
Fore
SplineSet
297 922 m 0
 297 887 286 858 265 835 c 0
 246 815 225 805 202 805 c 0
 119 805 78 879 78 1026 c 0
 78 1128 109 1225 172 1316 c 0
 223 1391 262 1429 288 1429 c 1
 292 1426 l 1
 293 1423 280 1405 254 1370 c 0
 221 1327 195 1286 177 1247 c 0
 149 1187 135 1126 135 1065 c 0
 135 1034 142 1018 155 1018 c 0
 157 1018 165 1023 178 1032 c 0
 192 1041 204 1046 213 1046 c 0
 236 1046 255 1034 272 1009 c 0
 289 984 297 955 297 922 c 0
EndSplineSet
EndChar

StartChar: quoteright
Encoding: 8217 8217 29
Width: 407
Flags: MW
LayerCount: 2
Fore
SplineSet
316 1234 m 0
 316 1132 285 1035 222 944 c 0
 171 869 132 831 106 831 c 1
 102 834 l 1
 101 837 114 855 140 890 c 0
 173 933 199 974 217 1013 c 0
 245 1073 259 1134 259 1195 c 0
 259 1226 252 1242 239 1242 c 0
 237 1242 229 1237 215 1227 c 0
 202 1218 190 1213 181 1213 c 0
 158 1213 138 1225 121 1250 c 0
 104 1275 96 1305 96 1338 c 0
 96 1373 107 1402 128 1425 c 0
 147 1445 168 1455 192 1455 c 0
 275 1455 316 1381 316 1234 c 0
EndSplineSet
EndChar

StartChar: quotedblleft
Encoding: 8220 8220 30
Width: 760
Flags: MW
LayerCount: 2
Fore
SplineSet
316 922 m 0
 316 887 305 858 284 835 c 0
 265 815 244 805 221 805 c 0
 138 805 97 879 97 1026 c 0
 97 1128 128 1225 191 1316 c 0
 242 1391 281 1429 307 1429 c 1
 311 1426 l 1
 312 1423 299 1405 273 1370 c 0
 240 1327 214 1286 196 1247 c 0
 168 1187 154 1126 154 1065 c 0
 154 1034 161 1018 174 1018 c 0
 176 1018 184 1023 197 1032 c 0
 211 1041 223 1046 232 1046 c 0
 255 1046 274 1034 291 1009 c 0
 308 984 316 955 316 922 c 0
663 922 m 0
 663 887 652 858 631 835 c 0
 612 815 591 805 567 805 c 0
 484 805 443 879 443 1026 c 0
 443 1128 474 1225 537 1316 c 0
 588 1391 627 1429 653 1429 c 1
 657 1426 l 1
 658 1423 645 1405 619 1370 c 0
 586 1327 560 1286 542 1247 c 0
 514 1187 500 1126 500 1065 c 0
 500 1034 507 1018 520 1018 c 0
 522 1018 530 1023 543 1032 c 0
 557 1041 569 1046 578 1046 c 0
 601 1046 620 1033 637 1008 c 0
 654 983 663 955 663 922 c 0
EndSplineSet
EndChar

StartChar: quotedblright
Encoding: 8221 8221 31
Width: 749
Flags: MW
LayerCount: 2
Fore
SplineSet
316 1233 m 0
 316 1131 285 1034 222 942 c 0
 171 867 132 829 106 829 c 1
 102 832 l 1
 101 835 114 853 140 888 c 0
 173 931 199 973 217 1012 c 0
 245 1072 259 1133 259 1194 c 0
 259 1225 252 1241 239 1241 c 0
 237 1241 229 1236 215 1226 c 0
 202 1217 190 1212 181 1212 c 0
 158 1212 138 1224 121 1249 c 0
 104 1274 96 1303 96 1336 c 0
 96 1371 107 1401 128 1424 c 0
 147 1444 169 1454 192 1454 c 0
 275 1454 316 1380 316 1233 c 0
663 1232 m 0
 663 1130 632 1033 569 941 c 0
 518 866 479 828 453 828 c 1
 449 831 l 1
 448 834 461 852 487 887 c 0
 520 930 546 972 564 1011 c 0
 592 1071 606 1132 606 1193 c 0
 606 1224 599 1240 586 1240 c 0
 584 1240 576 1235 562 1225 c 0
 549 1216 537 1211 528 1211 c 0
 505 1211 485 1223 468 1248 c 0
 451 1273 443 1302 443 1335 c 0
 443 1370 454 1400 475 1423 c 0
 494 1443 516 1453 539 1453 c 0
 622 1453 663 1379 663 1232 c 0
EndSplineSet
EndChar

StartChar: bullet
Encoding: 8226 8226 32
Width: 659
Flags: MW
LayerCount: 2
Fore
SplineSet
469 762 m 0
 469 707 455 661 428 626 c 0
 401 591 367 573 328 573 c 0
 289 573 256 591 229 626 c 1
 203 662 190 707 190 762 c 0
 190 819 205 864 234 899 c 0
 260 930 291 945 328 945 c 0
 364 945 396 929 424 896 c 0
 454 861 469 816 469 762 c 0
EndSplineSet
EndChar

StartChar: endash
Encoding: 8211 8211 33
Width: 688
Flags: MW
LayerCount: 2
Fore
SplineSet
570 551 m 0
 570 524 565 509 555 506 c 0
 552 505 549 505 544 505 c 2
 144 505 l 2
 125 505 118 507 118 551 c 0
 118 580 128 594 147 594 c 2
 542 594 l 2
 561 594 570 580 570 551 c 0
EndSplineSet
EndChar

StartChar: emdash
Encoding: 8212 8212 34
Width: 1332
Flags: MW
LayerCount: 2
Fore
SplineSet
1215 553 m 0
 1215 522 1206 507 1188 507 c 2
 144 507 l 2
 127 507 118 522 118 552 c 0
 118 577 123 590 132 593 c 0
 135 594 140 595 147 595 c 2
 1186 595 l 2
 1209 595 1215 589 1215 553 c 0
EndSplineSet
EndChar

StartChar: guilsinglright
Encoding: 8250 8250 35
Width: 758
Flags: MW
LayerCount: 2
Fore
SplineSet
195 999 m 1
 627 473 l 1
 195 -48 l 1
 136 -48 l 1
 408 473 l 1
 136 999 l 1
 195 999 l 1
EndSplineSet
EndChar

StartChar: uni00AD
Encoding: 173 173 37
Width: 635
Flags: MW
LayerCount: 2
Fore
SplineSet
517 551 m 0
 517 520 508 505 490 505 c 2
 144 505 l 2
 127 505 118 520 118 551 c 0
 118 580 128 594 147 594 c 2
 488 594 l 2
 507 594 517 580 517 551 c 0
EndSplineSet
EndChar

StartChar: periodcentered
Encoding: 183 183 38
Width: 378
Flags: MW
LayerCount: 2
Fore
SplineSet
281 748 m 0
 281 673 240 622 188 622 c 0
 135 622 96 675 96 748 c 0
 96 786 106 816 125 839 c 0
 142 860 163 870 188 870 c 0
 236 870 281 820 281 748 c 0
EndSplineSet
EndChar

StartChar: dailuemodifierw
Encoding: 65539 -1 39
Width: 0
Flags: HMW
LayerCount: 2
Fore
SplineSet
-950 -485 m 0
 -950 -570 -850 -595 -754 -595 c 0
 -498 -595 -234 -430 -234 -325 c 0
 -234 -250 -308 -210 -444 -210 c 0
 -700 -210 -950 -370 -950 -485 c 0
-1064 -495 m 0
 -1064 -300 -738 -105 -424 -105 c 0
 -230 -105 -120 -180 -120 -315 c 0
 -120 -508 -460 -700 -774 -700 c 0
 -928 -700 -1064 -638 -1064 -495 c 0
EndSplineSet
Colour: ffffff
EndChar

StartChar: dailuemodifierfinal
Encoding: 65540 -1 40
Width: 0
Flags: HMW
LayerCount: 2
Back
SplineSet
-140 -510 m 1
 -265 -510 l 1
 -265 -445 -309 -405 -375 -405 c 0
 -441 -405 -480 -445 -480 -510 c 0
 -480 -575 -441 -620 -375 -620 c 0
 -309 -620 -265 -575 -265 -510 c 2
 -265 199 l 1
 -140 345 l 1
 -140 -510 l 2
 -140 -647 -246 -740 -375 -740 c 0
 -504 -740 -600 -648 -600 -510 c 0
 -600 -369 -505 -285 -385 -285 c 0
 -271 -285 -160 -435 -140 -510 c 1
EndSplineSet
Fore
SplineSet
-130 -525 m 1
 -254 -525 l 1
 -254 -460 -298 -420 -364 -420 c 0
 -430 -420 -470 -460 -470 -525 c 0
 -470 -590 -430 -635 -364 -635 c 0
 -298 -635 -254 -590 -254 -525 c 2
 -254 234 l 1
 -130 470 l 1
 -130 -525 l 2
 -130 -652 -235 -740 -364 -740 c 0
 -483 -740 -574 -653 -574 -525 c 0
 -574 -394 -484 -315 -374 -315 c 0
 -260 -315 -150 -450 -130 -525 c 1
EndSplineSet
Colour: ffffff
EndChar

StartChar: uni25CC
Encoding: 9676 9676 44
Width: 1638
Flags: MW
LayerCount: 2
Fore
SplineSet
1208 989 m 0
 1200 981 1190 977 1177 977 c 0
 1164 977 1154 981 1145 989 c 0
 1136 998 1132 1009 1132 1022 c 0
 1132 1034 1136 1044 1145 1053 c 0
 1154 1062 1164 1066 1177 1066 c 0
 1190 1066 1200 1062 1208 1053 c 0
 1217 1044 1222 1033 1222 1022 c 0
 1222 1009 1217 998 1208 989 c 0
1053 1116 m 0
 1042 1092 1016 1081 993 1092 c 1
 970 1100 961 1126 969 1149 c 1
 980 1174 1005 1185 1028 1174 c 1
 1051 1165 1064 1139 1053 1116 c 0
1329 872 m 1
 1340 849 1329 824 1305 813 c 1
 1282 805 1255 815 1247 838 c 1
 1236 861 1247 886 1272 897 c 0
 1295 908 1321 895 1329 872 c 1
860 1171 m 0
 860 1147 840 1126 815 1126 c 0
 791 1126 770 1147 770 1171 c 0
 770 1196 791 1217 815 1217 c 0
 840 1217 860 1196 860 1171 c 0
1372 659 m 0
 1372 635 1352 614 1327 614 c 0
 1303 614 1282 635 1282 659 c 0
 1282 684 1303 705 1327 705 c 0
 1352 705 1372 684 1372 659 c 0
662 1149 m 1
 670 1126 660 1100 637 1092 c 1
 614 1081 589 1092 578 1116 c 0
 567 1139 579 1165 602 1174 c 1
 625 1185 651 1174 662 1149 c 1
1329 446 m 1
 1321 423 1295 411 1272 422 c 0
 1247 433 1236 458 1247 481 c 1
 1255 504 1282 514 1305 506 c 1
 1329 495 1340 469 1329 446 c 1
485 989 m 1
 476 981 465 977 453 977 c 0
 440 977 430 981 422 989 c 0
 413 998 408 1009 408 1022 c 0
 408 1034 413 1044 422 1053 c 0
 430 1062 440 1066 453 1066 c 0
 466 1066 476 1062 485 1053 c 0
 494 1043 498 1033 498 1022 c 0
 498 1010 494 999 485 989 c 1
1208 266 m 1
 1200 257 1190 252 1177 252 c 0
 1165 252 1154 257 1145 266 c 0
 1136 274 1132 284 1132 297 c 0
 1132 310 1136 321 1145 330 c 0
 1154 338 1164 342 1177 342 c 0
 1190 342 1200 338 1208 330 c 1
 1217 319 1222 308 1222 297 c 0
 1222 284 1217 274 1208 266 c 1
383 838 m 1
 375 815 349 805 326 813 c 1
 301 824 290 849 301 872 c 1
 309 895 335 908 358 897 c 0
 383 886 394 861 383 838 c 1
1053 203 m 0
 1064 180 1051 154 1028 145 c 1
 1005 134 980 145 969 170 c 1
 961 193 970 219 993 227 c 1
 1016 238 1042 227 1053 203 c 0
348 659 m 0
 348 635 328 614 303 614 c 0
 279 614 258 635 258 659 c 0
 258 684 279 705 303 705 c 0
 328 705 348 684 348 659 c 0
860 147 m 0
 860 123 840 102 815 102 c 0
 791 102 770 123 770 147 c 0
 770 172 791 193 815 193 c 0
 840 193 860 172 860 147 c 0
383 481 m 1
 394 458 383 433 358 422 c 0
 335 411 309 423 301 446 c 1
 290 469 301 495 326 506 c 1
 349 514 375 504 383 481 c 1
662 170 m 1
 651 145 625 134 602 145 c 1
 579 154 567 180 578 203 c 0
 589 227 614 238 637 227 c 1
 660 219 670 193 662 170 c 1
485 266 m 0
 476 257 465 252 453 252 c 0
 440 252 430 257 422 266 c 1
 413 273 408 284 408 297 c 0
 408 310 413 321 422 330 c 0
 430 338 440 342 453 342 c 0
 465 342 476 338 485 330 c 1
 494 319 498 308 498 297 c 0
 498 285 494 275 485 266 c 0
EndSplineSet
EndChar

StartChar: uni3001
Encoding: 12289 12289 46
Width: 1100
Flags: MW
LayerCount: 2
Fore
SplineSet
506 60 m 0
 506 7 477 -20 420 -20 c 0
 385 -20 361 -1 350 37 c 1
 328 146 l 1
 311 201 284 251 246 298 c 0
 213 339 168 377 110 412 c 0
 103 416 100 421 100 428 c 0
 100 433 106 436 117 436 c 0
 152 436 200 418 261 383 c 1
 319 348 365 312 398 274 c 0
 470 190 506 119 506 60 c 0
EndSplineSet
EndChar

StartChar: uni3002
Encoding: 12290 12290 47
Width: 1100
Flags: MW
LayerCount: 2
Fore
SplineSet
470 165 m 0
 470 114 452 70 416 34 c 0
 380 -2 336 -20 285 -20 c 0
 234 -20 190 -2 154 34 c 0
 118 70 100 114 100 165 c 0
 100 216 118 260 154 296 c 0
 190 332 234 350 285 350 c 0
 336 350 380 332 416 296 c 0
 452 260 470 216 470 165 c 0
419 165 m 0
 419 202 406 234 380 260 c 0
 354 286 322 299 285 299 c 0
 248 299 216 286 190 260 c 0
 164 234 151 202 151 165 c 0
 151 128 164 96 190 70 c 0
 216 44 248 31 285 31 c 0
 322 31 354 44 380 70 c 0
 406 96 419 128 419 165 c 0
EndSplineSet
EndChar

StartChar: uni3008
Encoding: 12296 12296 48
Width: 1100
Flags: MW
LayerCount: 2
Fore
SplineSet
999 13 m 1
 946 -13 l 1
 599 677 l 1
 946 1368 l 1
 999 1342 l 1
 666 677 l 1
 999 13 l 1
EndSplineSet
EndChar

StartChar: uni3009
Encoding: 12297 12297 49
Width: 1100
Flags: MW
LayerCount: 2
Fore
SplineSet
154 -13 m 1
 100 13 l 1
 433 677 l 1
 100 1342 l 1
 154 1368 l 1
 501 677 l 1
 154 -13 l 1
EndSplineSet
EndChar

StartChar: uni300A
Encoding: 12298 12298 50
Width: 1100
Flags: MW
LayerCount: 2
Fore
SplineSet
999 13 m 1
 946 -13 l 1
 599 677 l 1
 946 1368 l 1
 999 1342 l 1
 666 677 l 1
 999 13 l 1
699 13 m 1
 646 -13 l 1
 299 677 l 1
 646 1368 l 1
 699 1342 l 1
 366 677 l 1
 699 13 l 1
EndSplineSet
EndChar

StartChar: uni300B
Encoding: 12299 12299 51
Width: 1100
Flags: MW
LayerCount: 2
Fore
SplineSet
154 -13 m 1
 100 13 l 1
 433 677 l 1
 100 1342 l 1
 154 1368 l 1
 501 677 l 1
 154 -13 l 1
454 -13 m 1
 400 13 l 1
 733 677 l 1
 400 1342 l 1
 454 1368 l 1
 801 677 l 1
 454 -13 l 1
EndSplineSet
EndChar

StartChar: uniFF01
Encoding: 65281 65281 52
Width: 1100
Flags: MW
LayerCount: 2
Fore
SplineSet
325 1156 m 0
 325 1111 323 979 321 953 c 2
 257 314 l 2
 255 291 211 291 208 314 c 2
 148 953 l 1
 145 999 142 1111 142 1156 c 0
 142 1197 168 1209 235 1209 c 0
 302 1209 325 1194 325 1156 c 0
335 108 m 0
 335 27 288 -26 235 -26 c 0
 178 -26 137 29 137 108 c 0
 137 193 187 238 235 238 c 0
 282 238 335 189 335 108 c 0
EndSplineSet
EndChar

StartChar: uniFF08
Encoding: 65288 65288 53
Width: 1099
Flags: MW
LayerCount: 2
Fore
SplineSet
935 24 m 0
 926 16 894 17 859 32 c 0
 710 96 547 292 547 676 c 0
 547 1083 718 1256 859 1335 c 0
 893 1354 925 1360 935 1354 c 0
 942 1350 934 1339 891 1317 c 0
 797 1268 632 1056 632 682 c 0
 632 308 793 95 891 57 c 0
 935 39 941 28 935 24 c 0
EndSplineSet
EndChar

StartChar: uniFF09
Encoding: 65289 65289 54
Width: 1099
Flags: MW
LayerCount: 2
Fore
SplineSet
552 700 m 0
 552 293 381 120 240 41 c 0
 206 22 174 16 163 22 c 0
 157 26 165 37 207 59 c 0
 301 108 466 319 466 694 c 0
 466 1067 306 1281 208 1319 c 0
 163 1337 157 1348 163 1352 c 0
 172 1360 205 1359 240 1344 c 0
 388 1280 552 1084 552 700 c 0
EndSplineSet
EndChar

StartChar: uniFF0C
Encoding: 65292 65292 55
Width: 1100
Flags: MW
LayerCount: 2
Fore
SplineSet
371 286 m 0
 371 -18 123 -225 114 -194 c 0
 107 -171 303 -10 303 240 c 0
 303 268 288 297 279 297 c 0
 267 297 239 262 209 262 c 0
 155 262 107 332 107 411 c 0
 107 502 172 552 222 552 c 0
 330 552 371 420 371 286 c 0
EndSplineSet
EndChar

StartChar: uniFF0E
Encoding: 65294 65294 56
Width: 1100
Flags: MW
LayerCount: 2
Fore
SplineSet
648 111 m 0
 648 31 604 -21 550 -21 c 0
 495 -21 453 33 453 111 c 0
 453 195 503 239 550 239 c 0
 597 239 648 191 648 111 c 0
EndSplineSet
EndChar

StartChar: uniFF1A
Encoding: 65306 65306 57
Width: 1000
Flags: MW
LayerCount: 2
Fore
SplineSet
322 318 m 0
 322 242 280 192 229 192 c 0
 177 192 137 244 137 318 c 0
 137 398 184 440 229 440 c 0
 274 440 322 394 322 318 c 0
321 919 m 0
 321 843 279 793 228 793 c 0
 176 793 136 845 136 919 c 0
 136 999 183 1041 228 1041 c 0
 273 1041 321 995 321 919 c 0
EndSplineSet
EndChar

StartChar: uniFF1B
Encoding: 65307 65307 58
Width: 1100
Flags: MW
LayerCount: 2
Fore
SplineSet
313 919 m 0
 313 843 271 793 220 793 c 0
 168 793 128 845 128 919 c 0
 128 999 175 1041 220 1041 c 0
 265 1041 313 995 313 919 c 0
336 213 m 0
 336 -40 129 -213 122 -187 c 0
 116 -168 279 -34 279 175 c 0
 279 198 267 222 259 222 c 0
 249 222 226 193 201 193 c 0
 156 193 116 251 116 317 c 0
 116 393 170 435 212 435 c 0
 302 435 336 325 336 213 c 0
EndSplineSet
EndChar

StartChar: uniFF1F
Encoding: 65311 65311 59
Width: 1100
Flags: MW
LayerCount: 2
Fore
SplineSet
812 939 m 0
 808 644 549 588 536 574 c 0
 521 557 526 315 528 288 c 1
 530 276 525 264 478 264 c 0
 426 264 418 269 414 286 c 1
 409 315 418 613 432 632 c 0
 444 648 677 706 677 932 c 0
 677 1079 579 1172 493 1172 c 0
 374 1172 297 1069 265 971 c 0
 257 949 244 945 187 979 c 0
 129 1013 120 1033 132 1049 c 1
 183 1126 281 1259 497 1259 c 0
 655 1259 814 1143 812 939 c 0
565 68 m 0
 565 20 526 -22 478 -22 c 0
 430 -22 393 20 393 68 c 0
 393 116 424 167 473 167 c 0
 525 167 565 133 565 68 c 0
EndSplineSet
EndChar

StartChar: uni1980
Encoding: 6528 6528 60
Width: 1785
Flags: HMW
LayerCount: 2
Back
SplineSet
888.240234375 633 m 4xe8
 880.240234375 624 868.240234375 619 858.240234375 627 c 6
 789.240234375 681 l 6
 779.240234375 689 775.240234375 703 783.240234375 713 c 5
 869.240234375 804 1050.24023438 930 1256.24023438 930 c 4
 1563.24023438 930 1742.24023438 762 1742.24023438 480 c 4
 1742.24023438 248 1578.24023438 41 1223.24023438 40 c 4
 1213.24023438 40 1203.24023438 48 1203.24023438 57 c 6
 1203.24023438 107 l 6
 1203.24023438 118 1213.24023438 125 1223.24023438 125 c 4
 1463.24023438 125 1617.24023438 300 1617.24023438 480 c 4xf0
 1617.24023438 690 1462.24023438 805 1256.24023438 805 c 4
 1123.24023438 805 971.240234375 720 888.240234375 633 c 4xe8
1747.24023438 -295 m 4
 1747.24023438 -588 1482.24023438 -740 1225.24023438 -740 c 4
 997.240234375 -740 819.240234375 -574 769.240234375 -442 c 4
 765.240234375 -432 773.240234375 -420 783.240234375 -416 c 6
 815.240234375 -405 l 6
 823.240234375 -402 835.240234375 -410 840.240234375 -420 c 4
 895.240234375 -530 1029.24023438 -635 1225.24023438 -635 c 4
 1402.24023438 -635 1622.24023438 -535 1622.24023438 -295 c 4
 1622.24023438 -58 1410.24023438 40 1226.24023438 40 c 5
 1226.24023438 125 l 5
 1576.24023438 125 1747.24023438 -32 1747.24023438 -295 c 4
530 -20 m 0
 383 -20 217 33 110 175 c 0
 102 185 105 200 116 207 c 2
 185 251 l 2
 196 258 207 255 215 245 c 0
 296 143 409 105 530 105 c 0
 757 105 915 228 915 450 c 0
 915 679 742 805 540 805 c 0
 389 805 296 742 215 635 c 0
 208 625 196 622 185 629 c 2
 116 673 l 2
 105 680 102 695 110 705 c 0
 227 852 353 930 540 930 c 0
 855 930 1040 718 1040 450 c 0
 1040 176 846 -20 530 -20 c 0
EndSplineSet
Fore
SplineSet
500 -20 m 0
 353 -20 227 38 120 175 c 0
 112 185 116 199 126 207 c 2
 195 261 l 2
 205 269 218 265 225 255 c 0
 306 148 389 105 500 105 c 0
 657 105 815 199 815 451 c 0
 815 690 662 805 490 805 c 0
 379 805 296 762 215 655 c 0
 208 645 196 642 185 649 c 1
 116 703 l 1
 105 710 102 725 110 735 c 0
 217 872 343 930 490 930 c 0
 755 930 940 739 940 451 c 0
 940 147 756 -20 500 -20 c 0
880.240234375 643 m 0
 872.240234375 634 860.240234375 629 850.240234375 637 c 2
 791.240234375 691 l 2
 781.79296875 699.646484375 777.240234375 713 785.240234375 723 c 1
 871.240234375 814 1004 930 1210 930 c 0
 1487 930 1675 772 1675 480 c 0
 1675 238 1512 41 1157 40 c 0
 1147 40 1137 48 1137 57 c 2
 1137 107 l 2
 1137 118 1147 125 1157 125 c 0
 1397 125 1550 300 1550 480 c 0
 1550 700 1386 805 1210 805 c 0
 1077 805 963.240234375 730 880.240234375 643 c 0
1680 -295 m 0
 1680 -598 1416 -740 1159 -740 c 0
 931 -740 753 -574 703 -442 c 0
 699 -432 707 -420 717 -416 c 2
 749 -405 l 2
 757 -402 769 -410 774 -420 c 0
 829 -530 963 -635 1159 -635 c 0
 1336 -635 1555 -545 1555 -295 c 0
 1555 -58 1344 40 1160 40 c 1
 1160 125 l 1
 1510 125 1680 -32 1680 -295 c 0
EndSplineSet
Colour: ffffff
EndChar

StartChar: uni19D0
Encoding: 6608 6608 61
Width: 1185
Flags: HMW
LayerCount: 2
Back
SplineSet
635 970 m 4
 962 970 1155 773 1155 470 c 4
 1155 187 972 -20 635 -20 c 4
 288 -20 110 188 110 470 c 4
 110 762 298 970 635 970 c 4
635 845 m 4
 379 845 235 691 235 470 c 4
 235 250 389 105 635 105 c 4
 882 105 1030 260 1030 470 c 4
 1030 691 872 845 635 845 c 4
EndSplineSet
Fore
SplineSet
595 930 m 0
 902 930 1075 733 1075 450 c 0
 1075 187 912 -20 595 -20 c 0
 268 -20 110 188 110 450 c 0
 110 722 278 930 595 930 c 0
595 805 m 0
 359 805 235 651 235 450 c 0
 235 250 369 105 595 105 c 0
 822 105 950 260 950 450 c 0
 950 651 812 805 595 805 c 0
EndSplineSet
Colour: ffffff
EndChar

StartChar: uni199E
Encoding: 6558 6558 62
Width: 1185
Flags: MW
LayerCount: 2
Back
SplineSet
635 970 m 0
 962 970 1155 773 1155 470 c 0
 1155 187 972 -20 635 -20 c 0
 288 -20 110 188 110 470 c 0
 110 762 298 970 635 970 c 0
635 845 m 0
 379 845 235 691 235 470 c 0
 235 250 389 105 635 105 c 0
 882 105 1030 260 1030 470 c 0
 1030 691 872 845 635 845 c 0
EndSplineSet
Fore
SplineSet
595 930 m 0
 902 930 1075 733 1075 450 c 0
 1075 187 912 -20 595 -20 c 0
 268 -20 110 188 110 450 c 0
 110 722 278 930 595 930 c 0
595 805 m 0
 359 805 235 651 235 450 c 0
 235 250 369 105 595 105 c 0
 822 105 950 260 950 450 c 0
 950 651 812 805 595 805 c 0
EndSplineSet
Colour: ffffff
EndChar

StartChar: uni19B1
Encoding: 6577 6577 63
Width: 1150
Flags: MW
LayerCount: 2
Back
SplineSet
555 -20 m 0
 398 -20 212 33 105 175 c 0
 97 185 100 200 111 207 c 2
 180 251 l 2
 191 258 202 255 210 245 c 0
 291 143 424 105 555 105 c 0
 792 105 970 238 970 470 c 0
 970 709 777 845 565 845 c 0
 404 845 291 782 210 675 c 0
 203 665 191 662 180 669 c 2
 111 713 l 2
 100 720 97 735 105 745 c 0
 222 892 368 970 565 970 c 0
 880 970 1095 748 1095 470 c 0
 1095 186 881 -20 555 -20 c 0
EndSplineSet
Fore
SplineSet
530 -20 m 0
 383 -20 217 33 110 175 c 0
 102 185 105 200 116 207 c 2
 185 251 l 2
 196 258 207 255 215 245 c 0
 296 143 409 105 530 105 c 0
 757 105 915 228 915 450 c 0
 915 679 742 805 540 805 c 0
 389 805 296 742 215 635 c 0
 208 625 196 622 185 629 c 2
 116 673 l 2
 105 680 102 695 110 705 c 0
 227 852 353 930 540 930 c 0
 855 930 1040 718 1040 450 c 0
 1040 176 846 -20 530 -20 c 0
EndSplineSet
Colour: ffffff
EndChar

StartChar: uni1985
Encoding: 6533 6533 64
Width: 1250
Flags: HMW
LayerCount: 2
Back
SplineSet
110 420 m 0
 110 725 337 930 625 930 c 0
 939 930 1140 736 1140 430 c 0
 1140 209 1059 71 880 -20 c 0
 870.399121074 -24.8808937556 859 -23 854 -14 c 2
 806 64 l 2
 801 72 805.407523271 85.8787877756 815 90 c 0
 950 148 1015 247 1015 430 c 0
 1015 627 877 805 625 805 c 0
 376 805 235 622 235 420 c 0
 235 269 308 166 415 85 c 0
 425 78 428 66 421 55 c 1
 367 -14 l 1
 360 -25 345 -28 335 -20 c 0
 188 87 110 223 110 420 c 0
EndSplineSet
Fore
SplineSet
110 420 m 0
 110 725 337 930 625 930 c 0
 939 930 1140 736 1140 430 c 0
 1140 209 1059 74 880 -17 c 0
 876.245004688 -18.9090089076 872 -20 868 -20 c 0
 862 -20 857.044392636 -16.4799067441 854 -11 c 2
 806 67 l 2
 801 75 805.407226562 88.87890625 815 93 c 0
 950 151 1015 247 1015 430 c 0
 1015 627 877 805 625 805 c 0
 376 805 235 622 235 420 c 0
 235 269 308 171 415 90 c 0
 425 83 428 71 421 60 c 1
 367 -9 l 1
 360.8 -16.0598876953 355 -20 348 -20 c 0
 344 -20 338.729357411 -17.9834859289 335 -15 c 0
 188 92 110 223 110 420 c 0
EndSplineSet
Colour: ffffff
EndChar

StartChar: uni198D
Encoding: 6541 6541 65
Width: 1905
Flags: MW
LayerCount: 2
Back
SplineSet
920 380 m 0
 920 390 928 400 937 400 c 2
 987 400 l 2
 998 400 1005 390 1005 380 c 0
 1005 331 994 275 984 238 c 0
 943 84 782 -20 575 -20 c 0
 278 -20 120 208 120 470 c 0
 120 732 260 969 505 970 c 0
 537 970 574 965 605 952 c 0
 615 948 618 936 613 927 c 2
 567 848 l 2
 563 840 551 840 540 842 c 0
 531 844 516 845 505 845 c 0
 345 845 245 664 245 470 c 0
 245 270 379 105 575 105 c 0
 772 105 920 209 920 380 c 0
1005 380 m 0
 1005 209 1153 105 1350 105 c 0
 1546 105 1680 270 1680 470 c 0
 1680 660 1580 845 1420 845 c 0
 1409 845 1394 844 1385 842 c 0
 1374 840 1362 840 1358 848 c 2
 1312 927 l 2
 1307 936 1310 948 1320 952 c 0
 1351 965 1388 970 1420 970 c 0
 1665 969 1805 732 1805 470 c 0
 1805 208 1647 -20 1350 -20 c 0
 1143 -20 982 84 941 238 c 0
 931 275 920 331 920 380 c 0
 920 390 927 400 938 400 c 2
 988 400 l 2
 997 400 1005 390 1005 380 c 0
EndSplineSet
Fore
SplineSet
910 380 m 0
 910 390 918 400 927 400 c 2
 977 400 l 2
 988 400 995 390 995 380 c 0
 995 331 984 275 974 238 c 0
 933 84 772 -20 565 -20 c 0
 268 -20 110 188 110 450 c 0
 110 712 250 929 495 930 c 0
 527 930 564 925 595 912 c 0
 605 908 608 896 603 887 c 2
 557 808 l 2
 553 800 541 800 530 802 c 0
 521 804 506 805 495 805 c 0
 335 805 235 644 235 450 c 0
 235 250 369 105 565 105 c 0
 762 105 910 209 910 380 c 0
995 380 m 0
 995 209 1143 105 1340 105 c 0
 1536 105 1670 250 1670 450 c 0
 1670 640 1570 805 1410 805 c 0
 1399 805 1384 804 1375 802 c 0
 1364 800 1352 800 1348 808 c 2
 1302 887 l 2
 1297 896 1300 908 1310 912 c 0
 1341 925 1378 930 1410 930 c 0
 1655 929 1795 722 1795 450 c 0
 1795 188 1637 -20 1340 -20 c 0
 1133 -20 972 84 931 238 c 0
 921 275 910 331 910 380 c 0
 910 390 917 400 928 400 c 2
 978 400 l 2
 987 400 995 390 995 380 c 0
EndSplineSet
Colour: ffffff
EndChar

StartChar: uni1982
Encoding: 6530 6530 66
Width: 1805
Flags: MW
LayerCount: 2
Back
SplineSet
945 570 m 0
 945 560 937 550 928 550 c 2
 878 550 l 2
 867 550 860 560 860 570 c 0
 860 619 871 675 881 712 c 0
 922 866 1083 970 1260 970 c 0
 1527 970 1695 742 1695 480 c 0
 1695 268 1605 -19 1360 -20 c 0
 1328 -20 1291 -15 1260 -2 c 0
 1250 2 1247 14 1252 23 c 2
 1298 102 l 2
 1302 110 1314 110 1325 108 c 0
 1334 106 1349 105 1360 105 c 0
 1520 105 1570 336 1570 480 c 0
 1570 680 1426 845 1260 845 c 0
 1093 845 945 741 945 570 c 0
860 570 m 0
 860 741 712 845 545 845 c 0
 379 845 235 680 235 480 c 0
 235 340 285 105 445 105 c 0
 456 105 471 106 480 108 c 0
 491 110 503 110 507 102 c 2
 553 23 l 2
 558 14 555 2 545 -2 c 0
 514 -15 477 -20 445 -20 c 0
 200 -19 110 268 110 480 c 0
 110 742 278 970 545 970 c 0
 722 970 883 866 924 712 c 0
 934 675 945 619 945 570 c 0
 945 560 938 550 927 550 c 2
 877 550 l 2
 868 550 860 560 860 570 c 0
EndSplineSet
Fore
SplineSet
945 530 m 0
 945 520 937 510 928 510 c 2
 878 510 l 2
 867 510 860 520 860 530 c 0
 860 579 871 635 881 672 c 0
 922 826 1083 930 1260 930 c 0
 1527 930 1695 722 1695 460 c 0
 1695 248 1605 -19 1360 -20 c 0
 1328 -20 1291 -15 1260 -2 c 0
 1250 2 1247 14 1252 23 c 2
 1298 102 l 2
 1302 110 1314 110 1325 108 c 0
 1334 106 1349 105 1360 105 c 0
 1520 105 1570 316 1570 460 c 0
 1570 660 1426 805 1260 805 c 0
 1093 805 945 701 945 530 c 0
860 530 m 0
 860 701 712 805 545 805 c 0
 379 805 235 660 235 460 c 0
 235 320 285 105 445 105 c 0
 456 105 471 106 480 108 c 0
 491 110 503 110 507 102 c 2
 553 23 l 2
 558 14 555 2 545 -2 c 0
 514 -15 477 -20 445 -20 c 0
 200 -19 110 248 110 460 c 0
 110 722 278 930 545 930 c 0
 722 930 883 826 924 672 c 0
 934 635 945 579 945 530 c 0
 945 520 938 510 927 510 c 2
 877 510 l 2
 868 510 860 520 860 530 c 0
EndSplineSet
Colour: ffffff
EndChar

StartChar: uni19B2
Encoding: 6578 6578 67
Width: 1145
Flags: HMW
LayerCount: 2
Back
SplineSet
575 1570 m 0
 882 1570 1015 1293 1015 770 c 0
 1015 267 892 -20 575 -20 c 0
 248 -20 130 268 130 770 c 0
 130 1282 258 1570 575 1570 c 0
575 1445 m 0
 339 1445 255 1211 255 770 c 0
 255 330 349 105 575 105 c 0
 802 105 890 340 890 770 c 0
 890 1211 792 1445 575 1445 c 0
935 655 m 1
 955 805 l 1
 891 908 729 970 575 970 c 0
 407 970 240 906 180 795 c 1
 205 655 l 1
 251 792 419 865 575 865 c 0
 722 865 894 800 935 655 c 1
EndSplineSet
Fore
SplineSet
575 1650 m 0
 882 1650 1015 1333 1015 810 c 0
 1015 307 892 -20 575 -20 c 0
 248 -20 130 308 130 810 c 0
 130 1322 258 1650 575 1650 c 0
575 1540 m 0
 339 1540 255 1251 255 810 c 0
 255 370 349 105 575 105 c 0
 802 105 890 380 890 810 c 0
 890 1251 792 1540 575 1540 c 0
895 615 m 1
 854 760 722 825 575 825 c 0
 419 825 291 752 245 615 c 1
 220 755 l 1
 280 866 407 930 575 930 c 0
 729 930 851 868 915 765 c 1
 895 615 l 1
EndSplineSet
Colour: ffffff
EndChar

StartChar: uni19C0
Encoding: 6592 6592 68
Width: 1730
Flags: HMW
LayerCount: 2
Back
SplineSet
1580 930 m 2
 1580 -305 l 2
 1580 -563 1448 -740 1200 -740 c 0
 942 -740 840 -563 840 -305 c 2
 840 291 l 1
 965 770 l 1
 965 -305 l 2
 965 -497 1041 -615 1200 -615 c 0
 1359 -615 1455 -497 1455 -305 c 2
 1455 930 l 2
 1455 940 1462 950 1473 950 c 2
 1563 950 l 2
 1572 950 1580 940 1580 930 c 2
575 1570 m 0
 882 1570 1015 1293 1015 770 c 0
 1015 267 892 -20 575 -20 c 0
 248 -20 130 268 130 770 c 0
 130 1282 258 1570 575 1570 c 0
575 1445 m 0
 339 1445 255 1211 255 770 c 0
 255 330 349 105 575 105 c 0
 802 105 890 340 890 770 c 0
 890 1211 792 1445 575 1445 c 0
935 655 m 1
 955 805 l 1
 891 908 729 970 575 970 c 0
 407 970 240 906 180 795 c 1
 205 655 l 1
 251 792 419 865 575 865 c 0
 722 865 894 800 935 655 c 1
EndSplineSet
Fore
SplineSet
575 1650 m 0
 882 1650 1015 1333 1015 810 c 0
 1015 307 892 -20 575 -20 c 0
 248 -20 130 308 130 810 c 0
 130 1322 258 1650 575 1650 c 0
575 1540 m 0
 339 1540 255 1251 255 810 c 0
 255 370 349 105 575 105 c 0
 802 105 890 380 890 810 c 0
 890 1251 792 1540 575 1540 c 0
895 615 m 1
 854 760 722 825 575 825 c 0
 419 825 291 752 245 615 c 1
 220 755 l 1
 280 866 407 930 575 930 c 0
 729 930 851 868 915 765 c 1
 895 615 l 1
1580 890 m 2
 1580 -305 l 2
 1580 -563 1458 -740 1210 -740 c 0
 952 -740 860 -563 860 -305 c 2
 860 291 l 1
 985 770 l 1
 985 -305 l 2
 985 -497 1051 -625 1210 -625 c 4
 1369 -625 1455 -497 1455 -305 c 2
 1455 890 l 2
 1455 900 1462 910 1473 910 c 2
 1563 910 l 2
 1572 910 1580 900 1580 890 c 2
EndSplineSet
Colour: ffffff
EndChar

StartChar: uni19B8
Encoding: 6584 6584 69
Width: 1200
Flags: MW
LayerCount: 2
Back
SplineSet
1131 200 m 0
 1107 75 1001 -19 866 -20 c 0
 617 -22 376 342 376 600 c 0
 376 813 430 970 611 970 c 1
 611 845 l 1
 526 841 501 739 501 605 c 0
 501 412 674 93 866 95 c 0
 950 96 1009 167 1021 260 c 0
 1022 271 1040 273 1047 269 c 2
 1125 224 l 2
 1134 218 1133 209 1131 200 c 0
91 200 m 0
 90 209 88 218 97 224 c 2
 175 269 l 2
 182 273 200 271 201 260 c 0
 213 167 272 96 356 95 c 0
 548 93 721 412 721 605 c 0
 721 739 696 841 611 845 c 1
 611 970 l 1
 792 970 846 813 846 600 c 0
 846 342 605 -22 356 -20 c 0
 221 -19 115 75 91 200 c 0
EndSplineSet
Fore
SplineSet
1121 200 m 0
 1097 75 991 -19 856 -20 c 0
 607 -22 366 322 366 590 c 0
 366 803 430 930 601 930 c 1
 601 805 l 1
 526 805 491 719 491 575 c 0
 491 382 664 93 856 95 c 0
 940 96 999 167 1011 260 c 0
 1012 271 1030 273 1037 269 c 2
 1115 224 l 2
 1124 218 1123 209 1121 200 c 0
81 200 m 0
 80 209 78 218 87 224 c 2
 165 269 l 2
 172 273 190 271 191 260 c 0
 203 167 262 96 346 95 c 0
 538 93 711 382 711 575 c 0
 711 719 676 804 601 805 c 1
 601 930 l 1
 772 930 836 803 836 590 c 0
 836 322 595 -22 346 -20 c 0
 211 -19 105 75 81 200 c 0
EndSplineSet
Colour: ffffff
EndChar

StartChar: uni1995
Encoding: 6549 6549 70
Width: 1228
Flags: HMW
LayerCount: 2
Back
SplineSet
1120 90 m 0xbe
 1129 87 1133 73 1128 64 c 2
 1082 -15 l 2
 1078 -23 1066 -24 1055 -20 c 0
 858 52 685 331 685 600 c 0
 685 813 739 970 890 970 c 1
 890 865 l 1
 815 861 790 739 790 605 c 0
 790 384 956 147 1120 90 c 0xbe
130 710 m 0
 130 845 243 970 390 970 c 0
 441 970 499 958 530 935 c 0
 538 929 543 920 538 911 c 2
 492 837 l 2
 488 829 475 825 465 830 c 0
 448 839 410 845 390 845 c 0
 311 845 255 784 255 710 c 0
 255 623 331 553 487 553 c 0
 497 553 507 546 507 535 c 2xde
 507 485 l 2
 507 476 497 468 487 468 c 0
 326 468 130 529 130 710 c 0
545 -20 m 0
 300 -20 130 102 130 300 c 0
 130 422 259 544 375 544 c 0
 394 544 428 544 440 544 c 0
 463 544 485 532 485 510 c 0
 485 488 462 470 440 470 c 0
 345 471 255 384 255 310 c 0
 255 178 370 105 545 105 c 0
 867 105 990 402 990 605 c 0
 990 739 965 861 890 865 c 1
 890 970 l 1
 1041 970 1095 813 1095 600 c 0
 1095 312 934 -20 545 -20 c 0
EndSplineSet
Fore
SplineSet
1110 90 m 0
 1119 87 1123 73 1118 64 c 2
 1072 -15 l 2
 1068 -23 1056 -24 1045 -20 c 0
 848 52 675 311 675 580 c 0
 675 793 729 930 880 930 c 1
 880 825 l 1
 805 821 780 719 780 585 c 0
 780 364 946 147 1110 90 c 0
120 670 m 0
 120 815 233 930 380 930 c 0
 451 930 499 918 550 895 c 0
 559.116210938 890.888671875 562.9453125 880.030273438 558 871 c 2
 512 787 l 2
 508 779 494.85546875 774.720703125 485 780 c 0
 457 795 430 805 380 805 c 0
 301 805 245 754 245 670 c 0
 245 583 290 515 477 515 c 0
 487 515 497 508 497 497 c 2
 497 447 l 2
 497 438 487 430 477 430 c 0
 316 430 120 489 120 670 c 0
505 -20 m 0
 280 -20 120 72 120 270 c 0
 120 392 259 512 415 512 c 0
 434 512 468 512 480 512 c 0
 489 512 495 494 495 472 c 0
 495 450 493 430.021484375 480 430 c 0
 295.005859375 429.692382812 245 354 245 280 c 0
 245 148 350 105 505 105 c 0
 827 105 980 382 980 585 c 0
 980 719 955 821 880 825 c 1
 880 930 l 1
 1031 930 1085 793 1085 580 c 0
 1085 292 894 -20 505 -20 c 0
EndSplineSet
Colour: ffffff
EndChar

StartChar: uni19A0
Encoding: 6560 6560 71
Width: 1735
Flags: HMW
LayerCount: 2
Back
SplineSet
520 105 m 4
 696 105 772 238 805 455 c 4
 841 689 934 930 1235 930 c 4
 1492 930 1625 722 1625 460 c 4
 1625 188 1515 -19 1270 -20 c 4
 1238 -20 1201 -15 1170 -2 c 4
 1160 2 1157 14 1162 23 c 6
 1208 102 l 6
 1212 110 1224 110 1235 108 c 4
 1244 106 1259 105 1270 105 c 4
 1430 105 1500 260 1500 460 c 4
 1500 660 1391 805 1235 805 c 4
 1036 805 962 639 935 455 c 4
 894 178 778 -20 520 -20 c 4
 243 -20 110 148 110 450 c 4
 110 672 213 880 425 930 c 4
 438 933 446 933 450 925 c 6
 495 845 l 6
 500 837 499 823 485 820 c 4
 308 775 235 610 235 450 c 4
 235 210 344 105 520 105 c 4
1625 450 m 0
 1625 158 1474 -20 1227 -20 c 0
 939 -20 844.126445535 178.1690722 802 455 c 0
 774 639 711 805 522 805 c 0
 316 805 235 610 235 420 c 0
 235 230 325 105 485 105 c 0
 496 105 511 106 520 108 c 0
 531 110 543 110 547 102 c 2
 593 23 l 2
 598 14 595 2 585 -2 c 0
 554 -15 517 -20 485 -20 c 0
 240 -19 110 158 110 420 c 0
 110 672 225 930 522 930 c 0
 823 930 896 689 932 455 c 0
 965 238 1041 105 1227 105 c 0
 1373 105 1500 220 1500 450 c 0
 1500 640 1430 805 1270 805 c 0
 1259 805 1244 804 1235 802 c 0
 1224 800 1212 800 1208 808 c 2
 1162 887 l 2
 1157 896 1160 908 1170 912 c 0
 1201 925 1238 930 1270 930 c 0
 1515 929 1625 722 1625 450 c 0
EndSplineSet
Fore
SplineSet
110 450 m 0
 110 722 220 929 465 930 c 0
 497 930 534 925 565 912 c 0
 575 908 578 896 573 887 c 2
 527 808 l 2
 523 800 511 800 500 802 c 0
 491 804 476 805 465 805 c 0
 305 805 235 640 235 450 c 0
 235 220 362 105 508 105 c 0
 694 105 770 238 803 455 c 0
 839 689 912 930 1213 930 c 0
 1510 930 1625 672 1625 420 c 0
 1625 158 1495 -19 1250 -20 c 0
 1218 -20 1181 -15 1150 -2 c 0
 1140 2 1137 14 1142 23 c 2
 1188 102 l 2
 1192 110 1204 110 1215 108 c 0
 1224 106 1239 105 1250 105 c 0
 1410 105 1500 230 1500 420 c 0
 1500 610 1419 805 1213 805 c 0
 1024 805 961 639 933 455 c 0
 891 178 796 -20 508 -20 c 0
 261 -20 110 158 110 450 c 0
EndSplineSet
Colour: ffffff
EndChar

StartChar: uni199F
Encoding: 6559 6559 72
Width: 1735
Flags: HMW
LayerCount: 2
Back
SplineSet
1625 450 m 0
 1625 158 1464 -20 1197 -20 c 0
 939 -20 843 178 802 455 c 0
 775 639 721 805 522 805 c 0
 326 805 235 610 235 420 c 0
 235 230 315 105 475 105 c 0
 486 105 501 106 510 108 c 0
 521 110 533 110 537 102 c 2
 583 23 l 2
 588 14 585 2 575 -2 c 0
 544 -15 507 -20 475 -20 c 0
 230 -19 110 158 110 420 c 0
 110 672 225 930 522 930 c 0
 823 930 896 689 932 455 c 0
 965 238 1021 105 1197 105 c 0
 1363 105 1500 220 1500 450 c 0
 1500 640 1430 805 1270 805 c 0
 1259 805 1244 804 1235 802 c 0
 1224 800 1212 800 1208 808 c 2
 1162 887 l 2
 1157 896 1160 908 1170 912 c 0
 1201 925 1238 930 1270 930 c 0
 1515 929 1625 712 1625 450 c 0
EndSplineSet
Fore
SplineSet
1625 450 m 0
 1625 158 1474 -20 1227 -20 c 0
 939 -20 844.126445535 178.1690722 802 455 c 0
 774 639 711 805 522 805 c 0
 316 805 235 610 235 420 c 0
 235 230 325 105 485 105 c 0
 496 105 511 106 520 108 c 0
 531 110 543 110 547 102 c 2
 593 23 l 2
 598 14 595 2 585 -2 c 0
 554 -15 517 -20 485 -20 c 0
 240 -19 110 158 110 420 c 0
 110 672 225 930 522 930 c 0
 823 930 896 689 932 455 c 0
 965 238 1041 105 1227 105 c 0
 1373 105 1500 220 1500 450 c 0
 1500 640 1430 805 1270 805 c 0
 1259 805 1244 804 1235 802 c 0
 1224 800 1212 800 1208 808 c 2
 1162 887 l 2
 1157 896 1160 908 1170 912 c 0
 1201 925 1238 930 1270 930 c 0
 1515 929 1625 722 1625 450 c 0
EndSplineSet
Colour: ffffff
EndChar

StartChar: uni1990
Encoding: 6544 6544 73
Width: 1735
Flags: HMW
LayerCount: 2
Back
SplineSet
1140 -740 m 4
 903 -740 744 -584 704 -412 c 4
 702 -402 708 -390 718 -386 c 6
 750 -375 l 6
 758 -372 772 -379 775 -390 c 4
 820 -540 934 -635 1140 -635 c 1028
110 450 m 0
 110 158 261 -20 508 -20 c 0
 796 -20 891 178 933 455 c 0
 961 639 1024 805 1213 805 c 0
 1419 805 1500 610 1500 420 c 0
 1500 230 1410 105 1250 105 c 0
 1239 105 1224 106 1215 108 c 0
 1204 110 1192 110 1188 102 c 2
 1142 23 l 2
 1137 14 1140 2 1150 -2 c 0
 1181 -15 1218 -20 1250 -20 c 0
 1495 -19 1625 158 1625 420 c 0
 1625 672 1510 930 1213 930 c 0
 912 930 839 689 803 455 c 0
 770 238 694 105 508 105 c 0
 362 105 235 220 235 450 c 0
 235 640 305 805 465 805 c 0
 476 805 491 804 500 802 c 0
 511 800 523 800 527 808 c 2
 573 887 l 2
 578 896 575 908 565 912 c 0
 534 925 497 930 465 930 c 0
 220 929 110 722 110 450 c 0
872 -349 m 0
 874 -341 879 -333 890 -333 c 2
 930 -333 l 2
 939 -333 948 -341 948 -350 c 0
 948 -361 948 -394 948 -405 c 0
 948 -515 1052 -638 1225 -635 c 0
 1354 -633 1455 -541 1455 -425 c 0
 1455 -311 1408 -221 1274 -215 c 0
 1264 -215 1255 -208 1255 -197 c 2
 1255 50 l 1
 1365 50 l 1
 1365 -104 l 2
 1365 -113 1375 -119 1385 -121 c 0
 1516 -151 1580 -272 1580 -425 c 0
 1580 -587 1450 -740 1225 -740 c 0
 1024 -740 865 -591 865 -405 c 0
 865 -377 870 -358 872 -349 c 0
EndSplineSet
Fore
SplineSet
110 450 m 0
 110 722 220 929 465 930 c 0
 497 930 534 925 565 912 c 0
 575 908 578 896 573 887 c 2
 527 808 l 2
 523 800 511 800 500 802 c 0
 491 804 476 805 465 805 c 0
 305 805 235 640 235 450 c 0
 235 220 362 105 508 105 c 0
 694 105 770 238 803 455 c 0
 839 689 912 930 1213 930 c 0
 1510 930 1625 672 1625 420 c 0
 1625 158 1495 -19 1250 -20 c 0
 1218 -20 1181 -15 1150 -2 c 0
 1140 2 1137 14 1142 23 c 2
 1188 102 l 2
 1192 110 1204 110 1215 108 c 0
 1224 106 1239 105 1250 105 c 0
 1410 105 1500 230 1500 420 c 0
 1500 610 1419 805 1213 805 c 0
 1024 805 961 639 933 455 c 0
 891 178 796 -20 508 -20 c 0
 261 -20 110 158 110 450 c 0
709.165039062 -427.999023438 m 0
 700.676339599 -397.288891902 703.499023438 -391.921875 715.166992188 -387.66796875 c 2
 748.166992188 -375 l 2
 759.600585938 -370.611328125 770.927911894 -375.876127191 778.166992188 -399.000976562 c 0
 826.166666667 -552.333333333 962 -635 1175 -635 c 0
 1393 -635 1480 -531 1480 -415 c 0
 1480 -311 1398 -211 1234 -215 c 0
 1224.00297309 -215.243829925 1215 -208 1215 -197 c 2
 1215 50 l 1
 1325 50 l 1
 1325 -104 l 2
 1325 -113 1334.81935428 -120.404640601 1345 -121 c 0
 1516 -131 1605 -262 1605 -415 c 0
 1605 -577 1490 -740 1175 -740 c 0
 904 -740 750.166666667 -576.333333333 709.165039062 -427.999023438 c 0
EndSplineSet
Colour: ffffff
EndChar

StartChar: uni19B5
Encoding: 6581 6581 74
Width: 1289
Flags: MW
LayerCount: 2
Back
SplineSet
876 140 m 0x78
 876 261 941 404 941 530 c 0
 941 700 842 845 606 845 c 0
 396 845 246 668 246 415 c 0
 246 246 338 105 456 105 c 0
 479 105 498 112 521 123 c 0
 530 127 544 125 548 117 c 2
 594 38 l 2
 599 29 596 18 586 13 c 0
 542 -9 498 -20 456 -20 c 0
 254 -20 123 170 121 415 c 0
 119 711 291 970 606 970 c 0x74
 933 970 1061 762 1061 530 c 0
 1061 389 991 239 991 150 c 0
 991 111 1017 80 1051 80 c 0xb8
 1099 80 1143 137 1151 185 c 0
 1153 194 1168 196 1175 190 c 2
 1215 151 l 2
 1221 146 1219 135 1216 125 c 0
 1197 49 1141 -20 1051 -20 c 0
 945 -20 876 52 876 140 c 0x78
876 140 m 0x78
 876 261 941 404 941 530 c 0
 941 700 842 845 606 845 c 0
 396 845 246 668 246 415 c 0
 246 246 338 105 456 105 c 0
 479 105 498 112 521 123 c 0
 530 127 544 125 548 117 c 2
 594 38 l 2
 599 29 596 18 586 13 c 0
 542 -9 498 -20 456 -20 c 0
 254 -20 123 170 121 415 c 0
 119 711 291 970 606 970 c 0x74
 933 970 1061 762 1061 530 c 0
 1061 389 991 239 991 150 c 0
 991 111 1017 80 1051 80 c 0xb8
 1099 80 1143 137 1151 185 c 0
 1153 194 1168 196 1175 190 c 2
 1215 151 l 2
 1221 146 1219 135 1216 125 c 0
 1197 49 1141 -20 1051 -20 c 0
 945 -20 876 52 876 140 c 0x78
EndSplineSet
Fore
SplineSet
875 140 m 0
 875 261 935 384 935 510 c 0
 935 670 841 805 605 805 c 0
 395 805 245 638 245 395 c 0
 245 236 337 105 455 105 c 0
 478 105 497 112 520 123 c 0
 529 127 543 125 547 117 c 2
 593 38 l 2
 598 29 595 18 585 13 c 0
 541 -9 497 -20 455 -20 c 0
 253 -20 120 159.9921875 120 395 c 0
 120 681 290 930 605 930 c 0
 932 930 1060 732 1060 510 c 0
 1060 369 990 239 990 150 c 0
 990 111 1016 80 1050 80 c 0
 1098 80 1142 137 1150 185 c 0
 1152 194 1167 196 1174 190 c 2
 1214 151 l 2
 1220 146 1218 135 1215 125 c 0
 1196 49 1140 -20 1050 -20 c 0
 944 -20 875 52 875 140 c 0
EndSplineSet
Colour: ffffff
EndChar

StartChar: uni19C2
Encoding: 6594 6594 75
Width: 1225
Flags: HMW
LayerCount: 2
Back
SplineSet
1099 145 m 4
 1099 671 889 930 579 930 c 4
 264 930 94 661 94 395 c 4
 94 136 147 -20 319 -20 c 4
 399 -20 467.903320312 30.2236328125 513 92 c 4
 552.650390625 146.315429688 591 195 619 195 c 4
 652 195 684 172 684 130 c 4
 684 90 650 75 633 65 c 4
 625 60 618 51 624 42 c 6
 671 -36 l 6
 677 -45 686 -49 695 -44 c 4
 736 -21 809 42 809 130 c 4
 809 242 732 320 619 320 c 4
 554 320 493 262 447 201 c 4
 405.6484375 146.1640625 359 105 319 105 c 4
 231 105 219 216 219 395 c 4
 219 598 339 805 579 805 c 4
 824 805 974 572 974 145 c 4
 974 -15 967 -155 932 -361 c 5
 889 -318 836 -285 783 -285 c 4
 664 -285 568 -370 568 -510 c 4
 568 -648 664 -740 793 -740 c 4
 922 -740 996 -649 1028 -510 c 4
 1088 -248 1099 -38 1099 145 c 4
794 -620 m 4
 728 -620 689 -575 689 -510 c 4
 689 -445 728 -405 794 -405 c 4
 859 -405 904 -443 904 -510 c 4
 904 -575 860 -620 794 -620 c 4
EndSplineSet
Fore
SplineSet
1115 145 m 0
 1115 -38 1091 -263 1031 -525 c 0
 999 -664 925 -740 796 -740 c 0
 677 -740 585 -653 585 -525 c 0
 585 -395 677 -315 786 -315 c 0
 839 -315 892 -333 935 -376 c 1
 970 -170 990 -15 990 145 c 0
 990 572 840 805 595 805 c 0
 355 805 235 598 235 395 c 0
 235 216 247 105 335 105 c 0
 375 105 421.6484375 146.1640625 463 201 c 0
 509 262 570 320 635 320 c 0
 748 320 825 242 825 130 c 0
 825 42 752 -21 711 -44 c 0
 702 -49 693 -45 687 -36 c 2
 640 42 l 2
 634 51 641 60 649 65 c 0
 666 75 700 90 700 130 c 0
 700 172 668 195 635 195 c 0
 607 195 568.650390625 146.315429688 529 92 c 0
 483.903320312 30.2236328125 415 -20 335 -20 c 0
 163 -20 110 136 110 395 c 0
 110 661 280 930 595 930 c 0
 905 930 1115 671 1115 145 c 0
797 -635 m 0
 863 -635 907 -590 907 -525 c 0
 907 -458 862 -420 797 -420 c 0
 731 -420 690 -460 690 -525 c 0
 690 -590 731 -635 797 -635 c 0
EndSplineSet
Colour: ffffff
EndChar

StartChar: uni1996
Encoding: 6550 6550 76
Width: 1735
Flags: HMW
LayerCount: 2
Back
SplineSet
1605 -427.999023438 m 4
 1563.99804688 -576.333007812 1410.16503906 -740 1139.16503906 -740 c 4
 824.165039062 -740 709.165039062 -577 709.165039062 -415 c 4
 709.165039062 -262 798.165039062 -131 969.165039062 -121 c 4
 979.345703125 -120.404296875 989.165039062 -113 989.165039062 -104 c 6
 989.165039062 50 l 5
 1099.16503906 50 l 5
 1099.16503906 -197 l 6
 1099.16503906 -208 1090.16210938 -215.244140625 1080.16503906 -215 c 4
 916.165039062 -211 834.165039062 -311 834.165039062 -415 c 4
 834.165039062 -531 921.165039062 -635 1139.16503906 -635 c 4
 1352.16503906 -635 1487.99804688 -552.333007812 1535.99804688 -399.000976562 c 4
 1543.23730469 -375.875976562 1554.56445312 -370.611328125 1565.99804688 -375 c 6
 1598.99804688 -387.66796875 l 6
 1610.66601562 -391.921875 1613.48828125 -397.2890625 1605 -427.999023438 c 4
709.165039062 -427.999023438 m 0
 750.166666667 -576.333333333 904 -740 1175 -740 c 0
 1490 -740 1605 -577 1605 -415 c 0
 1605 -262 1516 -131 1345 -121 c 0
 1334.81935428 -120.404640601 1325 -113 1325 -104 c 2
 1325 50 l 1
 1215 50 l 1
 1215 -197 l 2
 1215 -208 1224.00297309 -215.243829925 1234 -215 c 0
 1398 -211 1480 -311 1480 -415 c 0
 1480 -531 1393 -635 1175 -635 c 0
 962 -635 826.166666667 -552.333333333 778.166992188 -399.000976562 c 0
 770.927911894 -375.876127191 759.600585938 -370.611328125 748.166992188 -375 c 2
 715.166992188 -387.66796875 l 2
 703.499023438 -391.921875 700.676339599 -397.288891902 709.165039062 -427.999023438 c 0
110 450 m 0
 110 158 261 -20 508 -20 c 0
 796 -20 891 178 933 455 c 0
 961 639 1024 805 1213 805 c 0
 1419 805 1500 610 1500 420 c 0
 1500 230 1410 105 1250 105 c 0
 1239 105 1224 106 1215 108 c 0
 1204 110 1192 110 1188 102 c 2
 1142 23 l 2
 1137 14 1140 2 1150 -2 c 0
 1181 -15 1218 -20 1250 -20 c 0
 1495 -19 1625 158 1625 420 c 0
 1625 672 1510 930 1213 930 c 0
 912 930 839 689 803 455 c 0
 770 238 694 105 508 105 c 0
 362 105 235 220 235 450 c 0
 235 640 305 805 465 805 c 0
 476 805 491 804 500 802 c 0
 511 800 523 800 527 808 c 2
 573 887 l 2
 578 896 575 908 565 912 c 0
 534 925 497 930 465 930 c 0
 220 929 110 722 110 450 c 0
1580 -445 m 0
 1570 -611 1426 -740 1225 -740 c 0
 1010 -740 860 -587 860 -435 c 0
 860 -232 1049 -121 1235 -141 c 0
 1245 -142 1255 -133 1255 -124 c 2
 1255 30 l 1
 1365 30 l 1
 1365 -227 l 2
 1365 -238 1356 -246 1346 -245 c 0
 1157 -225 985 -271 985 -435 c 0
 985 -541 1091 -633 1230 -635 c 0
 1413 -638 1495 -535 1505 -445 c 0
 1506 -438 1512 -428 1523 -428 c 2
 1563 -428 l 2
 1572 -428 1581 -436 1580 -445 c 0
EndSplineSet
Fore
SplineSet
110 450 m 0
 110 722 220 929 465 930 c 0
 497 930 534 925 565 912 c 0
 575 908 578 896 573 887 c 2
 527 808 l 2
 523 800 511 800 500 802 c 0
 491 804 476 805 465 805 c 0
 305 805 235 640 235 450 c 0
 235 220 362 105 508 105 c 0
 694 105 770 238 803 455 c 0
 839 689 912 930 1213 930 c 0
 1510 930 1625 672 1625 420 c 0
 1625 158 1495 -19 1250 -20 c 0
 1218 -20 1181 -15 1150 -2 c 0
 1140 2 1137 14 1142 23 c 2
 1188 102 l 2
 1192 110 1204 110 1215 108 c 0
 1224 106 1239 105 1250 105 c 0
 1410 105 1500 230 1500 420 c 0
 1500 610 1419 805 1213 805 c 0
 1024 805 961 639 933 455 c 0
 891 178 796 -20 508 -20 c 0
 261 -20 110 158 110 450 c 0
1600 -445 m 0
 1590 -611 1376 -740 1135 -740 c 0
 840 -740 710 -587 710 -435 c 0
 710 -232 921.5 -121 1195 -141 c 0
 1205.0234375 -141.733398438 1215 -133 1215 -124 c 2
 1215 30 l 1
 1325 30 l 1
 1325 -227 l 2
 1325 -238 1315.984375 -246.14453125 1306 -245 c 0
 1009.5 -211 835 -271 835 -435 c 0
 835 -541 910.998046875 -633.129882812 1140 -635 c 0
 1363.01260401 -636.821205881 1515 -535 1525 -445 c 0
 1526 -438 1532 -428 1543 -428 c 2
 1583 -428 l 2
 1592 -428 1601 -436 1600 -445 c 0
EndSplineSet
Colour: ffffff
EndChar

StartChar: uni19BD
Encoding: 6589 6589 77
Width: 1710
Flags: HMW
LayerCount: 2
Fore
SplineSet
1560 890 m 2
 1560 -305 l 2
 1560 -563 1443 -740 1195 -740 c 0
 937 -740 850 -563 850 -305 c 2
 850 170 l 1
 975 357 l 1
 975 -305 l 2
 975 -497 1036 -625 1195 -625 c 0
 1354 -625 1435 -497 1435 -305 c 2
 1435 890 l 2
 1435 900 1442 910 1453 910 c 2
 1543 910 l 2
 1552 910 1560 900 1560 890 c 2
555 930 m 0
 832 930 995 733 995 450 c 0
 995 187 842 -20 555 -20 c 0
 258 -20 110 188 110 450 c 0
 110 722 268 930 555 930 c 0
555 805 m 0
 354 805 235 671 235 450 c 0
 235 230 354 105 555 105 c 0
 756 105 870 240 870 450 c 0
 870 671 757 805 555 805 c 0
EndSplineSet
Colour: ffffff
EndChar

StartChar: uni19C5
Encoding: 6597 6597 78
Width: 1805
Flags: HMW
LayerCount: 2
Back
SplineSet
945 530 m 0
 945 520 937 510 928 510 c 2
 878 510 l 2
 867 510 860 520 860 530 c 0
 860 579 871 635 881 672 c 0
 922 826 1083 930 1260 930 c 0
 1527 930 1695 722 1695 460 c 0
 1695 248 1605 -19 1360 -20 c 0
 1328 -20 1291 -15 1260 -2 c 0
 1250 2 1247 14 1252 23 c 2
 1298 102 l 2
 1302 110 1314 110 1325 108 c 0
 1334 106 1349 105 1360 105 c 0
 1520 105 1570 316 1570 460 c 0
 1570 660 1426 805 1260 805 c 0
 1093 805 945 701 945 530 c 0
860 530 m 0
 860 701 712 805 545 805 c 0
 379 805 235 660 235 460 c 0
 235 320 285 105 445 105 c 0
 456 105 471 106 480 108 c 0
 491 110 503 110 507 102 c 2
 553 23 l 2
 558 14 555 2 545 -2 c 0
 514 -15 477 -20 445 -20 c 0
 200 -19 110 248 110 460 c 0
 110 722 278 930 545 930 c 0
 722 930 883 826 924 672 c 0
 934 635 945 579 945 530 c 0
 945 520 938 510 927 510 c 2
 877 510 l 2
 868 510 860 520 860 530 c 0
1675 -520 m 1
 1550 -520 l 1
 1550 -455 1506 -415 1440 -415 c 0
 1374 -415 1335 -455 1335 -520 c 0
 1335 -585 1374 -630 1440 -630 c 0
 1506 -630 1550 -585 1550 -520 c 2
 1550 234 l 1
 1675 470 l 1
 1675 -520 l 2
 1675 -647 1569 -740 1440 -740 c 0
 1321 -740 1225 -648 1225 -520 c 0
 1225 -389 1320 -305 1430 -305 c 0
 1544 -305 1655 -445 1675 -520 c 1
EndSplineSet
Fore
SplineSet
945 530 m 0
 945 520 937 510 928 510 c 2
 878 510 l 2
 867 510 860 520 860 530 c 0
 860 579 871 635 881 672 c 0
 922 826 1083 930 1260 930 c 0
 1527 930 1695 722 1695 460 c 0
 1695 248 1605 -19 1360 -20 c 0
 1328 -20 1291 -15 1260 -2 c 0
 1250 2 1247 14 1252 23 c 2
 1298 102 l 2
 1302 110 1314 110 1325 108 c 0
 1334 106 1349 105 1360 105 c 0
 1520 105 1570 316 1570 460 c 0
 1570 660 1426 805 1260 805 c 0
 1093 805 945 701 945 530 c 0
860 530 m 0
 860 701 712 805 545 805 c 0
 379 805 235 660 235 460 c 0
 235 320 285 105 445 105 c 0
 456 105 471 106 480 108 c 0
 491 110 503 110 507 102 c 2
 553 23 l 2
 558 14 555 2 545 -2 c 0
 514 -15 477 -20 445 -20 c 0
 200 -19 110 248 110 460 c 0
 110 722 278 930 545 930 c 0
 722 930 883 826 924 672 c 0
 934 635 945 579 945 530 c 0
 945 520 938 510 927 510 c 2
 877 510 l 2
 868 510 860 520 860 530 c 0
1675 -525 m 1
 1550 -525 l 1
 1550 -460 1506 -420 1440 -420 c 0
 1374 -420 1335 -460 1335 -525 c 0
 1335 -590 1374 -635 1440 -635 c 0
 1506 -635 1550 -590 1550 -525 c 2
 1550 234 l 1
 1675 470 l 1
 1675 -525 l 2
 1675 -652 1569 -740 1440 -740 c 0
 1321 -740 1230 -653 1230 -525 c 0
 1230 -394 1320 -315 1430 -315 c 0
 1544 -315 1655 -450 1675 -525 c 1
EndSplineSet
Colour: ffffff
EndChar

StartChar: uni19BE
Encoding: 6590 6590 79
Width: 1634
Flags: HMW
LayerCount: 2
Back
SplineSet
756 105 m 4
 1123 105 1127 447 1080 750 c 4
 994 1301 1009 1650 1316 1650 c 4
 1543 1650 1600 1480 1550 1230 c 4
 1548 1220 1543 1210 1534 1210 c 6
 1494 1211 l 6
 1483 1211 1476 1220 1476 1230 c 4
 1476 1419 1455 1535 1316 1535 c 4
 1133 1535 1138 1254 1206 750 c 4
 1259 359 1196 -20 756 -20 c 1028xf2
1120.50488281 200 m 0
 1096.50488281 75 990.504882812 -19 855.504882812 -20 c 0
 606.504882812 -22 365.504882812 322 365.504882812 590 c 0
 365.504882812 803 429.504882812 930 600.504882812 930 c 1
 600.504882812 805 l 1
 525.504882812 805 490.504882812 719 490.504882812 575 c 0
 490.504882812 382 663.504882812 93 855.504882812 95 c 0
 939.504882812 96 998.504882812 167 1010.50488281 260 c 0
 1011.50488281 271 1029.50488281 273 1036.50488281 269 c 2
 1114.50488281 224 l 2
 1123.50488281 218 1122.50488281 209 1120.50488281 200 c 0
80.5048828125 200 m 0
 79.5048828125 209 77.5048828125 218 86.5048828125 224 c 2
 164.504882812 269 l 2
 171.504882812 273 189.504882812 271 190.504882812 260 c 0
 202.504882812 167 261.504882812 96 345.504882812 95 c 0
 537.504882812 93 710.504882812 382 710.504882812 575 c 0
 710.504882812 719 675.504882812 804 600.504882812 805 c 1
 600.504882812 930 l 1
 771.504882812 930 835.504882812 803 835.504882812 590 c 0
 835.504882812 322 594.504882812 -22 345.504882812 -20 c 0
 210.504882812 -19 104.504882812 75 80.5048828125 200 c 0
EndSplineSet
Fore
SplineSet
855 95 m 1
 1112 95 1108 485 1069 830 c 0
 1015 1310 1047 1650 1324 1650 c 0
 1551 1650 1599 1460 1549 1230 c 0
 1547 1220 1541 1210 1532 1210 c 2
 1492 1211 l 2
 1481 1211 1474 1220 1474 1230 c 0
 1474 1389 1463 1555 1324 1555 c 0
 1158 1555 1145 1244 1194 830 c 0
 1246 386 1205 -20 855 -20 c 1
 606 -22 365 322 365 590 c 0
 365 793 419 930 600 930 c 1
 600 805 l 1
 515 805 490 699 490 575 c 0
 490 382 663 93 855 95 c 1
80 200 m 0
 79 209 77 218 86 224 c 2
 164 269 l 2
 171 273 189 271 190 260 c 0
 202 167 261 96 345 95 c 0
 537 93 710 382 710 575 c 0
 710 699 685 805 600 805 c 1
 600 930 l 1
 781 930 835 793 835 590 c 0
 835 322 594 -22 345 -20 c 0
 210 -19 104 75 80 200 c 0
EndSplineSet
Colour: ffffff
EndChar

StartChar: uni1989
Encoding: 6537 6537 80
Width: 1786
Flags: MW
LayerCount: 2
Back
SplineSet
1231 805 m 4
 1042 805 916 700 856 606 c 5
 786 715 l 5
 868 824 1034 930 1231 930 c 4
 1508 930 1676 742 1676 450 c 4
 1676 208 1546 -19 1251 -20 c 4
 1194 -20 1122 -9 1071 20 c 4
 1062 25 1058 36 1063 45 c 6
 1109 124 l 6
 1113 132 1127 135 1136 130 c 4
 1162 115 1211 105 1251 105 c 4
 1461 105 1551 270 1551 450 c 4
 1551 670 1407 805 1231 805 c 4
500 -20 m 4
 353 -20 227 38 120 175 c 4
 112 185 116 199 126 207 c 6
 195 261 l 6
 205 269 218 265 225 255 c 4
 306 148 389 105 500 105 c 4
 657 105 805 198 805 450 c 4
 805 699 662 805 490 805 c 4
 379 805 296 762 215 655 c 4
 208 645 196 642 185 649 c 5
 116 703 l 5
 105 710 102 725 110 735 c 4
 217 872 343 930 490 930 c 4
 755 930 930 738 930 450 c 4
 930 146 756 -20 500 -20 c 4
EndSplineSet
Fore
SplineSet
1551 450 m 0
 1551 640 1441 805 1231 805 c 0
 1191 805 1142 795 1116 780 c 0
 1107 775 1093 778 1089 786 c 2
 1043 865 l 2
 1038 874 1042 885 1051 890 c 0
 1102 919 1174 930 1231 930 c 0
 1526 929 1676 712 1676 450 c 0
 1676 188 1528 -20 1251 -20 c 0
 1024 -20 892 124 821 288 c 1
 930 450 l 1
 915 243 1084 105 1251 105 c 0
 1447 105 1551 250 1551 450 c 0
500 -20 m 0
 353 -20 227 38 120 175 c 0
 112 185 116 199 126 207 c 2
 195 261 l 2
 205 269 218 265 225 255 c 0
 306 148 389 105 500 105 c 0
 657 105 805 198 805 450 c 0
 805 699 662 805 490 805 c 0
 379 805 296 762 215 655 c 0
 208 645 196 642 185 649 c 1
 116 703 l 1
 105 710 102 725 110 735 c 0
 217 872 343 930 490 930 c 0
 755 930 930 738 930 450 c 0
 930 146 756 -20 500 -20 c 0
EndSplineSet
Colour: ffffff
EndChar

StartChar: uni19C1
Encoding: 6593 6593 81
Width: 1185
Flags: HMW
LayerCount: 2
Back
SplineSet
595 930 m 0
 902 930 1075 733 1075 450 c 0
 1075 187 912 -20 595 -20 c 0
 268 -20 110 188 110 450 c 0
 110 722 278 930 595 930 c 0
595 805 m 0
 359 805 235 651 235 450 c 0
 235 250 369 105 595 105 c 0
 822 105 950 260 950 450 c 0
 950 651 812 805 595 805 c 0
1055 -520 m 1
 930 -520 l 1
 930 -455 886 -415 820 -415 c 0
 754 -415 715 -455 715 -520 c 0
 715 -585 754 -630 820 -630 c 0
 886 -630 930 -585 930 -520 c 2
 930 234 l 1
 1055 470 l 1
 1055 -520 l 2
 1055 -647 949 -740 820 -740 c 0
 701 -740 605 -648 605 -520 c 0
 605 -389 700 -305 810 -305 c 0
 924 -305 1035 -445 1055 -520 c 1
EndSplineSet
Fore
SplineSet
595 930 m 0
 902 930 1075 733 1075 450 c 0
 1075 187 912 -20 595 -20 c 0
 268 -20 110 188 110 450 c 0
 110 722 278 930 595 930 c 0
595 805 m 0
 359 805 235 651 235 450 c 0
 235 250 369 105 595 105 c 0
 822 105 950 260 950 450 c 0
 950 651 812 805 595 805 c 0
1055 -525 m 5
 930 -525 l 5
 930 -460 886 -420 820 -420 c 4
 754 -420 715 -460 715 -525 c 4
 715 -590 754 -635 820 -635 c 4
 886 -635 930 -590 930 -525 c 6
 930 234 l 5
 1055 470 l 5
 1055 -525 l 6
 1055 -652 949 -740 820 -740 c 4
 701 -740 610 -653 610 -525 c 4
 610 -394 700 -315 810 -315 c 4
 924 -315 1035 -450 1055 -525 c 5
EndSplineSet
Colour: ffffff
EndChar

StartChar: uni19C7
Encoding: 6599 6599 82
Width: 1180
Flags: HMW
LayerCount: 2
Back
SplineSet
1030 -505 m 1
 905 -505 l 1
 905 -440 861 -400 795 -400 c 0
 729 -400 690 -440 690 -505 c 0
 690 -570 729 -615 795 -615 c 0
 861 -615 905 -570 905 -505 c 2
 905 234 l 1
 1030 470 l 1
 1030 -505 l 2
 1030 -642 924 -735 795 -735 c 0
 666 -735 570 -643 570 -505 c 0
 570 -364 665 -280 785 -280 c 0
 899 -280 1010 -430 1030 -505 c 1
590 -20 m 0
 312 -20 110 185 110 500 c 0
 110 717 198 873 335 970 c 0
 345 977 359 974 367 964 c 2
 416 900 l 2
 424 890 420 876 410 870 c 0
 313 809 235 681 235 500 c 0
 235 293 356 105 590 105 c 0
 824 105 945 293 945 500 c 0
 945 681 872 804 775 865 c 0
 765 871 761 885 769 895 c 1
 813 964 l 1
 821 974 835 977 845 970 c 0
 982 873 1070 717 1070 500 c 0
 1070 185 868 -20 590 -20 c 0
EndSplineSet
Fore
SplineSet
590 -20 m 0
 312 -20 110 175 110 480 c 0
 110 687 198 833 335 930 c 0
 345 937 359 934 367 924 c 2
 416 860 l 2
 424 850 420 836 410 830 c 0
 313 769 235 651 235 480 c 0
 235 283 356 105 590 105 c 0
 824 105 945 283 945 480 c 0
 945 651 872 764 775 825 c 0
 765 831 761 845 769 855 c 1
 813 924 l 1
 821 934 835 937 845 930 c 0
 982 833 1070 687 1070 480 c 0
 1070 175 868 -20 590 -20 c 0
1050 -525 m 1
 925 -525 l 1
 925 -460 881 -420 815 -420 c 0
 749 -420 710 -460 710 -525 c 0
 710 -590 749 -635 815 -635 c 0
 881 -635 925 -590 925 -525 c 2
 925 234 l 1
 1050 470 l 1
 1050 -525 l 2
 1050 -652 944 -740 815 -740 c 0
 696 -740 605 -653 605 -525 c 0
 605 -394 695 -315 805 -315 c 0
 919 -315 1030 -450 1050 -525 c 1
EndSplineSet
Colour: ffffff
EndChar

StartChar: uni19A2
Encoding: 6562 6562 83
Width: 1180
Flags: HMW
LayerCount: 2
Back
SplineSet
590 -20 m 0
 312 -20 110 175 110 480 c 0
 110 687 198 829 335 926 c 0
 345 933 359 930 367 920 c 2
 416 856 l 2
 424 846 420 832 410 826 c 0
 313 765 235 651 235 480 c 0
 235 283 356 105 590 105 c 0
 824 105 945 283 945 480 c 0
 945 651 872 760 775 821 c 0
 765 827 761 841 769 851 c 1
 813 920 l 1
 821 930 835 933 845 926 c 0
 982 829 1070 687 1070 480 c 0
 1070 175 868 -20 590 -20 c 0
590 -20 m 0
 312 -20 110 185 110 500 c 0
 110 717 198 873 335 970 c 0
 345 977 359 974 367 964 c 2
 416 900 l 2
 424 890 420 876 410 870 c 0
 313 809 235 681 235 500 c 0
 235 293 356 105 590 105 c 0
 824 105 945 293 945 500 c 0
 945 681 872 804 775 865 c 0
 765 871 761 885 769 895 c 1
 813 964 l 1
 821 974 835 977 845 970 c 0
 982 873 1070 717 1070 500 c 0
 1070 185 868 -20 590 -20 c 0
EndSplineSet
Fore
SplineSet
590 -20 m 0
 312 -20 110 175 110 480 c 0
 110 687 198 829 335 926 c 0
 338.747079843 928.62295589 343 930 347 930 c 0
 354 930 361.997663874 926.252920157 367 920 c 2
 416 856 l 2
 424 846 420 832 410 826 c 0
 313 765 235 651 235 480 c 0
 235 283 356 105 590 105 c 0
 824 105 945 283 945 480 c 0
 945 651 872 760 775 821 c 0
 765 827 761 841 769 851 c 1
 813 920 l 1
 817.956338914 926.195423642 825 930 832 930 c 0
 836 930 841.195423642 928.663203451 845 926 c 0
 982 829 1070 687 1070 480 c 0
 1070 175 868 -20 590 -20 c 0
EndSplineSet
Colour: ffffff
EndChar

StartChar: uni1998
Encoding: 6552 6552 84
Width: 1786
Flags: MW
LayerCount: 2
Back
SplineSet
500 -20 m 0xda
 353 -20 227 38 120 175 c 0
 112 185 116 199 126 207 c 2
 195 261 l 2
 205 269 218 265 225 255 c 0
 306 148 389 105 500 105 c 0xba
 657 105 815 199 815 451 c 0
 815 690 662 805 490 805 c 0
 379 805 296 762 215 655 c 0
 208 645 196 642 185 649 c 1
 116 703 l 1
 105 710 102 725 110 735 c 0
 217 872 343 930 490 930 c 0
 755 930 940 739 940 451 c 0
 940 147 756 -20 500 -20 c 0xda
880.240234375 643 m 0
 872.240234375 634 860.240234375 629 850.240234375 637 c 2
 791.240234375 691 l 2
 781.79296875 699.646484375 777.240234375 713 785.240234375 723 c 1
 871.240234375 814 1004 930 1210 930 c 0
 1487 930 1675 772 1675 480 c 0
 1675 238 1512 41 1157 40 c 0
 1147 40 1137 48 1137 57 c 2
 1137 107 l 2
 1137 118 1147 125 1157 125 c 0
 1397 125 1550 300 1550 480 c 0xdc
 1550 700 1386 805 1210 805 c 0
 1077 805 963.240234375 730 880.240234375 643 c 0
EndSplineSet
Fore
SplineSet
1231 805 m 0
 1042 805 916 700 856 606 c 1
 786 715 l 1
 868 824 1034 930 1231 930 c 0
 1508 930 1676 742 1676 450 c 0
 1676 208 1546 -19 1251 -20 c 0
 1194 -20 1122 -9 1071 20 c 0
 1062 25 1058 36 1063 45 c 2
 1109 124 l 2
 1113 132 1127 135 1136 130 c 0
 1162 115 1211 105 1251 105 c 0
 1461 105 1551 270 1551 450 c 0
 1551 670 1407 805 1231 805 c 0
500 -20 m 0
 353 -20 227 38 120 175 c 0
 112 185 116 199 126 207 c 2
 195 261 l 2
 205 269 218 265 225 255 c 0
 306 148 389 105 500 105 c 0
 657 105 805 198 805 450 c 0
 805 699 662 805 490 805 c 0
 379 805 296 762 215 655 c 0
 208 645 196 642 185 649 c 1
 116 703 l 1
 105 710 102 725 110 735 c 0
 217 872 343 930 490 930 c 0
 755 930 930 738 930 450 c 0
 930 146 756 -20 500 -20 c 0
EndSplineSet
Colour: ffffff
EndChar

StartChar: uni19BB
Encoding: 6587 6587 85
Width: 1691
Flags: HMW
LayerCount: 2
Back
SplineSet
520 -20 m 4
 373 -20 222 38 115 175 c 4
 107 185 111 199 121 207 c 6
 190 261 l 6
 200 269 213 265 220 255 c 4
 301 148 409 105 520 105 c 4
 697 105 851 218 851 470 c 4
 851 719 702 845 510 845 c 4
 399 845 291 802 210 695 c 4
 203 685 191 682 180 689 c 5
 111 743 l 5
 100 750 97 765 105 775 c 4
 212 912 363 970 510 970 c 4
 795 970 976 758 976 470 c 4
 976 166 796 -20 520 -20 c 4
1541 890 m 2
 1541 -305 l 2
 1541 -563 1414 -740 1166 -740 c 0
 908 -740 811 -563 811 -305 c 2
 811 148 l 1
 936 392 l 1
 936 -305 l 2
 936 -497 1007 -615 1166 -615 c 0
 1325 -615 1416 -497 1416 -305 c 2
 1416 890 l 2
 1416 900 1423 910 1434 910 c 2
 1524 910 l 2
 1533 910 1541 900 1541 890 c 2
EndSplineSet
Fore
SplineSet
500 -20 m 0
 353 -20 217 33 110 175 c 0
 102 185 105 200 116 207 c 2
 185 251 l 2
 196 258 207 255 215 245 c 0
 296 143 379 105 500 105 c 0
 707 105 855 228 855 450 c 0
 855 679 692 805 510 805 c 0
 379 805 296 742 215 635 c 0
 208 625 196 622 185 629 c 2
 116 673 l 2
 105 680 102 695 110 705 c 0
 227 852 343 930 510 930 c 0
 805 930 980 718 980 450 c 0
 980 176 796 -20 500 -20 c 0
1541 890 m 2
 1541 -305 l 2
 1541 -563 1424 -740 1176 -740 c 0
 918 -740 831 -563 831 -305 c 2
 831 148 l 1
 956 392 l 1
 956 -305 l 2
 956 -497 1017 -625 1176 -625 c 0
 1335 -625 1416 -497 1416 -305 c 2
 1416 890 l 2
 1416 900 1423 910 1434 910 c 2
 1524 910 l 2
 1533 910 1541 900 1541 890 c 2
EndSplineSet
Colour: ffffff
EndChar

StartChar: uni19B9
Encoding: 6585 6585 86
Width: 1145
Flags: HMW
LayerCount: 2
Fore
SplineSet
575 1650 m 0
 882 1650 1015 1333 1015 810 c 0
 1015 307 892 -20 575 -20 c 0
 248 -20 130 308 130 810 c 0
 130 1322 258 1650 575 1650 c 0
575 1540 m 0
 339 1540 255 1251 255 810 c 0
 255 370 349 105 575 105 c 0
 802 105 890 380 890 810 c 0
 890 1251 792 1540 575 1540 c 0
895 615 m 1
 854 760 722 825 575 825 c 0
 419 825 291 752 245 615 c 1
 220 755 l 1
 280 866 407 930 575 930 c 0
 729 930 851 868 915 765 c 1
 895 615 l 1
520 905 m 1
 520 1160 l 2
 520 1352 619 1519 782 1549 c 1
 848 1462 l 1
 706 1446 625 1314 625 1160 c 2
 625 905 l 1
 520 905 l 1
EndSplineSet
Colour: ffffff
EndChar

StartChar: uni19BF
Encoding: 6591 6591 87
Width: 1730
Flags: HMW
LayerCount: 2
Back
SplineSet
1580 930 m 2
 1580 -305 l 2
 1580 -563 1448 -740 1200 -740 c 0
 942 -740 840 -563 840 -305 c 2
 840 291 l 1
 965 770 l 1
 965 -305 l 2
 965 -497 1041 -615 1200 -615 c 0
 1359 -615 1455 -497 1455 -305 c 2
 1455 930 l 2
 1455 940 1462 950 1473 950 c 2
 1563 950 l 2
 1572 950 1580 940 1580 930 c 2
520 905 m 1
 625 905 l 1
 625 1070 l 2
 625 1224 706 1356 848 1372 c 1
 782 1459 l 1
 619 1429 520 1262 520 1070 c 2
 520 905 l 1
575 1570 m 0
 882 1570 1015 1293 1015 770 c 0
 1015 267 892 -20 575 -20 c 0
 248 -20 130 268 130 770 c 0
 130 1282 258 1570 575 1570 c 0
575 1445 m 0
 339 1445 255 1211 255 770 c 0
 255 330 349 105 575 105 c 0
 802 105 890 340 890 770 c 0
 890 1211 792 1445 575 1445 c 0
935 655 m 1
 955 805 l 1
 891 908 729 970 575 970 c 0
 407 970 240 906 180 795 c 1
 205 655 l 1
 251 792 419 865 575 865 c 0
 722 865 894 800 935 655 c 1
EndSplineSet
Fore
SplineSet
575 1650 m 0
 882 1650 1015 1333 1015 810 c 0
 1015 307 892 -20 575 -20 c 0
 248 -20 130 308 130 810 c 0
 130 1322 258 1650 575 1650 c 0
575 1540 m 0
 339 1540 255 1251 255 810 c 0
 255 370 349 105 575 105 c 0
 802 105 890 380 890 810 c 0
 890 1251 792 1540 575 1540 c 0
895 615 m 1
 854 760 722 825 575 825 c 0
 419 825 291 752 245 615 c 1
 220 755 l 1
 280 866 407 930 575 930 c 0
 729 930 851 868 915 765 c 1
 895 615 l 1
520 905 m 1
 520 1160 l 2
 520 1352 619 1519 782 1549 c 1
 848 1462 l 1
 706 1446 625 1314 625 1160 c 2
 625 905 l 1
 520 905 l 1
1580 890 m 2
 1580 -305 l 2
 1580 -563 1458 -740 1210 -740 c 0
 952 -740 860 -563 860 -305 c 2
 860 291 l 1
 985 770 l 1
 985 -305 l 2
 985 -497 1051 -625 1210 -625 c 4
 1369 -625 1455 -497 1455 -305 c 2
 1455 890 l 2
 1455 900 1462 910 1473 910 c 2
 1563 910 l 2
 1572 910 1580 900 1580 890 c 2
EndSplineSet
Colour: ffffff
EndChar

StartChar: uni19B6
Encoding: 6582 6582 88
Width: 2539
Flags: MW
LayerCount: 2
Back
SplineSet
876 140 m 0x7a80
 876 261 941 404 941 530 c 0
 941 700 842 845 606 845 c 0
 396 845 246 668 246 415 c 0
 246 246 338 105 456 105 c 0
 479 105 498 112 521 123 c 0
 530 127 544 125 548 117 c 2
 594 38 l 2
 599 29 596 18 586 13 c 0
 542 -9 498 -20 456 -20 c 0
 254 -20 123 170 121 415 c 0
 119 711 291 970 606 970 c 0x7680
 933 970 1061 762 1061 530 c 0
 1061 389 991 239 991 150 c 0
 991 111 1017 80 1051 80 c 0xba80
 1099 80 1143 137 1151 185 c 0
 1153 194 1168 196 1175 190 c 2
 1215 151 l 2
 1221 146 1219 135 1216 125 c 0
 1197 49 1141 -20 1051 -20 c 0
 945 -20 876 52 876 140 c 0x7a80
2126 140 m 0
 2126 261 2191 404 2191 530 c 0
 2191 700 2092 845 1856 845 c 0
 1646 845 1496 668 1496 415 c 0
 1496 246 1588 105 1706 105 c 0
 1729 105 1748 112 1771 123 c 0
 1780 127 1794 125 1798 117 c 2
 1844 38 l 2
 1849 29 1846 18 1836 13 c 0
 1792 -9 1748 -20 1706 -20 c 0x7680
 1504 -20 1373 170 1371 415 c 0
 1369 711 1541 970 1856 970 c 0
 2183 970 2311 762 2311 530 c 0xb7
 2311 389 2241 239 2241 150 c 0
 2241 111 2267 80 2301 80 c 0
 2349 80 2393 137 2401 185 c 0
 2403 194 2418 196 2425 190 c 2
 2465 151 l 2
 2471 146 2469 135 2466 125 c 0x77
 2447 49 2391 -20 2301 -20 c 0x7a80
 2195 -20 2126 52 2126 140 c 0
EndSplineSet
Fore
SplineSet
2125 140 m 0
 2125 261 2185 384 2185 510 c 0
 2185 670 2091 805 1855 805 c 0
 1645 805 1495 638 1495 395 c 0
 1495 236 1587 105 1705 105 c 0
 1728 105 1747 112 1770 123 c 0
 1779 127 1793 125 1797 117 c 2
 1843 38 l 2
 1848 29 1845 18 1835 13 c 0
 1791 -9 1747 -20 1705 -20 c 0
 1503 -20 1370 159.9921875 1370 395 c 0
 1370 681 1540 930 1855 930 c 0
 2182 930 2310 732 2310 510 c 0
 2310 369 2240 239 2240 150 c 0
 2240 111 2266 80 2300 80 c 0
 2348 80 2392 137 2400 185 c 0
 2402 194 2417 196 2424 190 c 2
 2464 151 l 2
 2470 146 2468 135 2465 125 c 0
 2446 49 2390 -20 2300 -20 c 0
 2194 -20 2125 52 2125 140 c 0
875 140 m 0
 875 261 935 384 935 510 c 0
 935 670 841 805 605 805 c 0
 395 805 245 638 245 395 c 0
 245 236 337 105 455 105 c 0
 478 105 497 112 520 123 c 0
 529 127 543 125 547 117 c 2
 593 38 l 2
 598 29 595 18 585 13 c 0
 541 -9 497 -20 455 -20 c 0
 253 -20 120 159.9921875 120 395 c 0
 120 681 290 930 605 930 c 0
 932 930 1060 732 1060 510 c 0
 1060 369 990 239 990 150 c 0
 990 111 1016 80 1050 80 c 0
 1098 80 1142 137 1150 185 c 0
 1152 194 1167 196 1174 190 c 2
 1214 151 l 2
 1220 146 1218 135 1215 125 c 0
 1196 49 1140 -20 1050 -20 c 0
 944 -20 875 52 875 140 c 0
EndSplineSet
Colour: ffffff
EndChar

StartChar: uni1994
Encoding: 6548 6548 89
Width: 1457
Flags: HMW
LayerCount: 2
Back
SplineSet
576 105 m 0
 923 105 934.310546875 466.869140625 897 770 c 0
 828.912109375 1323.17480469 864 1650 1141 1650 c 0
 1368 1650 1420 1480 1370 1230 c 0
 1368 1220 1363 1210 1354 1210 c 2
 1314 1211 l 2
 1303 1211 1296 1220 1296 1230 c 0
 1296 1419 1280 1535 1141 1535 c 0
 988 1535 958.26953125 1274.14453125 1023 770 c 0
 1073.23535156 378.75 996 -20 576 -20 c 1024xe4
575 -20 m 0
 311 -20 110 184 110 500 c 0
 110 731 191 889 370 970 c 0
 380 974 391 973 396 964 c 2
 444 886 l 2
 449 878 445 863 435 860 c 0
 300 812 235 693 235 500 c 0
 235 283 353 105 575 105 c 0
 912 105 972 406 930 710 c 0
 854 1261 878 1570 1185 1570 c 0
 1412 1570 1470 1330 1420 1080 c 0
 1418 1070 1412 1060 1403 1060 c 2
 1363 1061 l 2
 1352 1061 1345 1070 1345 1080 c 0
 1345 1269 1324 1455 1185 1455 c 0
 1002 1455 997 1214 1055 710 c 0
 1100 318 985 -20 575 -20 c 0
EndSplineSet
Fore
SplineSet
575 -20 m 0
 311 -20 110 184 110 480 c 0
 110 691 191 849 370 930 c 0
 380 934 391 933 396 924 c 2
 444 846 l 2
 449 838 445 823 435 820 c 0
 300 772 235 653 235 480 c 0
 235 283 353 105 575 105 c 0
 922 105 934.310546875 466.869140625 897 770 c 0
 828.912109375 1323.17480469 864 1650 1141 1650 c 0
 1368 1650 1420 1479 1370 1229 c 0
 1368 1219 1363 1209 1354 1209 c 2
 1314 1210 l 2
 1303 1210 1296 1219 1296 1229 c 0
 1296 1418 1280 1555 1141 1555 c 0
 988 1555 958.26953125 1274.14453125 1023 770 c 0
 1073.23535156 378.75 995 -20 575 -20 c 0
EndSplineSet
Colour: ffffff
EndChar

StartChar: uni198A
Encoding: 6538 6538 90
Width: 1434
Flags: HMW
LayerCount: 2
Back
SplineSet
655 95 m 5
 912 95 908 485 869 830 c 4
 815 1310 847 1650 1124 1650 c 4
 1351 1650 1399 1460 1349 1230 c 4
 1347 1220 1341 1210 1332 1210 c 6
 1292 1211 l 6
 1281 1211 1274 1220 1274 1230 c 4
 1274 1389 1263 1535 1124 1535 c 4
 958 1535 945 1244 994 830 c 4
 1046 386 1005 -20 655 -20 c 1029xf9
477 430 m 0xfd
 276 430 120 509 120 680 c 0
 120 815 233 930 400 930 c 0
 491 930 569 908 600 885 c 0
 608 879 613 870 608 861 c 2
 562 787 l 2
 557 779 545 775 535 780 c 0
 518 789 470 805 400 805 c 0
 301 805 245 744 245 670 c 0
 245 593 281 515 477 515 c 0
 487 515 497 508 497 497 c 2
 497 447 l 2
 497 438 487 430 477 430 c 0xfd
1040 640 m 0
 1040 194 864 -20 533 -20 c 0
 268 -20 120 82 120 270 c 0
 120 426 293 515 477 515 c 0
 487 515 497 508 497 497 c 2
 497 447 l 2
 497 438 487 430 477 430 c 0
 291 430 245 354 245 280 c 0
 245 158 348 105 533 105 c 0
 778 105 915 257 915 640 c 1024
EndSplineSet
Fore
SplineSet
556 -20 m 0
 291 -20 120 67 120 265 c 0
 120 402 260 506 386 506 c 0
 405 506 438 506 450 506 c 0
 473 506 496 494 496 472 c 0
 496 450 472 432 450 432 c 0
 315 433 246 369 246 275 c 0
 246 143 361 105 556 105 c 0
 903 105 914.311030118 466.869419676 877 770 c 0
 808.912109375 1323.17480469 844 1650 1121 1650 c 0
 1348 1650 1400 1480 1350 1230 c 0
 1348 1220 1343 1210 1334 1210 c 2
 1294 1211 l 2
 1283 1211 1276 1220 1276 1230 c 0
 1276 1419 1260 1555 1121 1555 c 0
 968 1555 938.26953125 1274.14453125 1003 770 c 0
 1053.23523968 378.749606652 976 -20 556 -20 c 0
498 430 m 0
 287 430 120 499 120 680 c 0
 120 815 223 930 420 930 c 0
 511 930 569 904 600 881 c 0
 608 875 613 866 608 857 c 2
 562 783 l 2
 557 775 544 771 534 776 c 0
 517 785 490 805 420 805 c 0
 301 805 246 744 246 680 c 0
 246 593 282 515 498 515 c 0
 508 515 518 508 518 497 c 2
 518 447 l 2
 518 438 508 430 498 430 c 0
EndSplineSet
Colour: ffffff
EndChar

StartChar: uni198E
Encoding: 6542 6542 91
Width: 1851
Flags: MW
LayerCount: 2
Back
SplineSet
1296 805 m 4
 1107 805 981 700 921 606 c 5
 851 715 l 5
 933 824 1099 930 1296 930 c 4
 1573 930 1741 742 1741 450 c 4
 1741 208 1611 -19 1316 -20 c 4
 1259 -20 1187 -9 1136 20 c 4
 1127 25 1123 36 1128 45 c 6
 1174 124 l 6
 1178 132 1192 135 1201 130 c 4
 1227 115 1276 105 1316 105 c 4
 1526 105 1616 270 1616 450 c 4
 1616 670 1472 805 1296 805 c 4
565 -20 m 4
 418 -20 292 38 185 175 c 4
 177 185 181 199 191 207 c 6
 260 261 l 6
 270 269 283 265 290 255 c 4
 371 148 454 105 565 105 c 4
 722 105 870 198 870 450 c 4
 870 699 727 805 555 805 c 4
 444 805 361 762 280 655 c 4
 273 645 261 642 250 649 c 5
 181 703 l 5
 170 710 167 725 175 735 c 4
 282 872 408 930 555 930 c 4
 820 930 995 738 995 450 c 4
 995 146 821 -20 565 -20 c 4
EndSplineSet
Fore
SplineSet
555 930 m 0
 832 930 995 733 995 450 c 0
 995 187 842 -20 555 -20 c 0
 258 -20 110 188 110 450 c 0
 110 722 268 930 555 930 c 0
555 805 m 0
 349 805 235 651 235 450 c 0
 235 250 359 105 555 105 c 0
 752 105 870 260 870 450 c 0
 870 651 742 805 555 805 c 0
1296 805 m 0
 1107 805 981 700 921 606 c 1
 851 715 l 1
 933 824 1099 930 1296 930 c 0
 1573 930 1741 742 1741 450 c 0
 1741 208 1611 -19 1316 -20 c 0
 1259 -20 1187 -9 1136 20 c 0
 1127 25 1123 36 1128 45 c 2
 1174 124 l 2
 1178 132 1192 135 1201 130 c 0
 1227 115 1276 105 1316 105 c 0
 1526 105 1616 270 1616 450 c 0
 1616 670 1472 805 1296 805 c 0
EndSplineSet
Colour: ffffff
EndChar

StartChar: uni1988
Encoding: 6536 6536 92
Width: 1115
Flags: MW
LayerCount: 2
Back
SplineSet
482 514 m 1
 482 429 l 1
 387 429 255 364 255 290 c 0
 255 158 370 105 545 105 c 0
 747 105 910 277 910 480 c 0
 910 683 747 845 545 845 c 0
 370 845 255 792 255 660 c 0
 255 586 387 512 482 513 c 0
 492 513 502 506 502 495 c 2
 502 445 l 2
 502 436 492 428 482 428 c 0
 347 428 130 486 130 670 c 0
 130 868 300 970 545 970 c 0
 814 970 1035 763 1035 475 c 0
 1035 187 814 -20 545 -20 c 0
 300 -20 130 82 130 280 c 0
 130 444 348 514 482 514 c 1
EndSplineSet
Fore
SplineSet
462 495 m 1
 462 410 l 1
 367 410 245 364 245 270 c 0
 245 158 350 105 515 105 c 0
 737 105 880 267 880 460 c 0
 880 653 747 805 515 805 c 0
 360 805 245 762 245 640 c 0
 245 546 367 493 462 494 c 0
 472 494 482 487 482 476 c 2
 482 426 l 2
 482 417 472 409 462 409 c 0
 327 409 120 466 120 650 c 0
 120 828 280 930 515 930 c 0
 824 930 1005 733 1005 455 c 0
 1005 177 804 -20 515 -20 c 0
 270 -20 120 82 120 260 c 0
 120 424 328 495 462 495 c 1
EndSplineSet
Colour: ffffff
EndChar

StartChar: uni1992
Encoding: 6546 6546 93
Width: 1290
Flags: MW
LayerCount: 2
Back
SplineSet
606 332 m 1
 691 332 l 1
 691 237 746 105 850 105 c 0
 982 105 1055 220 1055 395 c 0
 1055 657 883 845 640 845 c 0
 397 845 235 657 235 395 c 0
 235 220 308 105 440 105 c 0
 544 105 608 237 607 332 c 0
 607 342 614 352 625 352 c 2
 675 352 l 2
 684 352 692 342 692 332 c 0
 692 197 644 -20 430 -20 c 0
 232 -20 110 150 110 395 c 0
 110 723 317 970 645 970 c 0
 973 970 1180 724 1180 395 c 0
 1180 150 1058 -20 860 -20 c 0
 666 -20 606 198 606 332 c 1
EndSplineSet
Fore
SplineSet
606 332 m 1
 691 332 l 1
 691 237 746 105 850 105 c 0
 982 105 1055 210 1055 385 c 0
 1055 637 883 805 640 805 c 0
 397 805 235 637 235 385 c 0
 235 210 308 105 440 105 c 0
 544 105 608 237 607 332 c 0
 607 342 614 352 625 352 c 2
 675 352 l 2
 684 352 692 342 692 332 c 0
 692 197 644 -20 430 -20 c 0
 232 -20 110 140 110 385 c 0
 110 703 317 930 645 930 c 0
 973 930 1180 704 1180 385 c 0
 1180 140 1058 -20 860 -20 c 0
 666 -20 606 198 606 332 c 1
EndSplineSet
Colour: ffffff
EndChar

StartChar: uni1999
Encoding: 6553 6553 94
Width: 1180
Flags: HMW
LayerCount: 2
Back
SplineSet
1098 -285 m 4xba
 1098 -598 833 -740 576 -740 c 4
 348 -740 170 -574 120 -442 c 4
 116 -432 124 -420 134 -416 c 6
 166 -405 l 6
 174 -402 186 -410 191 -420 c 4
 246 -530 380 -635 576 -635 c 4
 753 -635 973 -545 973 -285 c 4
 973 -8 746 50 682 50 c 5
 682 135 l 5
 872 135 1098 28 1098 -285 c 4xba
EndSplineSet
Fore
SplineSet
590 -20 m 0
 312 -20 110 175 110 480 c 0
 110 687 198 829 335 926 c 0
 338.747079843 928.62295589 343 930 347 930 c 0
 354 930 361.997663874 926.252920157 367 920 c 2
 416 856 l 2
 424 846 420 832 410 826 c 0
 313 765 235 651 235 480 c 0
 235 283 356 105 590 105 c 0
 824 105 945 283 945 480 c 0
 945 651 872 760 775 821 c 0
 765 827 761 841 769 851 c 1
 813 920 l 1
 817.956338914 926.195423642 825 930 832 930 c 0
 836 930 841.195423642 928.663203451 845 926 c 0
 982 829 1070 687 1070 480 c 0
 1070 175 868 -20 590 -20 c 0
590 -740 m 0
 353 -740 174 -584 124 -442 c 0
 120.422902991 -431.841044493 128 -420 138 -416 c 2
 170 -405 l 2
 178 -402 190.341658721 -409.8363463 195 -420 c 0
 250 -540 384 -635 590 -635 c 0
 807 -635 965 -430 965 -140 c 0
 965 165 787 360 590 360 c 0
 479 360 365 296 292 193 c 1
 207 271 l 1
 300 391 435 460 590 460 c 0
 877 460 1090 223 1090 -140 c 0
 1090 -503 897 -740 590 -740 c 0
EndSplineSet
Colour: ffffff
EndChar

StartChar: uni19C4
Encoding: 6596 6596 95
Width: 1180
Flags: HMW
LayerCount: 2
Back
SplineSet
545 -20 m 4
 267 -20 65 175 65 480 c 4
 65 687 153 828 290 925 c 4
 300 932 314 929 322 919 c 6
 371 855 l 6
 379 845 375 831 365 825 c 4
 268 764 190 651 190 480 c 4
 190 283 311 105 545 105 c 4
 779 105 900 283 900 480 c 4
 900 651 827 759 730 820 c 4
 720 826 716 840 724 850 c 5
 768 919 l 5
 776 929 790 932 800 925 c 4
 937 828 1025 687 1025 480 c 4
 1025 175 823 -20 545 -20 c 4
1045 -140 m 4
 1045 -495 834 -740 495 -740 c 4
 342.997070312 -740 105 -681 105 -480 c 4
 105 -351 197 -254 335 -254 c 4
 475 -254 560 -350 560 -470 c 4
 560 -527 520 -584 472 -630 c 5
 505 -630 l 6
 706 -630 920 -486 920 -140 c 4
 920 165 742 360 545 360 c 4
 434 360 320 296 247 193 c 5
 162 271 l 5
 255 391 390 460 545 460 c 4
 832 460 1045 223 1045 -140 c 4
225 -480 m 4
 225 -546 270 -590 335 -590 c 4
 402 -590 440 -545 440 -480 c 4
 440 -414 400 -375 335 -375 c 4
 270 -375 225 -414 225 -480 c 4
EndSplineSet
Fore
SplineSet
590 -20 m 0
 312 -20 110 175 110 480 c 0
 110 687 198 828 335 925 c 0
 345 932 359 929 367 919 c 2
 416 855 l 2
 424 845 420 831 410 825 c 0
 313 764 235 651 235 480 c 0
 235 283 356 105 590 105 c 0
 824 105 945 283 945 480 c 0
 945 651 872 759 775 820 c 0
 765 826 761 840 769 850 c 1
 813 919 l 1
 821 929 835 932 845 925 c 0
 982 828 1070 687 1070 480 c 0
 1070 175 868 -20 590 -20 c 0
1090 -140 m 0
 1090 -495 879 -740 540 -740 c 0
 387.997070312 -740 165 -676 165 -475 c 4
 165 -356 252 -265 380 -265 c 4
 510 -265 590 -355 590 -465 c 4
 590 -522 555 -589 507 -635 c 1
 540 -635 l 2
 741 -635 965 -486 965 -140 c 0
 965 165 787 360 590 360 c 0
 479 360 365 296 292 193 c 1
 207 271 l 1
 300 391 435 460 590 460 c 0
 877 460 1090 223 1090 -140 c 0
270 -475 m 4
 270 -541 315 -585 380 -585 c 4
 447 -585 485 -540 485 -475 c 4
 485 -409 445 -370 380 -370 c 4
 315 -370 270 -409 270 -475 c 4
EndSplineSet
Colour: ffffff
EndChar

StartChar: uni1983
Encoding: 6531 6531 96
Width: 1185
Flags: HMW
LayerCount: 2
Back
SplineSet
1074 -285 m 4xba
 1074 -598 809 -740 552 -740 c 4
 324 -740 146 -574 96 -442 c 4
 92 -432 100 -420 110 -416 c 6
 142 -405 l 6
 150 -402 162 -410 167 -420 c 4
 222 -530 356 -635 552 -635 c 4
 729 -635 949 -545 949 -285 c 4
 949 -8 722 50 658 50 c 5
 658 135 l 5
 848 135 1074 28 1074 -285 c 4xba
EndSplineSet
Fore
SplineSet
128 -442 m 0
 123.670898438 -432.138671875 132 -420 142 -416 c 2
 174 -405 l 2
 182 -402 194.291015625 -411.178710938 199 -420 c 0
 270 -553 383 -635 573 -635 c 0
 820 -635 970 -430 970 -170 c 0
 970 151 801 350 504 350 c 0
 367 350 234 303 234 215 c 0
 234 137 367 90 499 90 c 0
 756 90 950 228 950 470 c 0
 950 689 806 805 574 805 c 0
 413 805 290 732 229 625 c 0
 223 614 209 611 199 619 c 2
 130 673 l 2
 120 681 117 694 124 705 c 0
 211 852 367 930 574 930 c 0
 909 930 1075 728 1075 470 c 0
 1075 166 845 -20 499 -20 c 0
 305 -20 124 72 124 215 c 0
 124 379 305 460 504 460 c 0
 871 460 1095 233 1095 -170 c 0
 1095 -503 900 -740 573 -740 c 0
 351 -740 200 -606 128 -442 c 0
EndSplineSet
Colour: ffffff
EndChar

StartChar: uni1986
Encoding: 6534 6534 97
Width: 1250
Flags: HMW
LayerCount: 2
Fore
SplineSet
110 420 m 0
 110 725 337 930 625 930 c 0
 939 930 1140 736 1140 430 c 0
 1140 209 1059 74 880 -17 c 0
 876.245004688 -18.9090089076 872 -20 868 -20 c 0
 862 -20 857.044392636 -16.4799067441 854 -11 c 2
 806 67 l 2
 801 75 805.407226562 88.87890625 815 93 c 0
 950 151 1015 247 1015 430 c 0
 1015 627 877 805 625 805 c 0
 376 805 235 622 235 420 c 0
 235 269 308 171 415 90 c 0
 425 83 428 71 421 60 c 1
 367 -9 l 1
 360.8 -16.0598876953 355 -20 348 -20 c 0
 344 -20 338.729357411 -17.9834859289 335 -15 c 0
 188 92 110 223 110 420 c 0
655 1555 m 0
 358 1555 260 1308.31835938 260 1050 c 0
 260 907.318359375 270 795.318359375 283 717 c 1
 167 604 l 1
 152 705.318359375 135 860.028320312 135 1050 c 0
 135 1362.31835938 268 1650 655 1650 c 0
 882 1650 1041 1504 1081 1382 c 0
 1084 1372 1077 1360 1067 1356 c 2
 1035 1345 l 2
 1027 1342 1014 1350 1010 1360 c 0
 965 1460 851 1555 655 1555 c 0
EndSplineSet
EndChar

StartChar: uni199D
Encoding: 6557 6557 98
Width: 1815
Flags: HMW
LayerCount: 2
Back
SplineSet
965 570 m 0xf6
 965 560 957 550 948 550 c 2
 898 550 l 2
 887 550 880 560 880 570 c 0
 880 619 891 675 901 712 c 0
 942 866 1103 970 1280 970 c 0
 1547 970 1715 742 1715 480 c 0
 1715 268 1625 -19 1380 -20 c 0
 1348 -20 1311 -15 1280 -2 c 0
 1270 2 1267 14 1272 23 c 2
 1318 102 l 2
 1322 110 1334 110 1345 108 c 0
 1354 106 1369 105 1380 105 c 0
 1540 105 1590 336 1590 480 c 0
 1590 680 1446 845 1280 845 c 0
 1113 845 965 741 965 570 c 0xf6
880 570 m 0
 880 741 732 845 565 845 c 0
 399 845 255 680 255 480 c 0
 255 340 305 105 465 105 c 0
 476 105 491 106 500 108 c 0
 511 110 523 110 527 102 c 2
 573 23 l 2
 578 14 575 2 565 -2 c 0
 534 -15 497 -20 465 -20 c 0
 220 -19 130 268 130 480 c 0
 130 742 298 970 565 970 c 0
 742 970 903 866 944 712 c 0
 954 675 965 619 965 570 c 0
 965 560 958 550 947 550 c 2
 897 550 l 2
 888 550 880 560 880 570 c 0
710 1475 m 0xee
 413 1475 315 1230 315 1090 c 0
 315 1005 322 925 350 830 c 1
 231 749 l 1
 203 858 190 964 190 1090 c 0
 190 1303 323 1570 710 1570 c 0
 937 1570 1096 1404 1136 1282 c 0
 1139 1272 1132 1260 1122 1256 c 2
 1090 1245 l 2
 1082 1242 1069 1250 1065 1260 c 0
 1020 1360 906 1475 710 1475 c 0xee
EndSplineSet
Fore
SplineSet
665 1555 m 0
 368 1555 270 1308.31835938 270 1050 c 0
 270 907.318359375 280 795.318359375 293 717 c 1
 177 604 l 1
 162 705.318359375 145 860.028320312 145 1050 c 0
 145 1362.31835938 278 1650 665 1650 c 0
 892 1650 1051 1504 1091 1382 c 0
 1094 1372 1087 1360 1077 1356 c 2
 1045 1345 l 2
 1037 1342 1024 1350 1020 1360 c 0
 975 1460 861 1555 665 1555 c 0
955 530 m 0
 955 520 947 510 938 510 c 2
 888 510 l 2
 877 510 870 520 870 530 c 0
 870 579 881 635 891 672 c 0
 932 826 1093 930 1270 930 c 0
 1537 930 1705 722 1705 460 c 0
 1705 248 1615 -19 1370 -20 c 0
 1338 -20 1301 -15 1270 -2 c 0
 1260 2 1257 14 1262 23 c 2
 1308 102 l 2
 1312 110 1324 110 1335 108 c 0
 1344 106 1359 105 1370 105 c 0
 1530 105 1580 316 1580 460 c 0
 1580 660 1436 805 1270 805 c 0
 1103 805 955 701 955 530 c 0
870 530 m 0
 870 701 722 805 555 805 c 0
 389 805 245 660 245 460 c 0
 245 320 295 105 455 105 c 0
 466 105 481 106 490 108 c 0
 501 110 513 110 517 102 c 2
 563 23 l 2
 568 14 565 2 555 -2 c 0
 524 -15 487 -20 455 -20 c 0
 210 -19 120 248 120 460 c 0
 120 722 288 930 555 930 c 0
 732 930 893 826 934 672 c 0
 944 635 955 579 955 530 c 0
 955 520 948 510 937 510 c 2
 887 510 l 2
 878 510 870 520 870 530 c 0
EndSplineSet
Colour: ffffff
EndChar

StartChar: uni19B3
Encoding: 6579 6579 99
Width: 1150
Flags: MW
LayerCount: 2
Back
SplineSet
530 -20 m 4
 383 -20 217 33 110 175 c 4
 102 185 105 200 116 207 c 6
 185 251 l 6
 196 258 207 255 215 245 c 4
 296 143 409 105 530 105 c 4
 757 105 915 228 915 450 c 4
 915 679 742 805 540 805 c 4
 389 805 296 742 215 635 c 4
 208 625 196 622 185 629 c 6
 116 673 l 6
 105 680 102 695 110 705 c 4
 227 852 353 930 540 930 c 4
 855 930 1040 718 1040 450 c 4
 1040 176 846 -20 530 -20 c 4
EndSplineSet
Fore
SplineSet
596 -635 m 0
 782 -635 916 -540 951 -290 c 0
 953 -279 968 -272 976 -275 c 2
 1008 -286 l 2
 1018 -290 1023 -302 1022 -312 c 0
 992 -584 833 -740 596 -740 c 0
 308 -740 130 -541 130 -250 c 0
 130 -47.6435546875 130 144 130 250 c 0
 130 265.033296378 146 269 153 263 c 0
 264 169 377 105 550 105 c 0
 727 105 915 208 915 450 c 0
 915 679 752 805 540 805 c 0
 399 805 301 752 220 635 c 0
 213.145804205 625.099494962 200 621 190 629 c 1
 121 673 l 1
 111 681 107.787860284 694.417701539 115 705 c 0
 222 862 353 930 540 930 c 0
 845 930 1040 738 1040 450 c 0
 1040 146 816 -20 550 -20 c 0
 434 -20 354 8 283 47 c 0
 276 51 264 46 265 38 c 1
 265 -21 264.986328125 -119.733398438 265 -250 c 1
 265 -503 410 -635 596 -635 c 0
EndSplineSet
Colour: ffffff
EndChar

StartChar: uni1993
Encoding: 6547 6547 100
Width: 1190
Flags: MW
LayerCount: 2
Back
SplineSet
577 -740 m 0
 360 -740 131 -584 101 -372 c 0
 100 -362 105 -350 115 -346 c 2
 147 -335 l 2
 155 -332 170 -339 172 -350 c 0
 207 -540 391 -645 577 -645 c 0
 804 -645 952 -490 952 -290 c 0
 952 -99 773 25 547 25 c 0
 390 25 241 1 154 -45 c 0
 145 -50 132 -42 132 -31 c 2
 132 335 l 2
 132 822 333 970 617 970 c 0
 935 970 1053 762 1077 535 c 0
 1078 523 1073 515 1063 515 c 2
 970 515 l 2
 958 515 954 522 952 535 c 0
 928 707 857 845 617 845 c 0
 391 845 257 737 257 335 c 2
 257 138 l 2
 257 127 265 116 276 120 c 0
 325 138 443 150 547 150 c 0
 854 150 1077 -17 1077 -290 c 0
 1077 -553 894 -740 577 -740 c 0
EndSplineSet
Fore
SplineSet
580 -740 m 0
 353 -740 165 -584 135 -372 c 0
 134 -362 139 -350 149 -346 c 2
 181 -335 l 2
 189 -332 204 -339 206 -350 c 0
 241 -540 404 -635 580 -635 c 0
 817 -635 955 -470 955 -240 c 0
 955 -9 836 135 590 135 c 0
 433 135 263 45 157 -35 c 1
 147 -37 125 -9 135 -21 c 1
 135 315 l 2
 135 752 326 930 600 930 c 0
 908 930 1036 742 1050 515 c 0
 1051 503 1046 495 1036 495 c 2
 943 495 l 2
 931 495 926 502 925 515 c 0
 911 677 810 805 600 805 c 0
 384 805 260 657 260 305 c 2
 260 168 l 2
 260 157 269 144 279 150 c 0
 365 207 496 260 600 260 c 0
 930 260 1080 73 1080 -240 c 0
 1080 -543 887 -740 580 -740 c 0
EndSplineSet
Colour: ffffff
EndChar

StartChar: uni19C3
Encoding: 6595 6595 101
Width: 1190
Flags: HMW
LayerCount: 2
Back
SplineSet
1075.99609375 -270 m 4
 1075.99609375 -573 857.99609375 -740 560.99609375 -740 c 5
 390.99609375 -741.317382812 133.99609375 -677.856445312 133.99609375 -477 c 5
 133.99609375 -348 225.99609375 -252 363.99609375 -252 c 4
 503.99609375 -252 588.99609375 -348 588.99609375 -467 c 4
 588.99609375 -521 554.99609375 -574 510.99609375 -617 c 5
 529.99609375 -622 553.99609375 -625 565.99609375 -625 c 4
 772.99609375 -625 950.99609375 -510 950.99609375 -270 c 4
 950.99609375 -9 831.99609375 135 585.99609375 135 c 4
 428.99609375 135 258.99609375 45 152.99609375 -35 c 5
 142.99609375 -37 120.99609375 -9 130.99609375 -21 c 5
 130.99609375 315 l 6
 130.99609375 752 321.99609375 930 595.99609375 930 c 4
 903.99609375 930 1031.99609375 742 1045.99609375 515 c 4
 1046.99609375 503 1041.99609375 495 1031.99609375 495 c 6
 938.99609375 495 l 6
 926.99609375 495 921.99609375 502 920.99609375 515 c 4
 906.99609375 677 805.99609375 805 595.99609375 805 c 4
 379.99609375 805 255.99609375 657 255.99609375 305 c 6
 255.99609375 168 l 6
 255.99609375 157 264.99609375 144 274.99609375 150 c 4
 360.99609375 207 491.99609375 260 595.99609375 260 c 4
 925.99609375 260 1075.99609375 73 1075.99609375 -270 c 4
253.99609375 -476 m 4
 253.99609375 -542 298.99609375 -586 363.99609375 -586 c 4
 430.99609375 -586 468.99609375 -541 468.99609375 -476 c 4
 468.99609375 -410 428.99609375 -371 363.99609375 -371 c 4
 298.99609375 -371 253.99609375 -410 253.99609375 -476 c 4
EndSplineSet
Fore
SplineSet
1075 -270 m 0
 1075 -573 857 -740 560 -740 c 1
 390 -741 150 -678 150 -477 c 5
 150 -358 235 -265 363 -265 c 4
 493 -265 573 -358 573 -467 c 4
 573 -521 544 -584 500 -627 c 1
 519 -632 543 -635 555 -635 c 0
 762 -635 950 -510 950 -270 c 0
 950 -9 831 135 585 135 c 0
 428 135 258 45 152 -35 c 1
 144 -31 136 -25 130 -20 c 1
 130 315 l 2
 130 752 321 930 595 930 c 0
 903 930 1031 742 1045 515 c 0
 1046 503 1041 495 1031 495 c 2
 938 495 l 2
 926 495 921 502 920 515 c 0
 906 677 805 805 595 805 c 0
 379 805 255 657 255 305 c 2
 255 168 l 2
 255 157 264 144 274 150 c 0
 360 207 491 260 595 260 c 0
 925 260 1075 73 1075 -270 c 0
255 -476 m 4
 255 -542 298 -586 363 -586 c 4
 430 -586 468 -541 468 -476 c 4
 468 -410 428 -370 363 -370 c 4
 298 -370 255 -410 255 -476 c 4
EndSplineSet
Colour: ffffff
EndChar

StartChar: uni198F
Encoding: 6543 6543 102
Width: 1175
Flags: MW
LayerCount: 2
Back
SplineSet
487 482 m 0
 497 482 507 474 507 465 c 2
 507 415 l 2
 507 404 497 397 487 397 c 0
 331 397 255 327 255 240 c 0
 255 166 331 105 410 105 c 0
 480 105 528 121 545 130 c 0
 555 135 567 131 572 123 c 2
 618 49 l 2
 623 40 618 31 610 25 c 0
 579 2 501 -20 410 -20 c 0
 263 -20 130 105 130 240 c 0
 130 421 326 482 487 482 c 0
580 -740 m 0
 363 -740 224 -624 174 -522 c 0
 169 -513 178 -500 188 -496 c 2
 220 -485 l 2
 228 -482 239 -491 245 -500 c 0
 290 -570 404 -635 580 -635 c 0
 856 -635 940 -334 940 120 c 0
 940 617 820 845 545 845 c 0
 390 845 255 772 255 640 c 0
 255 566 341 482 487 482 c 0
 497 482 507 474 507 465 c 2
 507 415 l 2
 507 404 497 397 487 397 c 0
 343 397 130 474 130 650 c 0
 130 848 320 970 545 970 c 0
 905 970 1065 676 1065 120 c 0
 1065 -435 923 -740 580 -740 c 0
EndSplineSet
Fore
SplineSet
487 480 m 0
 497 480 507 472 507 463 c 2
 507 413 l 2
 507 402 497 395 487 395 c 0
 331 395 245 317 245 230 c 0
 245 146 311 105 410 105 c 0
 480 105 528 121 545 130 c 0
 555 135 567 131 572 123 c 2
 618 49 l 2
 623 40 618 31 610 25 c 0
 579 2 501 -20 410 -20 c 0
 243 -20 120 85 120 230 c 0
 120 411 326 480 487 480 c 0
545 -740 m 0
 328 -740 194 -624 144 -522 c 0
 139 -513 148 -500 158 -496 c 2
 190 -485 l 2
 198 -482 209 -491 215 -500 c 0
 260 -570 369 -635 545 -635 c 0
 821 -635 940 -334 940 120 c 0
 940 597 820 805 545 805 c 0
 390 805 245 752 245 630 c 0
 245 556 341 480 487 480 c 0
 497 480 507 472 507 463 c 2
 507 413 l 2
 507 402 497 395 487 395 c 0
 343 395 120 454 120 630 c 0
 120 828 320 930 545 930 c 0
 905 930 1065 726 1065 120 c 0
 1065 -435 888 -740 545 -740 c 0
EndSplineSet
Colour: ffffff
EndChar

StartChar: uni1991
Encoding: 6545 6545 103
Width: 1140
Flags: MW
LayerCount: 2
Back
SplineSet
650 1555 m 4xec
 353 1555 255 1308.31835938 255 1050 c 4
 255 907.318359375 265 795.318359375 278 717 c 5
 162 604 l 5
 147 705.318359375 130 860.028320312 130 1050 c 4
 130 1362.31835938 263 1650 650 1650 c 4
 877 1650 1036 1504 1076 1382 c 4
 1079 1372 1072 1360 1062 1356 c 6
 1030 1345 l 6
 1022 1342 1009 1350 1005 1360 c 4
 960 1460 846 1555 650 1555 c 4xec
EndSplineSet
Fore
SplineSet
648 430 m 0
 638 430 628 438 628 447 c 2
 628 497 l 2
 628 508 638 515 648 515 c 0
 804 515 880 593 880 680 c 0
 880 754 804 805 725 805 c 0
 655 805 607 789 590 780 c 0
 580 775 568 779 563 787 c 2
 517 861 l 2
 512 870 517 879 525 885 c 0
 556 908 634 930 725 930 c 0
 882 930 1005 845 1005 690 c 0
 1005 509 809 430 648 430 c 0
595 1650 m 0
 822 1650 931 1514 971 1382 c 0
 974.027766097 1372.00837188 967 1360 957 1356 c 2
 925 1345 l 2
 917 1342 904 1350 900 1360 c 0
 855 1460 781 1555 595 1555 c 0
 339 1555 255 1311 255 790 c 0
 255 287 382 105 610 105 c 0
 775 105 895 153 895 280 c 0
 895 374 794 430 648 430 c 0
 638 430 628 438 628 447 c 2
 628 497 l 2
 628 508 638 515 648 515 c 0
 792 515 1020 456 1020 270 c 0
 1020 75 865 -20 610 -20 c 0
 294 -20 130 201 130 790 c 0
 130 1413 272 1650 595 1650 c 0
EndSplineSet
Colour: ffffff
EndChar

StartChar: uni1981
Encoding: 6529 6529 104
Width: 1785
Flags: HMW
LayerCount: 2
Back
SplineSet
625 1110 m 0
 615 1110 605 1117 605 1128 c 2
 605 1198 l 2
 605 1207 615 1215 625 1215 c 0
 722 1215 890 1334 890 1505 c 0
 890 1515 898 1525 907 1525 c 2
 957 1525 l 2
 968 1525 975 1515 975 1505 c 0
 975 1310 791 1110 625 1110 c 0
1240 1110 m 0
 1074 1110 890 1310 890 1505 c 0
 890 1515 897 1525 908 1525 c 2
 958 1525 l 2
 967 1525 975 1515 975 1505 c 0
 975 1334 1143 1215 1240 1215 c 0
 1250 1215 1260 1207 1260 1198 c 2
 1260 1128 l 2
 1260 1117 1250 1110 1240 1110 c 0
495 -20 m 0
 348 -20 222 38 115 175 c 0
 107 185 111 199 121 207 c 2
 190 261 l 2
 200 269 213 265 220 255 c 0
 301 148 384 105 495 105 c 0
 652 105 800 219 800 471 c 0
 800 720 657 845 485 845 c 0
 374 845 291 802 210 695 c 0
 203 685 191 682 180 689 c 1
 111 743 l 1
 100 750 97 765 105 775 c 0
 212 912 338 970 485 970 c 0
 750 970 925 759 925 471 c 0
 925 167 751 -20 495 -20 c 0
887 672 m 0
 879 663 867 658 857 666 c 2
 788 720 l 2
 778 728 774 742 782 752 c 1
 868 843 1049 969 1255 969 c 0
 1552 969 1740 761 1740 479 c 0
 1740 237 1577 -20 1222 -21 c 0
 1212 -21 1202 -13 1202 -4 c 2
 1202 46 l 2
 1202 57 1212 64 1222 64 c 0
 1462 64 1615 299 1615 479 c 0
 1615 699 1451 844 1255 844 c 0
 1122 844 970 759 887 672 c 0
1744 -336 m 0
 1744 -609 1481 -741 1224 -741 c 0
 996 -741 818 -575 768 -443 c 0
 764 -433 772 -421 782 -417 c 2
 814 -406 l 2
 822 -403 834 -411 839 -421 c 0
 894 -531 1028 -636 1224 -636 c 0
 1401 -636 1619 -556 1619 -336 c 0
 1619 -129 1409 -21 1225 -21 c 1
 1225 64 l 1
 1575 64 1744 -103 1744 -336 c 0
EndSplineSet
Fore
SplineSet
500 -20 m 0
 353 -20 227 38 120 175 c 0
 112 185 116 199 126 207 c 2
 195 261 l 2
 205 269 218 265 225 255 c 0
 306 148 389 105 500 105 c 0
 657 105 815 199 815 451 c 0
 815 690 662 805 490 805 c 0
 379 805 296 762 215 655 c 0
 208 645 196 642 185 649 c 1
 116 703 l 1
 105 710 102 725 110 735 c 0
 217 872 343 930 490 930 c 0
 755 930 940 739 940 451 c 0
 940 147 756 -20 500 -20 c 0
880.240234375 643 m 0
 872.240234375 634 860.240234375 629 850.240234375 637 c 2
 791.240234375 691 l 2
 781.79296875 699.646484375 777.240234375 713 785.240234375 723 c 1
 871.240234375 814 1004 930 1210 930 c 0
 1487 930 1675 772 1675 480 c 0
 1675 238 1512 41 1157 40 c 0
 1147 40 1137 48 1137 57 c 2
 1137 107 l 2
 1137 118 1147 125 1157 125 c 0
 1397 125 1550 300 1550 480 c 0
 1550 700 1386 805 1210 805 c 0
 1077 805 963.240234375 730 880.240234375 643 c 0
1680 -295 m 0
 1680 -598 1416 -740 1159 -740 c 0
 931 -740 753 -574 703 -442 c 0
 699 -432 707 -420 717 -416 c 2
 749 -405 l 2
 757 -402 769 -410 774 -420 c 0
 829 -530 963 -635 1159 -635 c 0
 1336 -635 1555 -545 1555 -295 c 0
 1555 -58 1344 40 1160 40 c 1
 1160 125 l 1
 1510 125 1680 -32 1680 -295 c 0
565.5 1110 m 0
 555.5 1110 545.5 1117 545.5 1128 c 2
 545.5 1198 l 2
 545.5 1207 555.5 1215 565.5 1215 c 0
 672.5 1215 860.5 1334 860.5 1505 c 0
 860.5 1515 868.5 1525 877.5 1525 c 2
 927.5 1525 l 2
 938.5 1525 945.5 1515 945.5 1505 c 0
 945.5 1310 741.5 1110 565.5 1110 c 0
1240.5 1110 m 0
 1064.5 1110 860.5 1310 860.5 1505 c 0
 860.5 1515 867.5 1525 878.5 1525 c 2
 928.5 1525 l 2
 937.5 1525 945.5 1515 945.5 1505 c 0
 945.5 1334 1133.5 1215 1240.5 1215 c 0
 1250.5 1215 1260.5 1207 1260.5 1198 c 2
 1260.5 1128 l 2
 1260.5 1117 1250.5 1110 1240.5 1110 c 0
EndSplineSet
Colour: ffffff
EndChar

StartChar: uni1987
Encoding: 6535 6535 105
Width: 1225
Flags: HMW
LayerCount: 2
Back
SplineSet
610 -635 m 0
 876 -635 1010 -279 1010 145 c 0
 1010 572 860 845 615 845 c 0
 375 845 255 608 255 405 c 0
 255 236 277 105 365 105 c 0
 405 105 447 145 493 186 c 0
 544 232 600 280 665 280 c 0
 778 280 855 202 855 100 c 0
 855 12 782 -51 741 -74 c 0
 732 -79 723 -75 717 -66 c 2
 670 12 l 2
 664 21 671 30 679 35 c 0
 696 45 730 60 730 100 c 0
 730 132 698 155 665 155 c 0
 637 155 603 117 559 77 c 0
 508 30 445 -20 365 -20 c 0
 193 -20 130 156 130 405 c 0
 130 671 300 970 615 970 c 0
 925 970 1135 671 1135 145 c 0
 1135 -380 943 -740 610 -740 c 0
 373 -740 214 -584 174 -412 c 0
 172 -402 178 -390 188 -386 c 2
 220 -375 l 2
 228 -372 242 -379 245 -390 c 0
 290 -540 404 -635 610 -635 c 0
EndSplineSet
Fore
SplineSet
590 -635 m 0
 856 -635 990 -319 990 145 c 0
 990 572 840 805 595 805 c 0
 355 805 235 598 235 395 c 0
 235 216 247 105 335 105 c 0
 375 105 421.6484375 146.1640625 463 201 c 0
 509 262 570 320 635 320 c 0
 748 320 825 242 825 130 c 0
 825 42 752 -21 711 -44 c 0
 702 -49 693 -45 687 -36 c 2
 640 42 l 2
 634 51 641 60 649 65 c 0
 666 75 700 90 700 130 c 0
 700 172 668 195 635 195 c 0
 607 195 568.650390625 146.315429688 529 92 c 0
 483.903320312 30.2236328125 415 -20 335 -20 c 0
 163 -20 110 136 110 395 c 0
 110 661 280 930 595 930 c 0
 905 930 1115 671 1115 145 c 0
 1115 -420 923 -740 590 -740 c 0
 353 -740 194 -584 154 -412 c 0
 152 -402 158 -390 168 -386 c 2
 200 -375 l 2
 208 -372 222 -379 225 -390 c 0
 270 -540 384 -635 590 -635 c 0
EndSplineSet
Colour: ffffff
EndChar

StartChar: uni198B
Encoding: 6539 6539 106
Width: 1260
Flags: MW
LayerCount: 2
Back
SplineSet
299.001953125 633 m 0xe8
 291.001953125 624 279.001953125 619 269.001953125 627 c 2
 200.001953125 681 l 2
 190.001953125 689 186.001953125 703 194.001953125 713 c 1
 280.001953125 804 461.001953125 930 667.001953125 930 c 0
 964.001953125 930 1152.00195312 762 1152.00195312 480 c 0
 1152.00195312 238 989.001953125 21 634.001953125 20 c 0
 624.001953125 20 614.001953125 28 614.001953125 37 c 2
 614.001953125 87 l 2
 614.001953125 98 624.001953125 105 634.001953125 105 c 0
 874.001953125 105 1027.00195312 300 1027.00195312 480 c 0xf0
 1027.00195312 700 863.001953125 805 667.001953125 805 c 0
 534.001953125 805 382.001953125 720 299.001953125 633 c 0xe8
1156.00195312 -305 m 0
 1156.00195312 -598 893.001953125 -740 636.001953125 -740 c 0
 408.001953125 -740 230.001953125 -574 180.001953125 -442 c 0
 176.001953125 -432 184.001953125 -420 194.001953125 -416 c 2
 226.001953125 -405 l 2
 234.001953125 -402 246.001953125 -410 251.001953125 -420 c 0
 306.001953125 -530 440.001953125 -635 636.001953125 -635 c 0
 813.001953125 -635 1031.00195312 -545 1031.00195312 -305 c 0
 1031.00195312 -68 821.001953125 20 637.001953125 20 c 1
 637.001953125 105 l 1
 987.001953125 105 1156.00195312 -42 1156.00195312 -305 c 0
EndSplineSet
Fore
SplineSet
1140 480 m 0
 1140 288 1007 51 742 50 c 0
 732.000071199 49.9622644196 722 58 722 67 c 2
 722 117 l 2
 722 128 732 135 742 135 c 0
 892 135 1015 270 1015 480 c 0
 1015 677 887 805 635 805 c 0
 386 805 235 622 235 420 c 0
 235 269 308 166 415 85 c 0
 425 78 428 66 421 55 c 1
 367 -14 l 1
 360 -25 345 -28 335 -20 c 0
 188 87 110 223 110 420 c 0
 110 725 347 930 635 930 c 0
 949 930 1140 766 1140 480 c 0
1160 -285 m 0
 1160 -598 895 -740 638 -740 c 0
 410 -740 232 -574 182 -442 c 0
 178 -432 186 -420 196 -416 c 2
 228 -405 l 2
 236 -402 248 -410 253 -420 c 0
 308 -530 442 -635 638 -635 c 0
 815 -635 1035 -545 1035 -285 c 0
 1035 -8 808 50 744 50 c 1
 744 135 l 1
 934 135 1160 28 1160 -285 c 0
EndSplineSet
Colour: ffffff
EndChar

StartChar: uni19A1
Encoding: 6561 6561 107
Width: 1165
Flags: MW
LayerCount: 2
Back
SplineSet
201 673 m 0xe8
 193 664 181 659 171 667 c 2
 102 721 l 2
 92 729 88 743 96 753 c 1
 182 844 363 970 569 970 c 0
 866 970 1054 762 1054 480 c 0
 1054 238 891 -19 536 -20 c 0
 526 -20 516 -12 516 -3 c 2
 516 47 l 2
 516 58 526 65 536 65 c 0
 776 65 929 300 929 480 c 0xf0
 929 700 765 845 569 845 c 0
 436 845 284 760 201 673 c 0xe8
1058 -335 m 0
 1058 -608 795 -740 538 -740 c 0
 310 -740 132 -574 82 -442 c 0
 78 -432 86 -420 96 -416 c 2
 128 -405 l 2
 136 -402 148 -410 153 -420 c 0
 208 -530 342 -635 538 -635 c 0
 715 -635 933 -555 933 -335 c 0
 933 -128 723 -20 539 -20 c 1
 539 65 l 1
 889 65 1058 -102 1058 -335 c 0
EndSplineSet
Fore
SplineSet
201 633 m 0
 193 624 181 619 171 627 c 2
 102 681 l 2
 92 689 88 703 96 713 c 1
 182 804 363 930 569 930 c 0
 876 930 1055 762 1055 480 c 0
 1055 248 891 41 536 40 c 0
 526 40 516 48 516 57 c 2
 516 107 l 2
 516 118 526 125 536 125 c 0
 776 125 930 300 930 480 c 0
 930 690 775 805 569 805 c 0
 436 805 284 720 201 633 c 0
1060 -295 m 0
 1060 -588 795 -740 538 -740 c 0
 310 -740 132 -574 82 -442 c 0
 78 -432 86 -420 96 -416 c 2
 128 -405 l 2
 136 -402 148 -410 153 -420 c 0
 208 -530 342 -635 538 -635 c 0
 715 -635 935 -535 935 -295 c 0
 935 -58 723 40 539 40 c 1
 539 125 l 1
 889 125 1060 -32 1060 -295 c 0
EndSplineSet
Colour: ffffff
EndChar

StartChar: uni198C
Encoding: 6540 6540 108
Width: 1260
Flags: HMW
LayerCount: 2
Back
SplineSet
1160 450 m 0xbd
 1160 208 1037 -19 792 -20 c 0
 782 -20 772 -12 772 -3 c 2
 772 47 l 2
 772 58 782 65 792 65 c 0xbd
 912 65 1035 230 1035 450 c 0
 1035 657 897 845 645 845 c 0
 396 845 255 652 255 440 c 0
 255 279 328 166 435 85 c 0
 445 78 448 66 441 55 c 1
 387 -14 l 1
 380 -25 365 -28 355 -20 c 0xdd
 208 87 130 233 130 440 c 0
 130 755 357 970 645 970 c 0
 959 970 1160 766 1160 450 c 0xbd
680 1475 m 0xba80
 383 1475 285 1230 285 1090 c 0
 285 984 296 886 344 757 c 1
 232 644 l 1
 183 793 160 924 160 1090 c 0
 160 1303 293 1570 680 1570 c 0
 907 1570 1066 1404 1106 1282 c 0
 1109 1272 1102 1260 1092 1256 c 2
 1060 1245 l 2
 1052 1242 1039 1250 1035 1260 c 0
 990 1360 876 1475 680 1475 c 0xba80
1178 -335 m 0
 1178 -608 915 -740 658 -740 c 0
 430 -740 252 -574 202 -442 c 0
 198 -432 206 -420 216 -416 c 2
 248 -405 l 2
 256 -402 268 -410 273 -420 c 0
 328 -530 462 -635 658 -635 c 0
 835 -635 1053 -555 1053 -335 c 0
 1053 -128 858 -20 794 -20 c 1
 794 65 l 1
 984 65 1178 -102 1178 -335 c 0
EndSplineSet
Fore
SplineSet
655 1555 m 0
 358 1555 260 1308.31835938 260 1050 c 0
 260 907.318359375 270 795.318359375 283 717 c 1
 167 604 l 1
 152 705.318359375 135 860.028320312 135 1050 c 0
 135 1362.31835938 268 1650 655 1650 c 0
 882 1650 1041 1504 1081 1382 c 0
 1084 1372 1077 1360 1067 1356 c 2
 1035 1345 l 2
 1027 1342 1014 1350 1010 1360 c 0
 965 1460 851 1555 655 1555 c 0
1140 480 m 0
 1140 288 1007 51 742 50 c 0
 732.000071199 49.9622644196 722 58 722 67 c 2
 722 117 l 2
 722 128 732 135 742 135 c 0
 892 135 1015 270 1015 480 c 0
 1015 677 887 805 635 805 c 0
 386 805 235 622 235 420 c 0
 235 269 308 166 415 85 c 0
 425 78 428 66 421 55 c 1
 367 -14 l 1
 360 -25 345 -28 335 -20 c 0
 188 87 110 223 110 420 c 0
 110 725 347 930 635 930 c 0
 949 930 1140 766 1140 480 c 0
1160 -285 m 0
 1160 -598 895 -740 638 -740 c 0
 410 -740 232 -574 182 -442 c 0
 178 -432 186 -420 196 -416 c 2
 228 -405 l 2
 236 -402 248 -410 253 -420 c 0
 308 -530 442 -635 638 -635 c 0
 815 -635 1035 -545 1035 -285 c 0
 1035 -8 808 50 744 50 c 1
 744 135 l 1
 934 135 1160 28 1160 -285 c 0
EndSplineSet
Colour: ffffff
EndChar

StartChar: uni19B7
Encoding: 6583 6583 109
Width: 1152
Flags: HMW
LayerCount: 2
Back
SplineSet
625 1555 m 4
 328 1555 230 1308.31835938 230 1050 c 0
 230 907.318359375 240 795.318359375 253 717 c 1
 137 604 l 1
 122 705.318359375 105 860.028320312 105 1050 c 0
 105 1362.31835938 238 1650 625 1650 c 4
 852 1650 1011 1504 1051 1382 c 4
 1054 1372 1047 1360 1037 1356 c 6
 1005 1345 l 6
 997 1342 984 1350 980 1360 c 4
 935 1460 821 1555 625 1555 c 4
EndSplineSet
Fore
SplineSet
630 -20 m 0
 315 -20 110 162 110 440 c 0
 110 756 354 870 632 870 c 0
 642 870 652 863 652 852 c 2
 652 802 l 2
 652 793 642 785 632 785 c 0
 425 785 235 662 235 440 c 0
 235 211 418 105 630 105 c 0
 796 105 924 194 934 332 c 0
 935 342 939 349 947 351 c 1
 1040 351 l 2
 1051 351 1060 343 1060 333 c 0
 1057 154 888 -20 630 -20 c 0
625 1650 m 0
 852 1650 1011 1504 1051 1382 c 0
 1054 1372 1047 1360 1037 1356 c 2
 1005 1345 l 2
 997 1342 984 1350 980 1360 c 0
 935 1460 821 1555 625 1555 c 0
 395 1555 263 1396 263 1220 c 0
 263 1013 431 870 632 870 c 0
 642 870 652 863 652 852 c 2
 652 802 l 2
 652 793 642 785 632 785 c 0
 397 785 138 910 138 1221 c 0
 138 1467 333 1650 625 1650 c 0
EndSplineSet
Colour: ffffff
EndChar

StartChar: uni19C6
Encoding: 6598 6598 110
Width: 1165
Flags: HMW
LayerCount: 2
Back
SplineSet
199.99609375 633 m 4
 191.99609375 624 179.99609375 619 169.99609375 627 c 6
 100.99609375 681 l 6
 90.99609375 689 86.99609375 703 94.99609375 713 c 5
 180.99609375 804 361.99609375 930 567.99609375 930 c 4
 874.99609375 930 1053.99609375 762 1053.99609375 480 c 4
 1053.99609375 248 889.99609375 41 534.99609375 40 c 4
 524.99609375 40 514.99609375 48 514.99609375 57 c 6
 514.99609375 107 l 6
 514.99609375 118 524.99609375 125 534.99609375 125 c 4
 774.99609375 125 928.99609375 300 928.99609375 480 c 4
 928.99609375 690 773.99609375 805 567.99609375 805 c 4
 434.99609375 805 282.99609375 720 199.99609375 633 c 4
1058.99609375 -295 m 4
 1058.99609375 -578 832.99609375 -740 530.99609375 -740 c 4
 360.99609375 -740 103.99609375 -678 103.99609375 -477 c 4
 103.99609375 -348 195.99609375 -252 333.99609375 -252 c 4
 473.99609375 -252 558.99609375 -348 558.99609375 -467 c 4
 558.99609375 -521 524.99609375 -574 481.99609375 -617 c 5
 495.99609375 -622 518.99609375 -625 535.99609375 -625 c 4
 742.99609375 -625 933.99609375 -515 933.99609375 -295 c 4
 933.99609375 -58 721.99609375 40 537.99609375 40 c 5
 537.99609375 125 l 5
 887.99609375 125 1058.99609375 -32 1058.99609375 -295 c 4
223.99609375 -477 m 4
 223.99609375 -543 268.99609375 -587 333.99609375 -587 c 4
 400.99609375 -587 438.99609375 -542 438.99609375 -477 c 4
 438.99609375 -411 398.99609375 -372 333.99609375 -372 c 4
 268.99609375 -372 223.99609375 -411 223.99609375 -477 c 4
EndSplineSet
Fore
SplineSet
199.99609375 633 m 0
 191.99609375 624 179.99609375 619 169.99609375 627 c 2
 100.99609375 681 l 2
 90.99609375 689 86.99609375 703 94.99609375 713 c 1
 180.99609375 804 361.99609375 930 567.99609375 930 c 0
 874.99609375 930 1053.99609375 762 1053.99609375 480 c 0
 1053.99609375 248 889.99609375 41 534.99609375 40 c 0
 524.99609375 40 514.99609375 48 514.99609375 57 c 2
 514.99609375 107 l 2
 514.99609375 118 524.99609375 125 534.99609375 125 c 0
 774.99609375 125 928.99609375 300 928.99609375 480 c 0
 928.99609375 690 773.99609375 805 567.99609375 805 c 0
 434.99609375 805 282.99609375 720 199.99609375 633 c 0
1058.99609375 -295 m 0
 1058.99609375 -578 832.99609375 -740 530.99609375 -740 c 0
 360.99609375 -740 108.99609375 -678 108.99609375 -477 c 0
 108.99609375 -358 205.99609375 -257 333.99609375 -257 c 0
 463.99609375 -257 553.99609375 -358 553.99609375 -467 c 0
 553.99609375 -521 524.99609375 -584 481.99609375 -627 c 1
 495.99609375 -632 518.99609375 -635 535.99609375 -635 c 0
 742.99609375 -635 933.99609375 -515 933.99609375 -295 c 0
 933.99609375 -58 721.99609375 40 537.99609375 40 c 1
 537.99609375 125 l 1
 887.99609375 125 1058.99609375 -32 1058.99609375 -295 c 0
223.99609375 -477 m 0
 223.99609375 -543 268.99609375 -587 333.99609375 -587 c 0
 400.99609375 -587 438.99609375 -542 438.99609375 -477 c 0
 438.99609375 -411 398.99609375 -372 333.99609375 -372 c 0
 268.99609375 -372 223.99609375 -411 223.99609375 -477 c 0
EndSplineSet
Colour: ffffff
EndChar

StartChar: uni19D1
Encoding: 6609 6609 111
Width: 1150
Flags: HMW
LayerCount: 2
Back
SplineSet
555 -20 m 0
 398 -20 212 33 105 175 c 0
 97 185 100 200 111 207 c 2
 180 251 l 2
 191 258 202 255 210 245 c 0
 291 143 424 105 555 105 c 0
 792 105 970 238 970 470 c 0
 970 709 777 845 565 845 c 0
 404 845 291 782 210 675 c 0
 203 665 191 662 180 669 c 2
 111 713 l 2
 100 720 97 735 105 745 c 0
 222 892 368 970 565 970 c 0
 880 970 1095 748 1095 470 c 0
 1095 186 881 -20 555 -20 c 0
EndSplineSet
Fore
Refer: 63 6577 S 1 0 0 1 0 0 2
Colour: ffffff
EndChar

StartChar: uni199A
Encoding: 6554 6554 112
Width: 1150
Flags: HMW
LayerCount: 2
Back
SplineSet
1120 90 m 4xbe
 1129 87 1133 73 1128 64 c 6
 1082 -15 l 6
 1078 -23 1066 -24 1055 -20 c 4
 858 52 685 311 685 580 c 4
 685 793 739 930 890 930 c 5
 890 825 l 5
 815 821 790 719 790 585 c 4
 790 364 956 147 1120 90 c 4xbe
130 670 m 4
 130 815 243 930 390 930 c 4
 461 930 509 918 560 895 c 4
 569.116210938 890.888671875 572.9453125 880.030273438 568 871 c 6
 522 787 l 6
 518 779 504.85546875 774.720703125 495 780 c 4
 467 795 440 805 390 805 c 4
 311 805 255 754 255 670 c 4
 255 583 300 515 487 515 c 4
 497 515 507 508 507 497 c 6xde
 507 447 l 6
 507 438 497 430 487 430 c 4
 326 430 130 489 130 670 c 4
515 -20 m 4
 290 -20 130 72 130 270 c 4
 130 392 269 512 425 512 c 4
 444 512 478 512 490 512 c 4
 499 512 505 494 505 472 c 4
 505 450 503 430.021484375 490 430 c 4
 305.005859375 429.692382812 255 354 255 280 c 4
 255 148 360 105 515 105 c 4
 837 105 990 382 990 585 c 4
 990 719 965 821 890 825 c 5
 890 930 l 5
 1041 930 1095 793 1095 580 c 4
 1095 292 904 -20 515 -20 c 4
EndSplineSet
Fore
SplineSet
965 1235 m 0
 1015 1095 1040 847 1040 640 c 0
 1040 194 864 -20 533 -20 c 0
 268 -20 120 82 120 270 c 0
 120 426 293 515 477 515 c 0
 487 515 497 508 497 497 c 2
 497 447 l 2
 497 438 487 430 477 430 c 0
 291 430 245 354 245 280 c 0
 245 158 348 105 533 105 c 0
 778 105 915 257 915 640 c 0
 915 785 910 976 880 1082 c 0
 877 1092 872 1103 861 1100 c 0
 812 1087 744 1070 580 1070 c 0
 315 1070 150 1162 150 1360 c 0
 150 1558 355 1650 580 1650 c 0
 757 1650 909 1599 1014 1529 c 0
 1022 1524 1026 1516 1020 1505 c 2
 1001 1470 l 2
 996 1461 982 1461 974 1466 c 0
 895 1516 741 1555 580 1555 c 0
 388 1555 265 1479 265 1360 c 0
 265 1231 388 1175 580 1175 c 0
 747 1175 837 1201 943 1249 c 0
 952 1253 961 1246 965 1235 c 0
477 430 m 0
 276 430 120 509 120 680 c 0
 120 815 233 930 400 930 c 0
 491 930 569 908 600 885 c 0
 608 879 613 870 608 861 c 2
 562 787 l 2
 557 779 545 775 535 780 c 0
 518 789 470 805 400 805 c 0
 301 805 245 744 245 670 c 0
 245 593 281 515 477 515 c 0
 487 515 497 508 497 497 c 2
 497 447 l 2
 497 438 487 430 477 430 c 0
EndSplineSet
Colour: ffffff
EndChar

StartChar: uni19BA
Encoding: 6586 6586 113
Width: 1245
Flags: HMW
LayerCount: 2
Back
SplineSet
487 770 m 4
 418.912109375 1323.17480469 454 1650 731 1650 c 4
 958 1650 1010 1480 960 1230 c 4
 958 1220 953 1210 944 1210 c 6
 904 1211 l 6
 893 1211 886 1220 886 1230 c 4
 886 1419 870 1535 731 1535 c 4
 578 1535 548.26953125 1274.14453125 613 770 c 1028
620 -20 m 0
 767 -20 933 33 1040 175 c 0
 1048 185 1045 200 1034 207 c 2
 965 251 l 2
 954 258 943 255 935 245 c 0
 854 143 741 105 620 105 c 0
 393 105 235 228 235 450 c 0
 235 679 408 805 610 805 c 0
 761 805 854 742 935 635 c 0
 942 625 954 622 965 629 c 2
 1034 673 l 2
 1045 680 1048 695 1040 705 c 0
 923 852 797 930 610 930 c 0
 295 930 110 718 110 450 c 0
 110 176 304 -20 620 -20 c 0
EndSplineSet
Fore
SplineSet
590 -20 m 0
 304 -20 110 156 110 450 c 0
 110 728 313 930 598 930 c 0
 714 930 825 890 896 857 c 0
 903 854 913.448006145 857.956660968 914 866 c 0
 921 968 919.671393324 1117.0398792 909.234375 1229 c 0
 887.23425293 1465 817 1555 688 1555 c 0
 539 1555 478 1407 478 1230 c 0
 478 1219.99968243 471 1211 460 1211 c 2
 420 1210 l 2
 411 1210 404.13333821 1220.06440169 403 1230 c 0
 373 1493 500 1650 698 1650 c 0
 906 1650 1005.23425293 1537 1034.234375 1229 c 0
 1045.6157824 1108.122113 1043 780 1033 649 c 0
 1032 634 1017 630 1010 636 c 0
 899 730 771 805 598 805 c 0
 416 805 235 689 235 450 c 0
 235 218 413 105 590 105 c 0
 771 105 854 148 935 245 c 0
 942.82394331 254.369413593 954 258 965 251 c 2
 1034 207 l 2
 1045 200 1047.88266088 185.092752718 1040 175 c 0
 933 38 797 -20 590 -20 c 0
EndSplineSet
Colour: ffffff
EndChar

StartChar: uni19B4
Encoding: 6580 6580 114
Width: 1419
Flags: HMW
LayerCount: 2
Back
SplineSet
435 770 m 0
 435 649 435 536 435 410 c 0
 435 200 468 105 624 105 c 0
 747 105 916 200 1029 330 c 1
 1079 246 l 1
 939 88 769 -20 614 -20 c 0
 367 -20 310 128 310 370 c 0
 310 511 311 671 310 760 c 0
 310 784 289 805 270 805 c 0
 242 805 218 778 200 745 c 0
 196 737 178 739 171 745 c 2
 106 809 l 2
 98 816 100 826 105 835 c 0
 134 891 200 930 270 930 c 0
 356 930 435 858 435 770 c 0
1280 -635 m 0
 1419 -635 1430 -483 1430 -294 c 0
 1430 -284 1436.99902344 -275 1448 -275 c 2
 1488 -275 l 2
 1497 -275 1503 -284 1505 -294 c 0
 1555 -544 1507 -740 1280 -740 c 0
 1082 -740 1005 -604 1005 -250 c 2
 1005 890 l 2
 1005 900 1012 910 1023 910 c 2
 1113 910 l 2
 1122 910 1130 900 1130 890 c 2
 1130 -250 l 2
 1130 -507 1161 -635 1280 -635 c 0
1031.14355469 140 m 4
 963.055664062 -413.174804688 998.143554688 -740 1275.14355469 -740 c 4
 1502.14355469 -740 1554.14355469 -569 1504.14355469 -319 c 4
 1502.14355469 -309 1497.14355469 -299 1488.14355469 -299 c 6
 1448.14355469 -300 l 6
 1437.14355469 -300 1430.14355469 -309 1430.14355469 -319 c 4
 1430.14355469 -508 1414.14355469 -645 1275.14355469 -645 c 4
 1122.14355469 -645 1092.41308594 -364.14453125 1157.14355469 140 c 1028
EndSplineSet
Fore
SplineSet
277.997070312 613 m 2
 277.997070312 410 l 1
 277.997070312 204 310.997070312 105 466.997070312 105 c 0
 589.997070312 105 758.997070312 200 871.997070312 330 c 1
 921.997070312 246 l 1
 781.997070312 88 611.997070312 -20 456.997070312 -20 c 0
 209.997070312 -20 152.997070312 131.91015625 152.997070312 370 c 2
 152.997070312 579 l 2
 152.997070312 693.998046875 126.997070312 794 92.9970703125 854 c 0
 87.9970703125 862 94.759765625 874.1328125 103.997070312 879 c 2
 196.997070312 928 l 2
 204.44140625 932.192382812 213.997070312 924 219.997070312 914 c 0
 255.997070312 849 278.568359375 729.00390625 277.997070312 613 c 2
1112.99707031 -635 m 0
 1251.99707031 -635 1272.99707031 -483 1272.99707031 -294 c 0
 1272.99707031 -284 1279.99707031 -275 1290.99707031 -275 c 2
 1330.99707031 -275 l 2
 1339.99707031 -275 1345.99707031 -284 1347.99707031 -294 c 0
 1397.99707031 -544 1339.99707031 -740 1112.99707031 -740 c 0
 914.997070312 -740 847.997070312 -604 847.997070312 -250 c 2
 847.997070312 890 l 2
 847.997070312 900 854.997070312 910 865.997070312 910 c 2
 955.997070312 910 l 2
 964.997070312 910 972.997070312 900 972.997070312 890 c 2
 972.997070312 -250 l 2
 972.997070312 -507 993.997070312 -635 1112.99707031 -635 c 0
EndSplineSet
Colour: ffffff
EndChar

StartChar: uni19BC
Encoding: 6588 6588 115
Width: 1685
Flags: HMW
LayerCount: 2
Fore
SplineSet
285.997070312 613 m 2
 284.997070312 410 l 1
 284.997070312 204 317.997070312 105 453.997070312 105 c 0
 576.997070312 105 715.997070312 200 828.997070312 330 c 1
 878.997070312 246 l 1
 738.997070312 88 598.997070312 -20 443.997070312 -20 c 0
 216.997070312 -20 159.997070312 131.91015625 159.997070312 370 c 2
 159.997070312 579 l 2
 159.997070312 693.998046875 133.997070312 794 99.9970703125 854 c 0
 94.9970703125 862 91.119140625 875.615234375 100.997070312 879 c 2
 203.997070312 928 l 2
 211.711914062 931.669921875 220.997070312 924 226.997070312 914 c 0
 262.997070312 849 286.568359375 729.00390625 285.997070312 613 c 2
930 890 m 2
 930 -305 l 2
 930 -497 1001 -625 1160 -625 c 0
 1319 -625 1410 -497 1410 -305 c 2
 1410 890 l 2
 1410 900 1417 910 1428 910 c 2
 1518 910 l 2
 1527 910 1535 900 1535 890 c 2
 1535 -305 l 2
 1535 -563 1408 -740 1160 -740 c 0
 902 -740 805 -563 805 -305 c 2
 805 890 l 2
 805 900 812 910 823 910 c 2
 913 910 l 2
 922 910 930 900 930 890 c 2
EndSplineSet
Colour: ffffff
EndChar

StartChar: uni19B0
Encoding: 6576 6576 116
Width: 1136
Flags: HMW
LayerCount: 2
Fore
SplineSet
1026 745 m 0
 1026 597 948 490 836 490 c 0
 714 490 648 589 601 675 c 0
 552 764 479 805 381 805 c 0
 318 805 256 762 256 700 c 0
 256 647 306 620 356 620 c 0
 365 620 375 606 375 598 c 2
 375 506 l 2
 375 496 366 490 356 490 c 0
 210 490 129 572 131 700 c 0
 133 842 248 930 381 930 c 0
 546 930 646 843 725 693 c 0
 750 646 781 595 836 595 c 0
 899 595 951 650 951 745 c 0
 951 755 958 765 969 765 c 2
 1009 765 l 2
 1018 765 1026 755 1026 745 c 0
1026 235 m 0
 1026 87 948 -20 836 -20 c 0
 714 -20 648 79 601 165 c 0
 552 254 479 295 381 295 c 0
 318 295 256 252 256 190 c 0
 256 137 306 110 356 110 c 0
 365 110 375 96 375 88 c 2
 375 -4 l 2
 375 -14 366 -20 356 -20 c 0
 210 -20 129 62 131 190 c 0
 133 332 248 420 381 420 c 0
 546 420 646 333 725 183 c 0
 750 136 781 85 836 85 c 0
 899 85 951 140 951 235 c 0
 951 245 958 255 969 255 c 2
 1009 255 l 2
 1018 255 1026 245 1026 235 c 0
EndSplineSet
Colour: ffffff
EndChar

StartChar: uni19C8
Encoding: 6600 6600 117
Width: 1114
Flags: HMW
LayerCount: 2
Back
SplineSet
566 105 m 0
 720 105 879 137 879 285 c 0
 879 403 761 450 624 450 c 0
 474 450 320 396 227 348 c 1
 174 451 l 1
 287 500 469 560 624 560 c 0
 833 560 994 469 994 285 c 0
 994 62 797 -20 566 -20 c 0
 280 -20 110 156 110 470 c 0
 110 758 241 970 576 970 c 0
 733 970 874 922 981 775 c 0
 989 765 985 752 975 743 c 2
 916 689 l 2
 906 680 893 685 886 695 c 0
 815 802 707 845 576 845 c 0
 344 845 235 719 235 470 c 0
 235 208 369 105 566 105 c 0
EndSplineSet
Fore
SplineSet
566 105 m 0
 720 105 879 137 879 275 c 0
 879 383 741 430 604 430 c 0
 454 430 320 376 227 308 c 1
 174 411 l 1
 287 480 449 540 604 540 c 0
 813 540 994 449 994 275 c 0
 994 62 797 -20 566 -20 c 0
 280 -20 110 156 110 450 c 0
 110 718 251 930 576 930 c 0
 733 930 874 902 981 765 c 0
 988.882660882 754.907247282 985 742 975 733 c 2
 916 679 l 2
 906 670 893.8252821 675.631704528 886 685 c 0
 815 770 707 805 576 805 c 0
 354 805 235 679 235 450 c 0
 235 208 369 105 566 105 c 0
EndSplineSet
Colour: ffffff
EndChar

StartChar: uni19C9
Encoding: 6601 6601 118
Width: 1143
Flags: HMW
LayerCount: 2
Back
SplineSet
545 105 m 4
 726 105 809 148 890 245 c 4
 897.82421875 254.369140625 909 258 920 251 c 6
 989 207 l 6
 1000 200 1002.8828125 185.092773438 995 175 c 4
 888 38 752 -20 545 -20 c 1028
586 -20 m 0
 251 -20 120 192 120 480 c 0
 120 794 290 970 576 970 c 0
 807 970 1004 868 1004 665 c 0
 1004 501 843 425 634 425 c 0
 459 425 302 450 189 514 c 1
 237 616 l 1
 330 553 484 535 634 535 c 0
 771 535 889 567 889 665 c 0
 889 793 730 845 576 845 c 0
 379 845 245 742 245 480 c 0
 245 221 354 105 586 105 c 0
 837 105 898 246 898 300 c 0
 898 310 905 319 916 319 c 2
 1006 320 l 2
 1015 320 1023 310 1023 300 c 0
 1023 168 893 -20 586 -20 c 0
EndSplineSet
Fore
SplineSet
586 -20 m 0
 251 -20.000048799 120 182 120 450 c 0
 120 744 290 930 576 930 c 0
 807 930 1004 838 1004 645 c 0
 1004 481 833 405 624 405 c 0
 449 405 302 440 189 504 c 1
 237 606 l 1
 330 543 474 515 624 515 c 0
 761 515 889 547 889 645 c 0
 889 763 730 805 576 805 c 0
 379 805 245 692 245 450 c 0
 245 221 354 105 586 105 c 0
 754.5 105 844.5 188 889.5 245 c 0
 895.696289062 252.848632812 910.213867188 256.897460938 919.5 251 c 2
 993.5 204 l 2
 1002.888419 198.037085231 1002.4140625 185.064453125 996.5 177 c 0
 919.5 72 795.5 -19.9999694824 586 -20 c 0
EndSplineSet
Colour: ffffff
EndChar

StartChar: uni19D8
Encoding: 6616 6616 119
Width: 1405
Flags: HMW
LayerCount: 2
Back
SplineSet
100 0 m 0
 90 0 80 7 80 18 c 2
 80 108 l 2
 80 117 90 125 100 125 c 0
 437 125 680 363 680 775 c 0
 680 785 687 795 698 795 c 2
 768 795 l 2
 777 795 785 785 785 775 c 0
 785 273 498 0 100 0 c 0
1365 0 m 0
 967 0 680 273 680 775 c 0
 680 785 688 795 697 795 c 2
 767 795 l 2
 778 795 785 785 785 775 c 0
 785 363 1028 125 1365 125 c 0
 1375 125 1385 117 1385 108 c 2
 1385 18 l 2
 1385 7 1375 0 1365 0 c 0
EndSplineSet
Fore
SplineSet
90 0 m 0
 80 0 70 7 70 18 c 2
 70 108 l 2
 70 117 80 125 90 125 c 0
 427 125 650 288 650 840 c 0
 650 850 657 860 668 860 c 2
 738 860 l 2
 747 860 755 850 755 840 c 0
 755 208 488 0 90 0 c 0
1315 0 m 0
 917 0 650 208 650 840 c 0
 650 850 658 860 667 860 c 2
 737 860 l 2
 748 860 755 850 755 840 c 0
 755 288 978 125 1315 125 c 0
 1325 125 1335 117 1335 108 c 2
 1335 18 l 2
 1335 7 1325 0 1315 0 c 0
EndSplineSet
Colour: ffffff
EndChar

StartChar: uni19A3
Encoding: 6563 6563 120
Width: 1465
Flags: HMW
LayerCount: 2
Back
SplineSet
958 -678 m 0
 1161 -498 1262 -207 1262 126 c 0
 1262 473 1030 847 562 847 c 0
 421 847 235 793 235 709 c 0
 235 639 318 603 419 569 c 0
 573 517 767 449 767 237 c 0
 767 79 648 -23 477 -23 c 0
 314 -23 206 72 206 201 c 0
 206 218 207 229 210 245 c 1
 213 254 223 261 234 257 c 2
 318 226 l 2
 327 223 328 211 328 202 c 0
 328 132 415 102 477 102 c 0
 567 102 642 155 642 237 c 0
 642 387 495 417 356 463 c 0
 230 505 110 561 110 712 c 0
 110 868 312 972 562 972 c 0
 1100 972 1377 549 1377 126 c 0
 1377 -247 1226 -534 1007 -736 c 0
 1000 -742 992 -740 986 -734 c 2
 954 -698 l 2
 949 -692 950 -686 958 -678 c 0
EndSplineSet
Fore
SplineSet
948 -678 m 0
 1151 -498 1250 -207 1250 126 c 0
 1250 473 1040 805 572 805 c 0
 431 805 245 763 245 659 c 0
 245 589 295.5 552 435.5 516 c 0
 675.639648438 454.25 757 390 757 230 c 0
 757 72 638 -20 467 -20 c 0
 304 -20 196 75 196 204 c 0
 196 221 197 232 200 248 c 1
 203 257 213 264 224 260 c 2
 308 229 l 2
 317 226 318 214 318 205 c 0
 318 135 405 105 467 105 c 0
 557 105 632 148 632 230 c 0
 632 318 533.869140625 365.899414062 372.5 410 c 0
 211.5 454 120 511 120 662 c 0
 120 815 282 930 572 930 c 0
 1110 930 1365 549 1365 126 c 0
 1365 -247 1216 -534 997 -736 c 0
 990 -742 982 -740 976 -734 c 2
 944 -698 l 2
 939 -692 940 -686 948 -678 c 0
EndSplineSet
Colour: ffffff
EndChar

StartChar: uni1997
Encoding: 6551 6551 121
Width: 1805
Flags: HMW
LayerCount: 2
Back
SplineSet
945 530 m 0
 945 520 937 510 928 510 c 2
 878 510 l 2
 867 510 860 520 860 530 c 0
 860 579 871 635 881 672 c 0
 922 826 1083 930 1260 930 c 0
 1527 930 1695 722 1695 460 c 0
 1695 248 1605 -19 1360 -20 c 0
 1328 -20 1291 -15 1260 -2 c 0
 1250 2 1247 14 1252 23 c 2
 1298 102 l 2
 1302 110 1314 110 1325 108 c 0
 1334 106 1349 105 1360 105 c 0
 1520 105 1570 316 1570 460 c 0
 1570 660 1426 805 1260 805 c 0
 1093 805 945 701 945 530 c 0
860 530 m 0
 860 701 712 805 545 805 c 0
 379 805 235 660 235 460 c 0
 235 320 285 105 445 105 c 0
 456 105 471 106 480 108 c 0
 491 110 503 110 507 102 c 2
 553 23 l 2
 558 14 555 2 545 -2 c 0
 514 -15 477 -20 445 -20 c 0
 200 -19 110 248 110 460 c 0
 110 722 278 930 545 930 c 0
 722 930 883 826 924 672 c 0
 934 635 945 579 945 530 c 0
 945 520 938 510 927 510 c 2
 877 510 l 2
 868 510 860 520 860 530 c 0
1197 -320 m 0
 1079 -320 1010 -393 1010 -465 c 0
 1010 -547 1061 -645 1270 -645 c 0
 1469 -645 1550 -477 1550 -355 c 2
 1550 174 l 1
 1675 480 l 1
 1675 -355 l 2
 1675 -573 1518 -740 1270 -740 c 0
 1022 -740 915 -613 915 -465 c 0
 915 -323 1033 -225 1197 -225 c 0
 1320 -225 1445 -283 1447 -395 c 0
 1449 -503 1328 -570 1162 -510 c 0
 1152 -506 1143 -500 1143 -490 c 2
 1143 -453 l 2
 1143 -445 1153 -432 1162 -435 c 0
 1269 -477 1352 -453 1352 -395 c 0
 1352 -353 1280 -320 1197 -320 c 0
EndSplineSet
Fore
SplineSet
945 530 m 0
 945 520 937 510 928 510 c 2
 878 510 l 2
 867 510 860 520 860 530 c 0
 860 579 871 635 881 672 c 0
 922 826 1083 930 1260 930 c 0
 1527 930 1695 722 1695 460 c 0
 1695 248 1605 -19 1360 -20 c 0
 1328 -20 1291 -15 1260 -2 c 0
 1250 2 1247 14 1252 23 c 2
 1298 102 l 2
 1302 110 1314 110 1325 108 c 0
 1334 106 1349 105 1360 105 c 0
 1520 105 1570 316 1570 460 c 0
 1570 660 1426 805 1260 805 c 0
 1093 805 945 701 945 530 c 0
860 530 m 0
 860 701 712 805 545 805 c 0
 379 805 235 660 235 460 c 0
 235 320 285 105 445 105 c 0
 456 105 471 106 480 108 c 0
 491 110 503 110 507 102 c 2
 553 23 l 2
 558 14 555 2 545 -2 c 0
 514 -15 477 -20 445 -20 c 0
 200 -19 110 248 110 460 c 0
 110 722 278 930 545 930 c 0
 722 930 883 826 924 672 c 0
 934 635 945 579 945 530 c 0
 945 520 938 510 927 510 c 2
 877 510 l 2
 868 510 860 520 860 530 c 0
1047 -270 m 0
 869 -270 810 -363 810 -445 c 0
 810 -537 881 -635 1170 -635 c 0
 1469 -635 1550 -477 1550 -355 c 2
 1550 174 l 1
 1675 480 l 1
 1675 -355 l 2
 1675 -573 1518 -740 1170 -740 c 0
 842 -740 700 -603 700 -445 c 0
 700 -293 833 -175 1047 -175 c 0
 1250 -175 1350 -248 1352 -360 c 0
 1354 -468 1188 -550 1022 -490 c 0
 1012 -486 1003 -480 1003 -470 c 2
 1003 -433 l 2
 1003 -425 1013 -412 1022 -415 c 0
 1129 -457 1252 -423 1252 -365 c 0
 1252 -313 1200 -270 1047 -270 c 0
EndSplineSet
Colour: ffffff
EndChar

StartChar: uni19A4
Encoding: 6564 6564 122
Width: 1165
Flags: HMW
LayerCount: 2
Back
SplineSet
237 1110 m 0
 227 1110 217 1117 217 1128 c 2
 217 1198 l 2
 217 1207 227 1215 237 1215 c 0
 334 1215 502 1334 502 1505 c 0
 502 1515 510 1525 519 1525 c 2
 569 1525 l 2
 580 1525 587 1515 587 1505 c 0
 587 1310 403 1110 237 1110 c 0
852 1110 m 0
 686 1110 502 1310 502 1505 c 0
 502 1515 509 1525 520 1525 c 2
 570 1525 l 2
 579 1525 587 1515 587 1505 c 0
 587 1334 755 1215 852 1215 c 0
 862 1215 872 1207 872 1198 c 2
 872 1128 l 2
 872 1117 862 1110 852 1110 c 0
201 673 m 0
 193 664 181 659 171 667 c 2
 102 721 l 2
 92 729 88 743 96 753 c 1
 182 844 363 970 569 970 c 0
 866 970 1054 762 1054 480 c 0
 1054 238 891 -19 536 -20 c 0
 526 -20 516 -12 516 -3 c 2
 516 47 l 2
 516 58 526 65 536 65 c 0
 776 65 929 300 929 480 c 0
 929 700 765 845 569 845 c 0
 436 845 284 760 201 673 c 0
1058 -335 m 0
 1058 -608 795 -740 538 -740 c 0
 310 -740 132 -574 82 -442 c 0
 78 -432 86 -420 96 -416 c 2
 128 -405 l 2
 136 -402 148 -410 153 -420 c 0
 208 -530 342 -635 538 -635 c 0
 715 -635 933 -555 933 -335 c 0
 933 -128 723 -20 539 -20 c 1
 539 65 l 1
 889 65 1058 -102 1058 -335 c 0
EndSplineSet
Fore
SplineSet
230 1110 m 0
 220 1110 210 1117 210 1128 c 2
 210 1198 l 2
 210 1207 220 1215 230 1215 c 0
 337 1215 524 1334 524 1505 c 0
 524 1515 533 1525 542 1525 c 2
 592 1525 l 2
 603 1525 610 1515 610 1505 c 0
 610 1310 406 1110 230 1110 c 0
904 1110 m 0
 728 1110 524 1310 524 1505 c 0
 524 1515 531 1525 542 1525 c 2
 592 1525 l 2
 601 1525 610 1515 610 1505 c 0
 610 1334 797 1215 904 1215 c 0
 914 1215 924 1207 924 1198 c 2
 924 1128 l 2
 924 1117 914 1110 904 1110 c 0
201 633 m 0
 193 624 181 619 171 627 c 2
 102 681 l 2
 92 689 88 703 96 713 c 1
 182 804 363 930 569 930 c 0
 876 930 1055 762 1055 480 c 0
 1055 248 891 41 536 40 c 0
 526 40 516 48 516 57 c 2
 516 107 l 2
 516 118 526 125 536 125 c 0
 776 125 930 300 930 480 c 0
 930 690 775 805 569 805 c 0
 436 805 284 720 201 633 c 0
1060 -295 m 0
 1060 -588 795 -740 538 -740 c 0
 310 -740 132 -574 82 -442 c 0
 78 -432 86 -420 96 -416 c 2
 128 -405 l 2
 136 -402 148 -410 153 -420 c 0
 208 -530 342 -635 538 -635 c 0
 715 -635 935 -535 935 -295 c 0
 935 -58 723 40 539 40 c 1
 539 125 l 1
 889 125 1060 -32 1060 -295 c 0
EndSplineSet
Colour: ffffff
EndChar

StartChar: uni19A5
Encoding: 6565 6565 123
Width: 1180
Flags: HMW
LayerCount: 2
Back
SplineSet
275 1110 m 0
 265 1110 255 1117 255 1128 c 2
 255 1198 l 2
 255 1207 265 1215 275 1215 c 0
 372 1215 540 1334 540 1505 c 0
 540 1515 548 1525 557 1525 c 2
 607 1525 l 2
 618 1525 625 1515 625 1505 c 0
 625 1310 441 1110 275 1110 c 0
890 1110 m 0
 724 1110 540 1310 540 1505 c 0
 540 1515 547 1525 558 1525 c 2
 608 1525 l 2
 617 1525 625 1515 625 1505 c 0
 625 1334 793 1215 890 1215 c 0
 900 1215 910 1207 910 1198 c 2
 910 1128 l 2
 910 1117 900 1110 890 1110 c 0
590 -20 m 0
 312 -20 110 185 110 500 c 0
 110 717 198 873 335 970 c 0
 345 977 359 974 367 964 c 2
 416 900 l 2
 424 890 420 876 410 870 c 0
 313 809 235 681 235 500 c 0
 235 293 356 105 590 105 c 0
 824 105 945 293 945 500 c 0
 945 681 872 804 775 865 c 0
 765 871 761 885 769 895 c 1
 813 964 l 1
 821 974 835 977 845 970 c 0
 982 873 1070 717 1070 500 c 0
 1070 185 868 -20 590 -20 c 0
EndSplineSet
Fore
SplineSet
255 1110 m 0
 245 1110 235 1117 235 1128 c 2
 235 1198 l 2
 235 1207 245 1215 255 1215 c 0
 362 1215 549 1334 549 1505 c 0
 549 1515 558 1525 567 1525 c 2
 617 1525 l 2
 628 1525 635 1515 635 1505 c 0
 635 1310 431 1110 255 1110 c 0
929 1110 m 0
 753 1110 549 1310 549 1505 c 0
 549 1515 556 1525 567 1525 c 2
 617 1525 l 2
 626 1525 635 1515 635 1505 c 0
 635 1334 822 1215 929 1215 c 0
 939 1215 949 1207 949 1198 c 2
 949 1128 l 2
 949 1117 939 1110 929 1110 c 0
590 -20 m 0
 312 -20 110 175 110 480 c 0
 110 687 198 829 335 926 c 0
 338.747079843 928.62295589 343 930 347 930 c 0
 354 930 361.997663874 926.252920157 367 920 c 2
 416 856 l 2
 424 846 420 832 410 826 c 0
 313 765 235 651 235 480 c 0
 235 283 356 105 590 105 c 0
 824 105 945 283 945 480 c 0
 945 651 872 760 775 821 c 0
 765 827 761 841 769 851 c 1
 813 920 l 1
 817.956338914 926.195423642 825 930 832 930 c 0
 836 930 841.195423642 928.663203451 845 926 c 0
 982 829 1070 687 1070 480 c 0
 1070 175 868 -20 590 -20 c 0
EndSplineSet
Colour: ffffff
EndChar

StartChar: uni19A6
Encoding: 6566 6566 124
Width: 1805
Flags: HMW
LayerCount: 2
Back
SplineSet
593 -485 m 4
 593 -570 693 -595 789 -595 c 4
 1045 -595 1309 -430 1309 -325 c 4
 1309 -250 1235 -210 1099 -210 c 4
 843 -210 593 -370 593 -485 c 4
479 -495 m 4
 479 -300 805 -105 1119 -105 c 4
 1313 -105 1423 -180 1423 -315 c 4
 1423 -508 1083 -700 769 -700 c 4
 615 -700 479 -638 479 -495 c 4
945 570 m 0
 945 560 937 550 928 550 c 2
 878 550 l 2
 867 550 860 560 860 570 c 0
 860 619 871 675 881 712 c 0
 922 866 1083 970 1260 970 c 0
 1527 970 1695 742 1695 480 c 0
 1695 268 1605 -19 1360 -20 c 0
 1328 -20 1291 -15 1260 -2 c 0
 1250 2 1247 14 1252 23 c 2
 1298 102 l 2
 1302 110 1314 110 1325 108 c 0
 1334 106 1349 105 1360 105 c 0
 1520 105 1570 336 1570 480 c 0
 1570 680 1426 845 1260 845 c 0
 1093 845 945 741 945 570 c 0
860 570 m 0
 860 741 712 845 545 845 c 0
 379 845 235 680 235 480 c 0
 235 340 285 105 445 105 c 0
 456 105 471 106 480 108 c 0
 491 110 503 110 507 102 c 2
 553 23 l 2
 558 14 555 2 545 -2 c 0
 514 -15 477 -20 445 -20 c 0
 200 -19 110 268 110 480 c 0
 110 742 278 970 545 970 c 0
 722 970 883 866 924 712 c 0
 934 675 945 619 945 570 c 0
 945 560 938 550 927 550 c 2
 877 550 l 2
 868 550 860 560 860 570 c 0
925 -345 m 0
 925 -420 1034 -475 1200 -475 c 0
 1366 -475 1480 -420 1480 -345 c 0
 1480 -270 1366 -220 1200 -220 c 0
 1034 -220 925 -270 925 -345 c 0
820 -345 m 0
 820 -200 976 -115 1200 -115 c 0
 1424 -115 1585 -200 1585 -345 c 0
 1585 -488 1424 -580 1200 -580 c 0
 976 -580 820 -488 820 -345 c 0
EndSplineSet
Fore
SplineSet
494 -485 m 0
 494 -570 604 -595 710 -595 c 0
 996 -595 1310 -430 1310 -325 c 0
 1310 -250 1226 -210 1080 -210 c 0
 794 -210 494 -370 494 -485 c 0
380 -495 m 0
 380 -300 756 -105 1100 -105 c 0
 1304 -105 1424 -180 1424 -315 c 0
 1424 -508 1034 -700 690 -700 c 0
 526 -700 380 -638 380 -495 c 0
EndSplineSet
Refer: 66 6530 N 1 0 0 1 0 0 2
Colour: ffffff
EndChar

StartChar: uni199B
Encoding: 6555 6555 125
Width: 1735
Flags: HMW
LayerCount: 2
Back
SplineSet
519 -485 m 0
 519 -570 619 -595 715 -595 c 0
 971 -595 1235 -430 1235 -325 c 0
 1235 -250 1161 -210 1025 -210 c 0
 769 -210 519 -370 519 -485 c 0
405 -495 m 0
 405 -300 731 -105 1045 -105 c 0
 1239 -105 1349 -180 1349 -315 c 0
 1349 -508 1009 -700 695 -700 c 0
 541 -700 405 -638 405 -495 c 0
905 -345 m 0
 905 -420 1014 -475 1180 -475 c 0
 1346 -475 1460 -420 1460 -345 c 0
 1460 -270 1346 -220 1180 -220 c 0
 1014 -220 905 -270 905 -345 c 0
800 -345 m 0
 800 -200 956 -115 1180 -115 c 0
 1404 -115 1565 -200 1565 -345 c 0
 1565 -488 1404 -580 1180 -580 c 0
 956 -580 800 -488 800 -345 c 0
530 105 m 0
 706 105 762 258 795 475 c 0
 831 709 904 970 1205 970 c 0
 1462 970 1595 742 1595 480 c 0
 1595 208 1505 -19 1260 -20 c 0
 1228 -20 1191 -15 1160 -2 c 0
 1150 2 1147 14 1152 23 c 2
 1198 102 l 2
 1202 110 1214 110 1225 108 c 0
 1234 106 1249 105 1260 105 c 0
 1420 105 1470 280 1470 480 c 0
 1470 680 1361 845 1205 845 c 0
 1006 845 952 659 925 475 c 0
 884 198 788 -20 530 -20 c 0
 253 -20 120 168 120 470 c 0
 120 692 203 920 415 970 c 0
 428 973 436 973 440 965 c 2
 485 885 l 2
 490 877 489 863 475 860 c 0
 298 815 245 630 245 470 c 0
 245 230 354 105 530 105 c 0
EndSplineSet
Fore
SplineSet
459 -485 m 0
 459 -570 569 -595 675 -595 c 0
 961 -595 1275 -430 1275 -325 c 0
 1275 -250 1191 -210 1045 -210 c 0
 759 -210 459 -370 459 -485 c 0
345 -495 m 0
 345 -300 721 -105 1065 -105 c 0
 1269 -105 1389 -180 1389 -315 c 0
 1389 -508 999 -700 655 -700 c 0
 491 -700 345 -638 345 -495 c 0
EndSplineSet
Refer: 71 6560 N 1 0 0 1 0 0 2
Refer: 71 6560 N 1 0 0 1 0 0 2
Colour: ffffff
EndChar

StartChar: uni19A9
Encoding: 6569 6569 126
Width: 1250
Flags: HMW
LayerCount: 2
Back
SplineSet
635 970 m 0
 949 970 1150 766 1150 450 c 0
 1150 219 1069 61 890 -20 c 0
 880 -24 869 -23 864 -14 c 2
 816 64 l 2
 811 72 815 87 825 90 c 0
 960 138 1025 257 1025 450 c 0
 1025 657 887 845 635 845 c 0
 386 845 245 652 245 440 c 0
 245 279 318 166 425 85 c 0
 435 78 438 66 431 55 c 1
 377 -14 l 1
 370 -25 355 -28 345 -20 c 0
 198 87 120 233 120 440 c 0
 120 755 347 970 635 970 c 0
670 1475 m 0
 373 1475 275 1230 275 1090 c 0
 275 984 286 886 334 757 c 1
 222 644 l 1
 173 793 150 924 150 1090 c 0
 150 1303 283 1570 670 1570 c 0
 897 1570 1056 1404 1096 1282 c 0
 1099 1272 1092 1260 1082 1256 c 2
 1050 1245 l 2
 1042 1242 1029 1250 1025 1260 c 0
 980 1360 866 1475 670 1475 c 0
360 -345 m 0
 360 -420 469 -475 635 -475 c 0
 801 -475 915 -420 915 -345 c 0
 915 -270 801 -220 635 -220 c 0
 469 -220 360 -270 360 -345 c 0
255 -345 m 0
 255 -200 411 -115 635 -115 c 0
 859 -115 1020 -200 1020 -345 c 0
 1020 -488 859 -580 635 -580 c 0
 411 -580 255 -488 255 -345 c 0
EndSplineSet
Fore
Refer: 39 -1 N 1 0 0 1 1217 0 2
Refer: 97 6534 N 1 0 0 1 0 0 2
Colour: ffffff
EndChar

StartChar: uni19DF
Encoding: 6623 6623 127
Width: 1894
Flags: HMW
LayerCount: 2
Back
SplineSet
745 -345 m 0
 745 -420 854 -475 1020 -475 c 0
 1186 -475 1300 -420 1300 -345 c 0
 1300 -270 1186 -220 1020 -220 c 0
 854 -220 745 -270 745 -345 c 0
640 -345 m 0
 640 -200 796 -115 1020 -115 c 0
 1244 -115 1405 -200 1405 -345 c 0
 1405 -488 1244 -580 1020 -580 c 0
 796 -580 640 -488 640 -345 c 0
1120 -20 m 0
 882 -20 791 198 750 475 c 0
 723 659 664 845 495 845 c 0
 299 845 235 640 235 440 c 0
 235 240 315 105 475 105 c 0
 486 105 501 106 510 108 c 0
 521 110 533 110 537 102 c 2
 583 23 l 2
 588 14 585 2 575 -2 c 0
 544 -15 507 -20 475 -20 c 0
 230 -19 110 168 110 440 c 0
 110 702 198 970 495 970 c 0
 766 970 844 709 880 475 c 0
 913 258 964 105 1120 105 c 0
 1287 105 1365 286 1310 710 c 1
 1234 1261 1278 1570 1565 1570 c 0
 1792 1570 1850 1330 1800 1080 c 0
 1798 1070 1792 1060 1783 1060 c 2
 1743 1061 l 2
 1732 1061 1725 1070 1725 1080 c 0
 1725 1269 1704 1455 1565 1455 c 0
 1382 1455 1377 1214 1435 710 c 1
 1491 298 1415 -20 1120 -20 c 0
EndSplineSet
Fore
Refer: 39 -1 S 1 0 0 1 1452 0 2
Refer: 135 6622 N 1 0 0 1 0 0 2
Colour: ffffff
EndChar

StartChar: uni19D3
Encoding: 6611 6611 128
Width: 1145
Flags: HMW
LayerCount: 2
Back
SplineSet
550 105 m 0
 727 105 915 208 915 450 c 0
 915 679 752 805 540 805 c 0
 399 805 301 752 220 635 c 0
 213.145507812 625.099609375 200 621 190 629 c 1
 121 673 l 1
 111 681 107.788085938 694.41796875 115 705 c 0
 222 862 353 930 540 930 c 0
 845 930 1040 738 1040 450 c 0
 1040 146 816 -20 550 -20 c 8
 477.163085938 -20 433.416015625 5 366 12 c 0
 355.856445312 13.0537109375 354 -1 361 -7 c 0
 461 -94 858 -512 1070 -618 c 0
 1078 -622 1082 -636 1075 -646 c 1
 997 -735 l 2
 991 -741 978 -739 971 -734 c 0
 609 -472 373 -139 121 75 c 0
 113 81 107 95 115 104 c 2
 161 159 l 2
 166 166 178 166 189 162 c 0
 270 132 437 104 550 105 c 0
EndSplineSet
Fore
SplineSet
550 105 m 0
 727 105 915 208 915 450 c 0
 915 679 752 805 540 805 c 0
 399 805 301 752 220 635 c 0
 213.145507812 625.099609375 200 621 190 629 c 1
 121 673 l 1
 111 681 107.788085938 694.41796875 115 705 c 0
 222 862 353 930 540 930 c 0
 845 930 1040 738 1040 450 c 0
 1040 146 816 -20 550 -20 c 0
 494.416015625 -20 446.416015625 -8 376 18 c 0
 366.432753761 21.5325543487 364.95182607 5.95841879388 371 -1 c 0
 514.416015625 -166 786.416015625 -430 1070 -618 c 0
 1077.45487153 -622.942154439 1082 -636 1075 -646 c 1
 997 -735 l 2
 991 -741 977.694535137 -739.402147657 971 -734 c 0
 750.416015625 -556 416.416015625 -218 121 112 c 0
 114.330134881 119.450697907 107 132 115 141 c 2
 161 196 l 2
 166 203 178.718467269 204.593754079 189 199 c 0
 286.416015625 146 437 104 550 105 c 0
EndSplineSet
Colour: ffffff
EndChar

StartChar: uni1984
Encoding: 6532 6532 129
Width: 1735
Flags: HMW
LayerCount: 2
Back
SplineSet
1179 -555 m 0
 1169 -554 1160 -549 1160 -539 c 2
 1160 -497 l 2
 1160 -489 1170 -477 1179 -480 c 0
 1211 -490 1300 -487 1300 -430 c 0
 1300 -398 1248 -375 1205 -375 c 0
 1123 -375 1043 -487 921 -487 c 0
 837 -487 770 -413 770 -343 c 0
 770 -191 980 -105 1183 -105 c 0
 1387 -105 1615 -223 1615 -435 c 0
 1615 -603 1398 -740 1140 -740 c 0
 909 -740 682 -597 610 -445 c 0
 605 -435 608 -427 614 -421 c 2
 642 -389 l 1
 650 -382 659 -382 663 -390 c 0
 735 -525 911 -645 1140 -645 c 0
 1359 -645 1510 -547 1510 -435 c 0
 1510 -293 1351 -200 1183 -200 c 0
 1021 -200 870 -256 870 -344 c 0
 870 -373 893 -403 921 -403 c 0
 1007 -403 1097 -290 1205 -290 c 0
 1298 -290 1385 -348 1385 -430 c 0
 1385 -537 1266 -565 1179 -555 c 0
EndSplineSet
Fore
SplineSet
1179 -555 m 0
 1169 -554 1160 -549 1160 -539 c 2
 1160 -497 l 2
 1160 -489 1170 -477 1179 -480 c 0
 1211 -490 1300 -487 1300 -430 c 0
 1300 -398 1248 -375 1205 -375 c 0
 1123 -375 1043 -487 921 -487 c 0
 837 -487 770 -413 770 -343 c 0
 770 -191 960 -105 1183 -105 c 0
 1407 -105 1615 -223 1615 -435 c 0
 1615 -603 1418 -740 1140 -740 c 0
 889 -740 682 -597 610 -445 c 0
 605 -435 608 -427 614 -421 c 2
 642 -389 l 1
 650 -382 659 -382 663 -390 c 0
 735 -525 891 -645 1140 -645 c 0
 1379 -645 1510 -547 1510 -435 c 0
 1510 -293 1371 -200 1183 -200 c 0
 1001 -200 870 -256 870 -344 c 0
 870 -373 893 -403 921 -403 c 0
 1007 -403 1097 -290 1205 -290 c 0
 1298 -290 1385 -348 1385 -430 c 0
 1385 -537 1266 -565 1179 -555 c 0
EndSplineSet
Refer: 71 6560 N 1 0 0 1 0 0 2
Refer: 71 6560 N 1 0 0 1 0 0 2
Colour: ffffff
EndChar

StartChar: uni199C
Encoding: 6556 6556 130
Width: 1735
Flags: HMW
LayerCount: 2
Back
SplineSet
110 450 m 4
 110 158 261 -20 508 -20 c 4
 796 -20 891 178 933 455 c 4
 961 639 1024 805 1213 805 c 4
 1419 805 1500 610 1500 420 c 4
 1500 230 1410 105 1250 105 c 4
 1239 105 1224 106 1215 108 c 4
 1204 110 1192 110 1188 102 c 6
 1142 23 l 6
 1137 14 1140 2 1150 -2 c 4
 1181 -15 1218 -20 1250 -20 c 4
 1495 -19 1625 158 1625 420 c 4
 1625 672 1510 930 1213 930 c 4
 912 930 839 689 803 455 c 4
 770 238 694 105 508 105 c 4
 362 105 235 220 235 450 c 4
 235 640 305 805 465 805 c 4
 476 805 491 804 500 802 c 4
 511 800 523 800 527 808 c 6
 573 887 l 6
 578 896 575 908 565 912 c 4
 534 925 497 930 465 930 c 4
 220 929 110 722 110 450 c 4
1330 -625 m 4
 1217 -625 1143.5 -543 1084 -428 c 4
 1030.97427548 -325.513305551 955.5 -215 775 -215 c 4
 632 -215 501.729484299 -327.998200963 500 -490 c 4
 498.419921875 -638.006835938 574 -740 780 -740 c 4
 790 -740 799 -734 799 -724 c 6
 799 -677 l 6
 799 -669 789 -655 780 -655 c 4
 646 -655 600 -583 600 -490 c 4
 600 -398 662 -315 775 -315 c 4
 893.5 -315 963.604721571 -426.14578824 1020 -533 c 4
 1067.5 -623 1159 -740 1330 -740 c 4
 1518 -740 1605 -633 1605 -425 c 6
 1605 480 l 5
 1480 152 l 5
 1480 -425 l 6
 1480 -557 1439 -625 1330 -625 c 4
EndSplineSet
Fore
SplineSet
110 450 m 0
 110 722 220 929 465 930 c 0
 497 930 534 925 565 912 c 0
 575 908 578 896 573 887 c 2
 527 808 l 2
 523 800 511 800 500 802 c 0
 491 804 476 805 465 805 c 0
 305 805 235 640 235 450 c 0
 235 220 362 105 508 105 c 0
 694 105 770 238 803 455 c 0
 839 689 912 930 1213 930 c 0
 1510 930 1625 672 1625 420 c 0
 1625 158 1495 -19 1250 -20 c 0
 1218 -20 1181 -15 1150 -2 c 0
 1140 2 1137 14 1142 23 c 2
 1188 102 l 2
 1192 110 1204 110 1215 108 c 0
 1224 106 1239 105 1250 105 c 0
 1410 105 1500 230 1500 420 c 0
 1500 610 1419 805 1213 805 c 0
 1024 805 961 639 933 455 c 0
 891 178 796 -20 508 -20 c 0
 261 -20 110 158 110 450 c 0
1320 -635 m 0
 1419 -635 1480 -557 1480 -395 c 2
 1480 152 l 1
 1605 480 l 1
 1605 -395 l 2
 1605 -623 1508 -740 1320 -740 c 0
 1149 -740 1084.1106369 -624.708787539 1040 -533 c 0
 988.604492188 -426.145507812 933.5 -315 815 -315 c 0
 702 -315 640 -398 640 -490 c 0
 640 -583 686 -665 840 -665 c 0
 849 -665 859 -679 859 -687 c 2
 859 -724 l 2
 859 -734 850 -740 840 -740 c 0
 604 -740 528.419921875 -638.006835938 530 -490 c 0
 531.729492188 -327.998046875 662 -215 815 -215 c 0
 995.5 -215 1055.97460938 -325.513671875 1104 -428 c 0
 1158.94185234 -545.246078236 1207 -635 1320 -635 c 0
EndSplineSet
Colour: ffffff
EndChar

StartChar: uni19D2
Encoding: 6610 6610 131
Width: 1201
Flags: HMW
LayerCount: 2
Back
SplineSet
608 522 m 4
 662 482 721 404 721 282 c 4
 721 63 607 -20 480 -20 c 4
 322 -20 215 131 215 430 c 4
 215 751 355 930 620 930 c 4
 959 930 1049 548 1049 115 c 4
 1049 -343 918 -740 505 -740 c 4
 279 -740 101 -562 60 -412 c 4
 57 -402 64 -390 74 -386 c 6
 106 -375 l 6
 114 -372 128 -380 131 -390 c 4
 173 -512 309 -635 505 -635 c 4
 816 -635 920 -267 924 115 c 4
 928 451 858 805 620 805 c 4
 425 805 340 678 340 430 c 4
 340 224 381 105 480 105 c 4
 538 105 605 156 603 280 c 4
 602 354 557 408 511 441 c 4
 503 447 504 460 513 468 c 6
 582 527 l 6
 589 532 600 528 608 522 c 4
EndSplineSet
Fore
SplineSet
925.001953125 115 m 2
 925.999023438 649 l 2
 926.133789062 723.998046875 896.3046875 773 829.651367188 811.5 c 0
 821.482421875 816.21875 817.76171875 824.1328125 826.999023438 829 c 2
 909.999023438 928 l 2
 915.48828125 934.547851562 923.735351562 925.536132812 933.999023438 920 c 0
 1014.65136719 876.5 1051.19921875 819.004882812 1050.99902344 703 c 2
 1050.15136719 123 l 2
 1049.48242188 -334.999023438 918.001953125 -740 505.001953125 -740 c 0
 279.001953125 -740 101.001953125 -562 60.001953125 -412 c 0
 57.001953125 -402 64.001953125 -390 74.001953125 -386 c 2
 106.001953125 -375 l 2
 114.001953125 -372 128.001953125 -380 131.001953125 -390 c 0
 173.001953125 -512 309.001953125 -635 505.001953125 -635 c 0
 816.001953125 -635 924.2890625 -267.01953125 925.001953125 115 c 2
EndSplineSet
Colour: ffffff
EndChar

StartChar: uni19D5
Encoding: 6613 6613 132
Width: 1255
Flags: HMW
LayerCount: 2
Back
SplineSet
932 805 m 4
 765 805 617 701 617 530 c 4
 617 520 609 510 600 510 c 6
 550 510 l 6
 539 510 532 520 532 530 c 4
 532 579 543 635 553 672 c 4
 594 826 755 930 932 930 c 1028
217 930 m 4
 394 930 555 826 596 672 c 4
 606 635 617 579 617 530 c 4
 617 520 610 510 599 510 c 6
 549 510 l 6
 540 510 532 520 532 530 c 4
 532 701 384 805 217 805 c 1028
620 522 m 4
 674 482 733 404 733 282 c 4
 733 63 619 -20 492 -20 c 4
 334 -20 227 131 227 430 c 4
 227 751 367 930 632 930 c 4
 971 930 1061 548 1061 115 c 4
 1061 -343 930 -740 517 -740 c 4
 291 -740 113 -562 72 -412 c 4
 69 -402 76 -390 86 -386 c 6
 118 -375 l 6
 126 -372 140 -380 143 -390 c 4
 185 -512 321 -635 517 -635 c 4
 828 -635 932 -267 936 115 c 4
 940 451 870 805 632 805 c 4
 437 805 352 678 352 430 c 4
 352 224 393 105 492 105 c 4
 550 105 617 156 615 280 c 4
 614 354 569 408 523 441 c 4
 515 447 516 460 525 468 c 6
 594 527 l 6
 601 532 612 528 620 522 c 4
EndSplineSet
Fore
SplineSet
658.147460938 549.6640625 m 0
 658.147460938 539.666992188 649 528 640 528 c 2
 590 528 l 2
 579 528 572 538 572 548 c 0
 572 704 522 805 405 805 c 0
 301 805 245 713 245 624 c 0
 245 556 270.149414062 515 341 475 c 0
 350.256835938 469.7734375 342 452 334 448 c 1
 274 383 l 1
 265 378 254.130859375 378.557617188 245 384 c 0
 166.149414062 431 120 513 120 634 c 0
 120 780 220 930 405 930 c 0
 506.530273438 930 579.594726562 860.461914062 621.547851562 770.982421875 c 1
 666.611328125 861.184570312 756.912109375 930 845 930 c 0
 1089 930 1145 705 1145 161 c 0
 1145 -359 1021 -740 565 -740 c 0
 299 -740 140 -534 100 -412 c 0
 97 -402 104 -390 114 -386 c 2
 146 -375 l 2
 154 -372 167 -380 171 -390 c 0
 216 -490 329 -635 565 -635 c 0
 929 -635 1020 -296 1020 161 c 0
 1020 631 983 805 835 805 c 0
 721 805 658.147460938 703.6640625 658.147460938 549.6640625 c 0
EndSplineSet
Colour: ffffff
EndChar

StartChar: uni19D4
Encoding: 6612 6612 133
Width: 1145
Flags: HMW
LayerCount: 2
Back
SplineSet
600 105 m 0
 423 105 235 208 235 450 c 0
 235 679 398 805 610 805 c 0
 751 805 849 752 930 635 c 0
 936.854492188 625.099609375 950 621 960 629 c 1
 1029 673 l 1
 1039 681 1042.21191406 694.41796875 1035 705 c 0
 928 862 797 930 610 930 c 0
 305 930 110 738 110 450 c 0
 110 146 334 -20 600 -20 c 0
 655.583984375 -20 703.583984375 -8 774 18 c 0
 783.567382812 21.5322265625 785.047851562 5.9580078125 779 -1 c 0
 635.583984375 -166 363.583984375 -430 80 -618 c 0
 72.544921875 -622.942382812 68 -636 75 -646 c 1
 153 -735 l 2
 159 -741 172.305664062 -739.40234375 179 -734 c 0
 399.583984375 -556 733.583984375 -218 1029 112 c 0
 1035.66992188 119.451171875 1043 132 1035 141 c 2
 989 196 l 2
 984 203 971.28125 204.59375 961 199 c 0
 863.583984375 146 713 104 600 105 c 0
620 -20 m 0
 767 -20 933 33 1040 175 c 0
 1048 185 1045 200 1034 207 c 2
 965 251 l 2
 954 258 943 255 935 245 c 0
 854 143 741 105 620 105 c 0
 393 105 235 228 235 450 c 0
 235 679 408 805 610 805 c 0
 761 805 854 742 935 635 c 0
 942 625 954 622 965 629 c 2
 1034 673 l 2
 1045 680 1048 695 1040 705 c 0
 923 852 797 930 610 930 c 0
 295 930 110 718 110 450 c 0
 110 176 304 -20 620 -20 c 0
EndSplineSet
Fore
SplineSet
600 105 m 0
 713 104 835.605773926 136.191467285 961 219 c 0
 970.766912265 225.449927553 984 223 989 216 c 2
 1035 161 l 2
 1043 152 1035.11999544 139.909075542 1029 132 c 0
 767.605773926 -205.808532715 437.605773926 -535.808532715 219 -734 c 0
 212.626973244 -739.777887296 199 -741 193 -735 c 2
 115 -646 l 1
 108 -636 112.774564099 -623.272420105 120 -618 c 0
 391.605773926 -419.808532715 639.60546875 -173.80859375 783 -1 c 0
 788.88671875 6.0947265625 787.567382812 21.5322265625 778 18 c 0
 707.583984375 -8 655.583984375 -20 600 -20 c 0
 334 -20 110 146 110 450 c 0
 110 738 305 930 610 930 c 0
 797 930 928 862 1035 705 c 0
 1042.21194379 694.417989013 1039 681 1029 673 c 1
 960 629 l 1
 950 621 936.854492188 625.099609375 930 635 c 0
 849 752 751 805 610 805 c 0
 398 805 235 679 235 450 c 0
 235 208 423 105 600 105 c 0
EndSplineSet
Colour: ffffff
EndChar

StartChar: uni19DA
Encoding: 6618 6618 134
Width: 1589
Flags: HMW
LayerCount: 2
Back
SplineSet
600 105 m 4
 713 104 835.605773926 136.191467285 961 219 c 4
 970.766912265 225.449927553 984 223 989 216 c 6
 1035 161 l 6
 1043 152 1035.11999544 139.909075542 1029 132 c 4
 767.605773926 -205.808532715 437.605773926 -535.808532715 219 -734 c 4
 212.626973244 -739.777887296 199 -741 193 -735 c 6
 115 -646 l 5
 108 -636 112.774564099 -623.272420105 120 -618 c 4
 391.605773926 -419.808532715 639.60546875 -173.80859375 783 -1 c 4
 788.88671875 6.0947265625 787.567382812 21.5322265625 778 18 c 4
 707.583984375 -8 655.583984375 -20 600 -20 c 4
 334 -20 110 146 110 450 c 4
 110 738 305 930 610 930 c 4
 797 930 928 862 1035 705 c 4
 1042.21194379 694.417989013 1039 681 1029 673 c 5
 960 629 l 5
 950 621 936.854492188 625.099609375 930 635 c 4
 849 752 751 805 610 805 c 4
 398 805 235 679 235 450 c 4
 235 208 423 105 600 105 c 4
440 805 m 0
 325 805 235 708 235 460 c 0
 235 260 285 105 445 105 c 0
 456 105 471 106 480 108 c 0
 491 110 503 110 507 102 c 2
 553 23 l 2
 558 14 555 2 545 -2 c 0
 514 -15 477 -20 445 -20 c 0
 200 -19 110 188 110 460 c 0
 110 719 209 930 440 930 c 0
 632 930 718 730 718 550 c 1
 634 550 l 1
 634 684 550 805 440 805 c 0
451 -20 m 0
 239 -20 112 148 110 413 c 0
 108 679 261 928 606 928 c 0
 877 928 1041 772 1113 575 c 0
 1116 567 1126 563 1132 570 c 0
 1389 854 1513 1244 1523 1545 c 0
 1523 1556 1531 1570 1543 1570 c 2
 1638 1570 l 2
 1651 1570 1658 1553 1658 1545 c 0
 1636 1169 1461 791 1111 412 c 0
 1088 388 1045 393 1033 431 c 0
 961 660 836 803 605 803 c 0
 355 803 235 636 235 413 c 0
 235 214 313 90 451 90 c 0
 504 90 536 128 536 160 c 0
 536 196 500 231 458 240 c 0
 449 242 441 252 444 260 c 2
 466 313 l 2
 470 323 479 327 488 325 c 0
 568 310 638 242 636 160 c 0
 633 48 544 -20 451 -20 c 0
EndSplineSet
Fore
SplineSet
565 803 m 0
 400 803 235 678 235 450 c 0
 235 250 305 105 455 105 c 0
 501 105 532 125 560 148 c 0
 568.639342166 155.096602493 583 150 587 142 c 2
 633 63 l 2
 638 54 633.642783915 44.4266854753 625 38 c 0
 586 9 527 -20 455 -20 c 0
 219.998046875 -20 110 178 110 450 c 0
 110 699 255 928 566 928 c 0
 847 928 952 814 1063 575 c 0
 1066.59892916 567.250954325 1076.71289062 562.447265625 1082 570 c 0
 1264 830 1374 1244 1384 1545 c 0
 1384 1556 1392 1570 1404 1570 c 2
 1499 1570 l 2
 1512 1570 1519.52246094 1552.98242188 1519 1545 c 0
 1497 1209 1390 814 1081 412 c 0
 1060.7421875 385.64453125 1006.81103889 393.620122998 993 431 c 0
 901 680 776 803 565 803 c 0
EndSplineSet
Colour: ffffff
EndChar

StartChar: uni19DE
Encoding: 6622 6622 135
Width: 1894
Flags: HMW
LayerCount: 2
Back
SplineSet
1117 105 m 0
 931 105 935 238 902 455 c 0
 866 689 803 930 502 930 c 0
 205 930 110 672 110 420 c 0
 110 158 220 -19 465 -20 c 0
 497 -20 534 -15 565 -2 c 0
 575 2 578 14 573 23 c 2
 527 102 l 2
 523 110 511 110 500 108 c 0
 491 106 476 105 465 105 c 0
 305 105 235 230 235 420 c 0
 235 610 296 805 502 805 c 0
 691 805 744 639 772 455 c 0
 814.125976562 178.168945312 829 -20 1117 -20 c 0
 1467 -20 1506 386 1454 830 c 0
 1405 1244 1418 1555 1584 1555 c 0
 1723 1555 1734 1389 1734 1230 c 0
 1734 1220 1741 1211 1752 1211 c 2
 1792 1210 l 2
 1801 1210 1807 1220 1809 1230 c 0
 1859 1460 1811 1650 1584 1650 c 0
 1307 1650 1275 1310 1329 830 c 0
 1368 485 1374 105 1117 105 c 0
EndSplineSet
Fore
SplineSet
1117 105 m 0
 1374 105 1368 485 1329 830 c 0
 1275 1310 1307 1650 1584 1650 c 0
 1811 1650 1859 1460 1809 1230 c 0
 1807 1220 1801 1210 1792 1210 c 2
 1752 1211 l 2
 1741 1211 1734 1220 1734 1230 c 0
 1734 1389 1723 1555 1584 1555 c 0
 1418 1555 1405 1244 1454 830 c 0
 1506 386 1467 -20 1117 -20 c 0
 849 -20 819.575646281 180.351989678 765 455 c 0
 721.48223877 674 671 805 502 805 c 0
 306 805 235 610 235 420 c 0
 235 230 305 105 465 105 c 0
 476 105 491 106 500 108 c 0
 511 110 523 110 527 102 c 2
 573 23 l 2
 578 14 575 2 565 -2 c 0
 534 -15 497 -20 465 -20 c 0
 220 -19 110 158 110 420 c 0
 110 672 215 930 502 930 c 0
 783 930 840.48223877 717 890 455 c 0
 930.762684257 239.323381953 971 105 1117 105 c 0
EndSplineSet
Colour: ffffff
EndChar

StartChar: uni19D7
Encoding: 6615 6615 136
Width: 1679
Flags: HMW
LayerCount: 2
Back
SplineSet
440 805 m 0
 325 805 245 708 245 460 c 0
 245 260 295 105 455 105 c 0
 466 105 481 106 490 108 c 0
 501 110 513 110 517 102 c 2
 563 23 l 2
 568 14 565 2 555 -2 c 0
 524 -15 487 -20 455 -20 c 0
 210 -19 120 188 120 460 c 0
 120 719 209 930 440 930 c 0
 632 930 728 730 728 550 c 1
 644 550 l 1
 644 684 550 805 440 805 c 0
1282.99707031 430 m 0
 1282.99707031 -250 l 2
 1282.99707031 -507 1303.99707031 -635 1422.99707031 -635 c 0
 1561.99707031 -635 1582.99707031 -483 1582.99707031 -294 c 0
 1582.99707031 -284 1589.99707031 -275 1600.99707031 -275 c 2
 1640.99707031 -275 l 2
 1649.99707031 -275 1655.99707031 -284 1657.99707031 -294 c 0
 1707.99707031 -544 1649.99707031 -740 1422.99707031 -740 c 0
 1224.99707031 -740 1157.99707031 -604 1157.99707031 -250 c 2
 1157.99707031 430 l 0
 1158.48535156 651.952148438 1100.31542792 805 920 805 c 0
 829 805 728 688 728 550 c 0
 728 540 720 530 711 530 c 2
 661 530 l 2
 650 530 643 540 643 550 c 0
 643 718 747 930 930 930 c 0
 1180.68864391 930 1280.36914062 730.133789062 1282.99707031 430 c 0
EndSplineSet
Fore
SplineSet
440 805 m 0
 325 805 235 708 235 460 c 0
 235 260 285 105 445 105 c 0
 456 105 471 106 480 108 c 0
 491 110 503 110 507 102 c 2
 553 23 l 2
 558 14 555 2 545 -2 c 0
 514 -15 477 -20 445 -20 c 0
 200 -19 110 188 110 460 c 0
 110 719 209 930 440 930 c 0
 632 930 718 730 718 550 c 1
 634 550 l 1
 634 684 550 805 440 805 c 0
1232.99707031 450 m 0
 1232.99707031 -250 l 2
 1232.99707031 -507 1253.99707031 -635 1372.99707031 -635 c 0
 1511.99707031 -635 1532.99707031 -483 1532.99707031 -294 c 0
 1532.99707031 -284 1539.99707031 -275 1550.99707031 -275 c 2
 1590.99707031 -275 l 2
 1599.99707031 -275 1605.99707031 -284 1607.99707031 -294 c 0
 1657.99707031 -544 1599.99707031 -740 1372.99707031 -740 c 0
 1174.99707031 -740 1107.99707031 -604 1107.99707031 -250 c 2
 1107.99707031 430 l 0
 1108.48535156 691.952148438 1050.31542969 805 920 805 c 0
 809 805 718 688 718 550 c 0
 718 540 710 530 701 530 c 2
 651 530 l 2
 640 530 633 540 633 550 c 0
 633 718 717 930 920 930 c 0
 1140.68847656 930 1229.33398438 779 1232.99707031 450 c 0
EndSplineSet
Colour: ffffff
EndChar

StartChar: uni19D9
Encoding: 6617 6617 137
Width: 1126
Flags: HMW
LayerCount: 2
Back
SplineSet
665 -635 m 0
 951 -635 1015 -440 1060 -290 c 0
 1063 -279 1077 -272 1085 -275 c 2
 1117 -286 l 2
 1127 -290 1133 -302 1131 -312 c 0
 1091 -484 982 -740 665 -740 c 0
 268 -740 130 -412 130 140 c 0
 130 683 351 930 630 930 c 0
 957 930 1030 702 1030 520 c 0
 1030 348 930 151 685 150 c 0
 628 150 566 166 515 195 c 0
 506 200 502 211 507 220 c 2
 553 299 l 2
 557 307 571 310 580 305 c 0
 606 290 645 275 685 275 c 0
 845 275 905 420 905 520 c 0
 905 640 856 805 630 805 c 0
 418 805 255 603 255 140 c 0
 255 -350 389 -635 665 -635 c 0
EndSplineSet
Fore
SplineSet
625 -635 m 0
 911 -635 975 -440 1020 -290 c 0
 1023 -279 1037 -272 1045 -275 c 2
 1077 -286 l 2
 1087 -290 1093 -302 1091 -312 c 0
 1051 -484 942 -740 625 -740 c 0
 238 -740 110 -422 110 130 c 0
 110 673 291 930 570 930 c 0
 877 930 950 702 950 520 c 0
 950 348 870 151 625 150 c 0
 568 150 506 166 455 195 c 0
 446 200 442 211 447 220 c 2
 493 299 l 2
 497 307 511 310 520 305 c 0
 546 290 585 275 625 275 c 0
 785 275 825 420 825 520 c 0
 825 640 776 805 570 805 c 0
 358 805 235 593 235 130 c 0
 235 -360 359 -635 625 -635 c 0
EndSplineSet
Colour: ffffff
EndChar

StartChar: uni19D6
Encoding: 6614 6614 138
Width: 1130
Flags: HMW
LayerCount: 2
Back
SplineSet
1010 255 m 0
 1010 70 865 -20 610 -20 c 0
 294 -20 130 201 130 790 c 0
 130 1413 272 1650 595 1650 c 0
 822 1650 951 1514 991 1382 c 0
 994.02734375 1372.00878906 987 1360 977 1356 c 2
 945 1345 l 2
 937 1342 924 1350 920 1360 c 0
 875 1460 781 1555 595 1555 c 0
 339 1555 255 1311 255 790 c 0
 255 287 382 105 610 105 c 0
 775 105 885 148 885 255 c 0
 885 327 801.426252084 408.233478096 729 465 c 0
 655 523 570 601 570 720 c 0
 570 853 648 930 790 930 c 0
 933 930 1010 815 1010 715 c 0
 1010 705 1004 697 994 696 c 1
 902 696 l 1
 894 695 880 706 880 715 c 0
 880 754 853 805 790 805 c 0
 728 805 695 763 695 720 c 0
 695 646 759 593 821 550 c 0
 906.220974172 490.895130816 1010 390 1010 255 c 0
EndSplineSet
Fore
SplineSet
1010 275 m 0
 1010 110 895 -20 610 -20 c 0
 294 -20 130 201 130 790 c 0
 130 1413 272 1650 595 1650 c 0
 822 1650 951 1514 991 1382 c 0
 994.02734375 1372.00878906 987 1360 977 1356 c 2
 945 1345 l 2
 937 1342 924 1350 920 1360 c 0
 875 1460 781 1555 595 1555 c 0
 339 1555 255 1311 255 790 c 0
 255 287 382 105 610 105 c 0
 804 105 885 178 885 265 c 0
 885 347 824.069776403 398.099046235 729 465 c 0
 648 522 570 601 570 720 c 0
 570 853 648 930 790 930 c 0
 933 930 1010 815 1010 715 c 0
 1010 705 1004 697 994 696 c 1
 902 696 l 1
 894 695 880 706 880 715 c 0
 880 754 853 805 790 805 c 0
 728 805 695 763 695 720 c 0
 695 646 743.66428214 604.444345373 821 550 c 0
 946 462 1010 390 1010 275 c 0
EndSplineSet
Colour: ffffff
EndChar

StartChar: uni19A8
Encoding: 6568 6568 139
Width: 1250
Flags: HMW
LayerCount: 2
Back
SplineSet
110 440 m 0
 110 755 337 970 625 970 c 0
 939 970 1140 766 1140 450 c 0
 1140 219 1059 61 880 -20 c 0
 870 -24 859 -23 854 -14 c 2
 806 64 l 2
 801 72 805 87 815 90 c 0
 950 138 1015 257 1015 450 c 0
 1015 657 877 845 625 845 c 0
 376 845 235 652 235 440 c 0
 235 279 308 166 415 85 c 0
 425 78 429 65 421 55 c 2
 367 -14 l 2
 359 -24 345 -28 335 -20 c 0
 188 87 110 233 110 440 c 0
350 -345 m 0
 350 -420 459 -475 625 -475 c 0
 791 -475 905 -420 905 -345 c 0
 905 -270 791 -220 625 -220 c 0
 459 -220 350 -270 350 -345 c 0
245 -345 m 0
 245 -200 401 -115 625 -115 c 0
 849 -115 1010 -200 1010 -345 c 0
 1010 -488 849 -580 625 -580 c 0
 401 -580 245 -488 245 -345 c 0
EndSplineSet
Fore
Refer: 39 -1 N 1 0 0 1 1217 0 2
Refer: 64 6533 N 1 0 0 1 0 0 2
Colour: ffffff
EndChar

StartChar: uni19A7
Encoding: 6567 6567 140
Width: 1185
Flags: HMW
LayerCount: 2
Back
SplineSet
128.001953125 -442 m 4
 123.672851562 -432.138671875 132.001953125 -420 142.001953125 -416 c 6
 174.001953125 -405 l 6
 182.001953125 -402 194.29296875 -411.178710938 199.001953125 -420 c 4
 270.001953125 -553 383.001953125 -635 573.001953125 -635 c 4
 820.001953125 -635 970.001953125 -430 970.001953125 -170 c 4
 970.001953125 151 801.001953125 350 504.001953125 350 c 4
 367.001953125 350 234.001953125 303 234.001953125 215 c 4
 234.001953125 137 367.001953125 90 499.001953125 90 c 4
 756.001953125 90 950.001953125 228 950.001953125 470 c 4
 950.001953125 689 806.001953125 805 574.001953125 805 c 4
 413.001953125 805 290.001953125 732 229.001953125 625 c 4
 223.001953125 614 209.001953125 611 199.001953125 619 c 6
 130.001953125 673 l 6
 120.001953125 681 117.001953125 694 124.001953125 705 c 4
 211.001953125 852 367.001953125 930 574.001953125 930 c 4
 909.001953125 930 1075.00195312 728 1075.00195312 470 c 4
 1075.00195312 166 845.001953125 -20 499.001953125 -20 c 4
 305.001953125 -20 124.001953125 72 124.001953125 215 c 4
 124.001953125 379 305.001953125 460 504.001953125 460 c 4
 871.001953125 460 1095.00195312 233 1095.00195312 -170 c 4
 1095.00195312 -503 900.001953125 -740 573.001953125 -740 c 4
 351.001953125 -740 200.001953125 -606 128.001953125 -442 c 4
329 -345 m 0
 329 -420 438 -475 604 -475 c 0
 770 -475 884 -420 884 -345 c 0
 884 -270 770 -220 604 -220 c 0
 438 -220 329 -270 329 -345 c 0
224 -345 m 0
 224 -200 380 -115 604 -115 c 0
 828 -115 989 -200 989 -345 c 0
 989 -488 828 -580 604 -580 c 0
 380 -580 224 -488 224 -345 c 0
EndSplineSet
Fore
SplineSet
524 460 m 0
 831 460 1045 277 1075 5 c 0
 1076 -5 1071 -10 1062 -10 c 2
 1019 -10 l 2
 1010 -10 1002 -6 1000 5 c 0
 955 220 780 355 524 355 c 0
 332 355 234 283 234 215 c 0
 234 122 382 90 519 90 c 0
 756 90 950 233 950 470 c 0
 950 699 796 805 564 805 c 0
 413 805 290 732 229 625 c 0
 223 614 209 611 199 619 c 2
 130 673 l 2
 120 681 117 694 124 705 c 0
 211 852 367 930 564 930 c 0
 899 930 1075 738 1075 470 c 0
 1075 186 865 -20 519 -20 c 0
 325 -20 124 52 124 215 c 0
 124 359 275 460 524 460 c 0
EndSplineSet
Refer: 39 -1 N 1 0 0 1 1184 0 2
Colour: ffffff
EndChar

StartChar: uni19AA
Encoding: 6570 6570 141
Width: 1786
Flags: W
HStem: -700 105<525.802 978.679> -210 105<808.136 1272.63>
VStem: 380 114<-557.7 -404.777> 1310 114<-397.998 -249.963>
LayerCount: 2
Fore
SplineSet
494 -485 m 0
 494 -570 604 -595 710 -595 c 0
 996 -595 1310 -430 1310 -325 c 0
 1310 -250 1226 -210 1080 -210 c 0
 794 -210 494 -370 494 -485 c 0
380 -495 m 0
 380 -300 756 -105 1100 -105 c 0
 1304 -105 1424 -180 1424 -315 c 0
 1424 -508 1034 -700 690 -700 c 0
 526 -700 380 -638 380 -495 c 0
EndSplineSet
Refer: 80 6537 N 1 0 0 1 0 0 2
EndChar

StartChar: uni19AB
Encoding: 6571 6571 142
Width: 1250
Flags: W
HStem: 70 85<722 933> 805 125<441.916 848.565> 1555 95<472.667 857.472>
VStem: 110 125<236.893 595.703> 135 125<737.761 1313.92> 1010 71<1356.19 1415.13> 1015 125<291.384 649.642>
LayerCount: 2
Back
SplineSet
450.49609375 40.873046875 m 0
 710.61328125 203.931640625 989.130859375 162.541015625 1159.01757812 -51.9873046875 c 0
 1165.17675781 -59.9287109375 1163.59570312 -66.8212890625 1155.96972656 -71.6015625 c 2
 1119.53710938 -94.4404296875 l 2
 1111.91113281 -99.220703125 1103.00878906 -100.080078125 1095.47167969 -91.822265625 c 0
 943.149414062 66.443359375 723.170898438 87.8779296875 506.265625 -48.0927734375 c 1024
655 1555 m 0
 358 1555 260 1308.31835938 260 1050 c 0
 260 907.318359375 270 795.318359375 283 717 c 1
 167 604 l 1
 152 705.318359375 135 860.028320312 135 1050 c 0
 135 1362.31835938 268 1650 655 1650 c 0
 882 1650 1041 1504 1081 1382 c 0
 1084 1372 1077 1360 1067 1356 c 2
 1035 1345 l 2
 1027 1342 1014 1350 1010 1360 c 0
 965 1460 851 1555 655 1555 c 0
1140 480 m 0
 1140 288 1007 51 742 50 c 0
 732 49.9619140625 722 58 722 67 c 2
 722 117 l 2
 722 128 732 135 742 135 c 0
 892 135 1015 270 1015 480 c 0
 1015 677 887 805 635 805 c 0
 386 805 235 622 235 420 c 0
 235 269 308 166 415 85 c 0
 425 78 428 66 421 55 c 1
 367 -14 l 1
 360 -25 345 -28 335 -20 c 0
 188 87 110 223 110 420 c 0
 110 725 347 930 635 930 c 0
 949 930 1140 766 1140 480 c 0
1160 -285 m 0
 1160 -598 895 -740 638 -740 c 0
 410 -740 232 -574 182 -442 c 0
 178 -432 186 -420 196 -416 c 2
 228 -405 l 2
 236 -402 248 -410 253 -420 c 0
 308 -530 442 -635 638 -635 c 0
 815 -635 1035 -545 1035 -285 c 0
 1035 -8 808 50 744 50 c 1
 744 135 l 1
 934 135 1160 28 1160 -285 c 0
EndSplineSet
Fore
SplineSet
744.5 69.5 m 0xe0
 744 155 l 0
 933 156.5 1057 102.5 1160.01757812 -21.9873046875 c 0
 1166.42480469 -29.7294921875 1164.59570312 -36.8212890625 1156.96972656 -41.6015625 c 2
 1120.53710938 -64.4404296875 l 2
 1112.91113281 -69.220703125 1104.44726562 -69.6572265625 1096.47167969 -61.822265625 c 0
 1003 30 897 68 744.5 69.5 c 0xe0
655 1555 m 0
 358 1555 260 1308.31835938 260 1050 c 0
 260 907.318359375 270 795.318359375 283 717 c 1
 167 604 l 1
 152 705.318359375 135 860.028320312 135 1050 c 0
 135 1362.31835938 268 1650 655 1650 c 0
 882 1650 1041 1504 1081 1382 c 0
 1084 1372 1077 1360 1067 1356 c 2
 1035 1345 l 2
 1027 1342 1014 1350 1010 1360 c 0xec
 965 1460 851 1555 655 1555 c 0
1140 480 m 0xf2
 1140 288 1007 71 742 70 c 0
 732 69.9619140625 722 78 722 87 c 2
 722 137 l 2
 722 148 732 155 742 155 c 0
 892 155 1015 270 1015 480 c 0
 1015 677 887 805 635 805 c 0
 386 805 235 622 235 420 c 0
 235 269 308 166 415 85 c 0
 425 78 428 66 421 55 c 1
 367 -14 l 1
 360 -25 345 -28 335 -20 c 0
 188 87 110 223 110 420 c 0
 110 725 347 930 635 930 c 0
 949 930 1140 766 1140 480 c 0xf2
EndSplineSet
Refer: 39 -1 N 1 0 0 1 1232 0 2
Refer: 39 -1 N 1 0 0 1 1217 0 2
Colour: ffffff
EndChar
